<svg width="16" height="16" viewBox="0 0 16 16" fill="none" xmlns="http://www.w3.org/2000/svg">
<path d="M8 0C6.41775 0 4.87103 0.469192 3.55544 1.34824C2.23985 2.22729 1.21447 3.47672 0.608967 4.93853C0.00346627 6.40034 -0.15496 8.00887 0.153721 9.56072C0.462403 11.1126 1.22433 12.538 2.34315 13.6569C3.46197 14.7757 4.88743 15.5376 6.43928 15.8463C7.99113 16.155 9.59966 15.9965 11.0615 15.391C12.5233 14.7855 13.7727 13.7602 14.6518 12.4446C15.5308 11.129 16 9.58225 16 8C16 6.94942 15.7931 5.90914 15.391 4.93853C14.989 3.96793 14.3997 3.08601 13.6569 2.34315C12.914 1.60028 12.0321 1.011 11.0615 0.608964C10.0909 0.206926 9.05058 0 8 0ZM8 14.4C6.7342 14.4 5.49683 14.0246 4.44435 13.3214C3.39188 12.6182 2.57157 11.6186 2.08717 10.4492C1.60277 9.27972 1.47603 7.9929 1.72298 6.75142C1.96992 5.50994 2.57946 4.36957 3.47452 3.47452C4.36958 2.57946 5.50995 1.96992 6.75142 1.72297C7.9929 1.47603 9.27973 1.60277 10.4492 2.08717C11.6186 2.57157 12.6182 3.39187 13.3214 4.44435C14.0246 5.49682 14.4 6.7342 14.4 8C14.4 9.69738 13.7257 11.3252 12.5255 12.5255C11.3253 13.7257 9.69739 14.4 8 14.4Z" fill="#0884FF"/>
<path d="M10.3998 7.1998H8.7998V5.5998C8.7998 5.38763 8.71552 5.18415 8.56549 5.03412C8.41546 4.88409 8.21198 4.7998 7.9998 4.7998C7.78763 4.7998 7.58415 4.88409 7.43412 5.03412C7.28409 5.18415 7.1998 5.38763 7.1998 5.5998V7.1998H5.5998C5.38763 7.1998 5.18415 7.28409 5.03412 7.43412C4.88409 7.58415 4.7998 7.78763 4.7998 7.9998C4.7998 8.21198 4.88409 8.41546 5.03412 8.56549C5.18415 8.71552 5.38763 8.7998 5.5998 8.7998H7.1998V10.3998C7.1998 10.612 7.28409 10.8155 7.43412 10.9655C7.58415 11.1155 7.78763 11.1998 7.9998 11.1998C8.21198 11.1998 8.41546 11.1155 8.56549 10.9655C8.71552 10.8155 8.7998 10.612 8.7998 10.3998V8.7998H10.3998C10.612 8.7998 10.8155 8.71552 10.9655 8.56549C11.1155 8.41546 11.1998 8.21198 11.1998 7.9998C11.1998 7.78763 11.1155 7.58415 10.9655 7.43412C10.8155 7.28409 10.612 7.1998 10.3998 7.1998Z" fill="#0884FF"/>
</svg>
