<svg width="20" height="20" viewBox="0 0 20 20" fill="none" xmlns="http://www.w3.org/2000/svg">
<path d="M18.9167 13.5417C17.5625 13.5417 16.2625 13.325 15.0492 12.9242C14.67 12.805 14.2475 12.8917 13.9442 13.1842L11.5608 15.5675C8.495 14.0075 5.98167 11.505 4.42167 8.42833L6.805 6.03417C7.10833 5.7525 7.195 5.33 7.07583 4.95083C6.675 3.7375 6.45833 2.4375 6.45833 1.08333C6.45833 0.4875 5.97083 0 5.375 0H1.58333C0.9875 0 0.5 0.4875 0.5 1.08333C0.5 11.2558 8.74417 19.5 18.9167 19.5C19.5125 19.5 20 19.0125 20 18.4167V14.625C20 14.0292 19.5125 13.5417 18.9167 13.5417ZM17.8333 9.75H20C20 4.36583 15.6342 0 10.25 0V2.16667C14.4425 2.16667 17.8333 5.5575 17.8333 9.75ZM13.5 9.75H15.6667C15.6667 6.76 13.24 4.33333 10.25 4.33333V6.5C12.0483 6.5 13.5 7.95167 13.5 9.75Z" fill="white"/>
</svg>
