<svg width="14" height="14" viewBox="0 0 14 14" fill="none" xmlns="http://www.w3.org/2000/svg">
<path d="M7.12145 13.6663H7.18826C8.09317 13.67 8.98989 13.4948 9.82688 13.1508C10.6639 12.8068 11.4246 12.3009 12.0655 11.662C12.7544 10.9749 13.2875 10.1478 13.6288 9.23672C13.6728 9.11772 13.682 8.98867 13.6554 8.86464C13.6287 8.74061 13.5673 8.62674 13.4783 8.53634C13.3893 8.44594 13.2764 8.38274 13.1528 8.35415C13.0292 8.32555 12.9 8.33273 12.7803 8.37485C11.775 8.73806 10.6873 8.80909 9.64325 8.5797C8.59919 8.35032 7.64146 7.82991 6.88093 7.07872C6.12743 6.32248 5.60526 5.36702 5.37568 4.32445C5.1461 3.28188 5.21864 2.19546 5.5848 1.19267C5.62108 1.07723 5.62533 0.954097 5.59709 0.836426C5.56885 0.718756 5.50918 0.610964 5.42445 0.524563C5.33297 0.434672 5.21754 0.373013 5.09196 0.346949C4.96638 0.320885 4.83596 0.331518 4.71626 0.377579C3.69039 0.762464 2.77331 1.39066 2.04382 2.2082C0.911497 3.51301 0.302623 5.191 0.334702 6.91832C0.366781 8.64565 1.03754 10.2999 2.21753 11.5617C2.85386 12.2211 3.61535 12.7468 4.45741 13.1082C5.29946 13.4696 6.20516 13.6593 7.12145 13.6663Z" fill="#FF6100"/>
</svg>
