<svg width="14" height="12" viewBox="0 0 14 12" fill="none" xmlns="http://www.w3.org/2000/svg">
<path d="M6.7851 11.6471C6.90934 11.7657 7.07638 11.832 7.25035 11.832C7.42432 11.832 7.59136 11.7657 7.7156 11.6471L9.70954 9.77143C9.78007 9.7148 9.83783 9.64462 9.87921 9.56527C9.92059 9.48593 9.9447 9.39913 9.95004 9.3103C9.95537 9.22147 9.94182 9.13252 9.91022 9.04903C9.87862 8.96553 9.82966 8.88927 9.76639 8.82503C9.70313 8.76079 9.62692 8.70994 9.54254 8.67567C9.45816 8.64139 9.36742 8.62443 9.276 8.62584C9.18457 8.62725 9.09443 8.647 9.01121 8.68386C8.92799 8.72072 8.85347 8.77389 8.79233 8.84005L7.92164 9.66148L7.92164 6.01356C7.92164 5.84201 7.85162 5.6775 7.72697 5.5562C7.60233 5.4349 7.43327 5.36676 7.257 5.36676C7.08072 5.36676 6.91167 5.4349 6.78702 5.5562C6.66238 5.6775 6.59235 5.84201 6.59235 6.01356L6.59235 9.62914L5.73496 8.78831C5.67317 8.72768 5.59966 8.67957 5.51866 8.64673C5.43767 8.61389 5.3508 8.59699 5.26306 8.59699C5.17532 8.59699 5.08844 8.61389 5.00745 8.64673C4.92646 8.67957 4.85295 8.72768 4.79116 8.78831C4.72886 8.84843 4.67942 8.91997 4.64567 8.99879C4.61193 9.07761 4.59456 9.16215 4.59456 9.24753C4.59456 9.33292 4.61193 9.41745 4.64567 9.49627C4.67942 9.57509 4.72886 9.64663 4.79116 9.70676L6.7851 11.6471Z" fill="white"/>
<path d="M11.0569 2.7775C10.7857 2.01496 10.2769 1.35366 9.6015 0.885601C8.92607 0.417544 8.1175 0.166016 7.28831 0.166016C6.45912 0.166016 5.65056 0.417544 4.97512 0.885601C4.29968 1.35366 3.79097 2.01496 3.51976 2.7775C2.92261 2.85533 2.35844 3.08968 1.88759 3.45547C1.41674 3.82125 1.05694 4.30473 0.846666 4.85416C0.636393 5.40359 0.583562 5.99832 0.693825 6.57472C0.804088 7.15112 1.0733 7.6875 1.47265 8.1265C1.52089 8.20918 1.58727 8.28051 1.66707 8.33538C1.74686 8.39026 1.83811 8.42733 1.93431 8.44398C2.03051 8.46062 2.1293 8.45642 2.22364 8.43167C2.31798 8.40693 2.40555 8.36224 2.48012 8.3008C2.55469 8.23936 2.61443 8.16267 2.65507 8.07621C2.69571 7.98974 2.71626 7.89561 2.71526 7.80053C2.71426 7.70545 2.69173 7.61176 2.64927 7.52612C2.60681 7.44048 2.54547 7.36501 2.46962 7.30507C2.21248 7.0253 2.04424 6.67897 1.98529 6.30803C1.92633 5.93709 1.9792 5.55748 2.13748 5.21519C2.29576 4.8729 2.55266 4.58264 2.87705 4.37957C3.20143 4.1765 3.57937 4.06934 3.96508 4.07109H4.03154C4.18703 4.07414 4.3387 4.02403 4.46014 3.92949C4.58159 3.83494 4.66512 3.70195 4.69619 3.55365C4.81823 2.9688 5.14428 2.44299 5.61911 2.06531C6.09394 1.68764 6.68834 1.48132 7.3016 1.48132C7.91486 1.48132 8.50926 1.68764 8.98409 2.06531C9.45892 2.44299 9.78498 2.9688 9.90702 3.55365C9.93809 3.70195 10.0216 3.83494 10.1431 3.92949C10.2645 4.02403 10.4162 4.07414 10.5717 4.07109H10.6115C10.9972 4.06934 11.3752 4.1765 11.6996 4.37957C12.024 4.58264 12.2809 4.8729 12.4391 5.21519C12.5974 5.55748 12.6503 5.93709 12.5913 6.30803C12.5324 6.67897 12.3641 7.0253 12.107 7.30507C12.0485 7.36896 12.0035 7.44352 11.9748 7.52444C11.9461 7.60536 11.9342 7.69102 11.9397 7.77645C11.9453 7.86189 11.9682 7.94539 12.0072 8.02214C12.0462 8.09888 12.1004 8.16733 12.1668 8.22352C12.288 8.32751 12.4439 8.38499 12.6055 8.38521C12.6999 8.3851 12.7931 8.36543 12.8791 8.32751C12.965 8.28959 13.0417 8.2343 13.104 8.1653C13.5144 7.72706 13.7931 7.18745 13.9097 6.60545C14.0262 6.02346 13.9761 5.42148 13.7648 4.86534C13.5535 4.30919 13.1891 3.82029 12.7115 3.45207C12.2339 3.08385 11.6615 2.85049 11.0569 2.7775Z" fill="white"/>
</svg>
