<svg width="16" height="14" viewBox="0 0 16 14" fill="none" xmlns="http://www.w3.org/2000/svg">
<path d="M15.6187 10.3694L10.2371 1.44443C10.0195 1.104 9.71966 0.82384 9.36527 0.629773C9.01089 0.435707 8.61336 0.333984 8.20932 0.333984C7.80528 0.333984 7.40774 0.435707 7.05336 0.629773C6.69898 0.82384 6.39916 1.104 6.18155 1.44443L0.799889 10.3694C0.609779 10.6863 0.506451 11.0477 0.500292 11.4172C0.494134 11.7867 0.585363 12.1513 0.764806 12.4744C0.97227 12.838 1.27256 13.1401 1.63499 13.3496C1.99743 13.5592 2.409 13.6688 2.82766 13.6672H13.591C14.0069 13.6716 14.4166 13.5663 14.7788 13.3618C15.141 13.1573 15.4428 12.8609 15.6538 12.5024C15.8385 12.176 15.9327 11.8062 15.9265 11.4312C15.9203 11.0562 15.8141 10.6896 15.6187 10.3694ZM14.4259 11.8078C14.3416 11.9528 14.2192 12.0719 14.0721 12.1523C13.9249 12.2327 13.7585 12.2713 13.591 12.2639H2.82766C2.66012 12.2713 2.49375 12.2327 2.34658 12.1523C2.1994 12.0719 2.07702 11.9528 1.99269 11.8078C1.93111 11.7011 1.89869 11.5802 1.89869 11.457C1.89869 11.3338 1.93111 11.2128 1.99269 11.1062L7.38137 2.17415C7.4782 2.04624 7.60335 1.94251 7.747 1.87109C7.89065 1.79967 8.04889 1.7625 8.20932 1.7625C8.36974 1.7625 8.52799 1.79967 8.67164 1.87109C8.81529 1.94251 8.94043 2.04624 9.03726 2.17415L14.4189 11.0991C14.4829 11.206 14.5172 11.328 14.5185 11.4525C14.5197 11.5771 14.4878 11.6997 14.4259 11.8078Z" fill="#FF443C"/>
<path d="M15.6187 10.3694L10.2371 1.44443C10.0195 1.104 9.71966 0.82384 9.36527 0.629773C9.01089 0.435707 8.61336 0.333984 8.20932 0.333984C7.80528 0.333984 7.40774 0.435707 7.05336 0.629773C6.69898 0.82384 6.39916 1.104 6.18155 1.44443L0.799889 10.3694C0.609779 10.6863 0.506451 11.0477 0.500292 11.4172C0.494134 11.7867 0.585363 12.1513 0.764806 12.4744C0.97227 12.838 1.27256 13.1401 1.63499 13.3496C1.99743 13.5592 2.409 13.6688 2.82766 13.6672H13.591C14.0069 13.6716 14.4166 13.5663 14.7788 13.3618C15.141 13.1573 15.4428 12.8609 15.6538 12.5024C15.8385 12.176 15.9327 11.8062 15.9265 11.4312C15.9203 11.0562 15.8141 10.6896 15.6187 10.3694ZM14.4259 11.8078C14.3416 11.9528 14.2192 12.0719 14.0721 12.1523C13.9249 12.2327 13.7585 12.2713 13.591 12.2639H2.82766C2.66012 12.2713 2.49375 12.2327 2.34658 12.1523C2.1994 12.0719 2.07702 11.9528 1.99269 11.8078C1.93111 11.7011 1.89869 11.5802 1.89869 11.457C1.89869 11.3338 1.93111 11.2128 1.99269 11.1062L7.38137 2.17415C7.4782 2.04624 7.60335 1.94251 7.747 1.87109C7.89065 1.79967 8.04889 1.7625 8.20932 1.7625C8.36974 1.7625 8.52799 1.79967 8.67164 1.87109C8.81529 1.94251 8.94043 2.04624 9.03726 2.17415L14.4189 11.0991C14.4829 11.206 14.5172 11.328 14.5185 11.4525C14.5197 11.5771 14.4878 11.6997 14.4259 11.8078Z" fill="black" fill-opacity="0.24"/>
<path d="M8.20946 10.8603C8.59697 10.8603 8.91111 10.5462 8.91111 10.1587C8.91111 9.77117 8.59697 9.45703 8.20946 9.45703C7.82195 9.45703 7.50781 9.77117 7.50781 10.1587C7.50781 10.5462 7.82195 10.8603 8.20946 10.8603Z" fill="#FF443C"/>
<path d="M8.20946 10.8603C8.59697 10.8603 8.91111 10.5462 8.91111 10.1587C8.91111 9.77117 8.59697 9.45703 8.20946 9.45703C7.82195 9.45703 7.50781 9.77117 7.50781 10.1587C7.50781 10.5462 7.82195 10.8603 8.20946 10.8603Z" fill="black" fill-opacity="0.24"/>
<path d="M8.20946 4.54492C8.02337 4.54492 7.84491 4.61885 7.71332 4.75043C7.58174 4.88202 7.50781 5.06048 7.50781 5.24657V8.05317C7.50781 8.23926 7.58174 8.41773 7.71332 8.54932C7.84491 8.6809 8.02337 8.75482 8.20946 8.75482C8.39555 8.75482 8.57402 8.6809 8.7056 8.54932C8.83719 8.41773 8.91111 8.23926 8.91111 8.05317V5.24657C8.91111 5.06048 8.83719 4.88202 8.7056 4.75043C8.57402 4.61885 8.39555 4.54492 8.20946 4.54492Z" fill="#FF443C"/>
<path d="M8.20946 4.54492C8.02337 4.54492 7.84491 4.61885 7.71332 4.75043C7.58174 4.88202 7.50781 5.06048 7.50781 5.24657V8.05317C7.50781 8.23926 7.58174 8.41773 7.71332 8.54932C7.84491 8.6809 8.02337 8.75482 8.20946 8.75482C8.39555 8.75482 8.57402 8.6809 8.7056 8.54932C8.83719 8.41773 8.91111 8.23926 8.91111 8.05317V5.24657C8.91111 5.06048 8.83719 4.88202 8.7056 4.75043C8.57402 4.61885 8.39555 4.54492 8.20946 4.54492Z" fill="black" fill-opacity="0.24"/>
</svg>
