<svg width="24" height="24" viewBox="0 0 24 24" fill="none" xmlns="http://www.w3.org/2000/svg">
<path d="M17.625 2H6.375C3.95875 2 2 3.95875 2 6.375V17.625C2 20.0413 3.95875 22 6.375 22H17.625C20.0413 22 22 20.0413 22 17.625V6.375C22 3.95875 20.0413 2 17.625 2Z" fill="#41479B"/>
<path d="M12.1518 5.90209L12.3186 6.40225L12.8458 6.40635C12.914 6.40685 12.9424 6.49396 12.8874 6.53455L12.4633 6.84775L12.6224 7.35041C12.6429 7.41549 12.5688 7.46932 12.5133 7.42963L12.0844 7.12307L11.6555 7.42963C11.6 7.46932 11.5259 7.41549 11.5465 7.35041L11.7055 6.84775L11.2814 6.53455C11.2265 6.494 11.2548 6.40689 11.3231 6.40635L11.8502 6.40225L12.017 5.90209C12.0386 5.83732 12.1302 5.83732 12.1518 5.90209Z" fill="#FFE15A"/>
<path d="M12.1518 16.6404L12.3186 17.1405L12.8458 17.1446C12.914 17.1451 12.9424 17.2322 12.8874 17.2728L12.4633 17.586L12.6224 18.0886C12.6429 18.1537 12.5688 18.2075 12.5133 18.1678L12.0844 17.8613L11.6555 18.1678C11.6 18.2075 11.5259 18.1537 11.5465 18.0886L11.7055 17.586L11.2814 17.2728C11.2265 17.2322 11.2548 17.1451 11.3231 17.1446L11.8502 17.1405L12.017 16.6404C12.0386 16.5756 12.1302 16.5756 12.1518 16.6404Z" fill="#FFE15A"/>
<path d="M17.521 11.2712L17.6878 11.7714L18.215 11.7755C18.2832 11.776 18.3115 11.8631 18.2566 11.9037L17.8325 12.2169L17.9915 12.7196C18.0121 12.7846 17.938 12.8385 17.8825 12.7988L17.4536 12.4922L17.0247 12.7988C16.9692 12.8385 16.8951 12.7846 16.9156 12.7196L17.0747 12.2169L16.6506 11.9037C16.5956 11.8631 16.624 11.776 16.6922 11.7755L17.2194 11.7714L17.3862 11.2712C17.4078 11.2065 17.4994 11.2065 17.521 11.2712Z" fill="#FFE15A"/>
<path d="M6.78267 11.2712L6.94946 11.7714L7.47665 11.7755C7.54489 11.776 7.57321 11.8631 7.51829 11.9037L7.09419 12.2169L7.25321 12.7196C7.2738 12.7846 7.1997 12.8385 7.14419 12.7988L6.71528 12.4922L6.28638 12.7988C6.23083 12.8385 6.15677 12.7846 6.17736 12.7196L6.33638 12.2169L5.91228 11.9037C5.85736 11.8631 5.88568 11.776 5.95392 11.7755L6.4811 11.7714L6.6479 11.2712C6.66946 11.2065 6.76107 11.2065 6.78267 11.2712Z" fill="#FFE15A"/>
<path d="M7.58878 8.4675L7.75558 8.96761L8.28281 8.97171C8.35105 8.97226 8.37937 9.05933 8.32445 9.09988L7.90035 9.41308L8.05937 9.91574C8.07996 9.98081 8.00585 10.0346 7.95035 9.99495L7.52144 9.68839L7.09253 9.99495C7.03699 10.0346 6.96288 9.98081 6.98351 9.91574L7.14253 9.41308L6.71843 9.09988C6.66351 9.05933 6.69183 8.97222 6.76007 8.97167L7.28726 8.96757L7.45406 8.46746C7.47558 8.40277 7.56718 8.40277 7.58878 8.4675Z" fill="#FFE15A"/>
<path d="M16.8881 13.8367L17.0549 14.3368L17.5821 14.3409C17.6504 14.3415 17.6787 14.4285 17.6238 14.4691L17.1997 14.7823L17.3587 15.2849C17.3793 15.35 17.3052 15.4038 17.2497 15.3642L16.8208 15.0576L16.3918 15.3642C16.3363 15.4038 16.2622 15.35 16.2828 15.2849L16.4418 14.7823L16.0177 14.4691C15.9628 14.4285 15.9911 14.3414 16.0594 14.3409L16.5866 14.3368L16.7534 13.8367C16.775 13.7719 16.8666 13.7719 16.8881 13.8367Z" fill="#FFE15A"/>
<path d="M14.9228 6.50167L15.0896 7.00183L15.6168 7.00593C15.6851 7.00647 15.7134 7.09354 15.6585 7.13413L15.2344 7.44733L15.3934 7.94999C15.414 8.01507 15.3399 8.0689 15.2844 8.02921L14.8555 7.72265L14.4266 8.02921C14.371 8.0689 14.2969 8.01507 14.3175 7.94999L14.4765 7.44733L14.0524 7.13413C13.9975 7.09358 14.0258 7.00647 14.0941 7.00593L14.6212 7.00183L14.788 6.50167C14.8097 6.43694 14.9013 6.43694 14.9228 6.50167Z" fill="#FFE15A"/>
<path d="M9.55366 15.8015L9.72046 16.3017L10.2477 16.3058C10.3159 16.3063 10.3443 16.3934 10.2893 16.4339L9.86523 16.7471L10.0242 17.2498C10.0448 17.3149 9.97073 17.3687 9.91519 17.329L9.48628 17.0224L9.05737 17.329C9.00183 17.3687 8.92777 17.3149 8.94835 17.2498L9.10737 16.7471L8.68327 16.4339C8.62835 16.3934 8.65667 16.3063 8.72491 16.3058L9.2521 16.3017L9.4189 15.8015C9.44046 15.7367 9.53206 15.7367 9.55366 15.8015Z" fill="#FFE15A"/>
<path d="M16.7534 8.4675L16.5866 8.96761L16.0594 8.97171C15.9911 8.97226 15.9628 9.05933 16.0177 9.09988L16.4418 9.41308L16.2828 9.91574C16.2622 9.98081 16.3363 10.0346 16.3918 9.99495L16.8208 9.68839L17.2497 9.99495C17.3052 10.0346 17.3793 9.98081 17.3587 9.91574L17.1997 9.41308L17.6238 9.09988C17.6787 9.05933 17.6504 8.97222 17.5821 8.97167L17.0549 8.96757L16.8881 8.46746C16.8666 8.40277 16.775 8.40277 16.7534 8.4675Z" fill="#FFE15A"/>
<path d="M7.45406 13.8367L7.28726 14.3368L6.76007 14.3409C6.69183 14.3415 6.66351 14.4285 6.71843 14.4691L7.14253 14.7823L6.98351 15.2849C6.96292 15.35 7.03702 15.4038 7.09253 15.3642L7.52144 15.0576L7.95035 15.3642C8.00589 15.4038 8.07996 15.35 8.05941 15.2849L7.90039 14.7823L8.32449 14.4691C8.37941 14.4285 8.35109 14.3414 8.28285 14.3409L7.75562 14.3368L7.58882 13.8367C7.56726 13.7719 7.47566 13.7719 7.45406 13.8367Z" fill="#FFE15A"/>
<path d="M9.41939 6.50167L9.25259 7.00183L8.7254 7.00593C8.65716 7.00647 8.62884 7.09354 8.68376 7.13413L9.10786 7.44733L8.94884 7.94999C8.92825 8.01507 9.00236 8.0689 9.05786 8.02921L9.48677 7.72265L9.91568 8.02921C9.97122 8.0689 10.0453 8.01507 10.0247 7.94999L9.86568 7.44733L10.2898 7.13413C10.3447 7.09358 10.3164 7.00647 10.2481 7.00593L9.72091 7.00183L9.55411 6.50167C9.53259 6.43694 9.44099 6.43694 9.41939 6.50167Z" fill="#FFE15A"/>
<path d="M14.788 15.8015L14.6212 16.3017L14.0941 16.3058C14.0258 16.3063 13.9975 16.3934 14.0524 16.4339L14.4765 16.7471L14.3175 17.2498C14.2969 17.3149 14.371 17.3687 14.4265 17.329L14.8554 17.0224L15.2843 17.329C15.3399 17.3687 15.414 17.3149 15.3934 17.2498L15.2343 16.7471L15.6584 16.4339C15.7134 16.3934 15.685 16.3063 15.6168 16.3058L15.0896 16.3017L14.9228 15.8015C14.9012 15.7367 14.8096 15.7367 14.788 15.8015Z" fill="#FFE15A"/>
</svg>
