<svg width="13" height="12" viewBox="0 0 13 12" fill="none" xmlns="http://www.w3.org/2000/svg">
<path d="M11.2498 11.2258H1.74984C1.33602 11.2308 0.937057 11.0717 0.640299 10.7833C0.343541 10.4948 0.173175 10.1006 0.166504 9.68677V1.9981C0.173175 1.58431 0.343541 1.19002 0.640299 0.901574C0.937057 0.613126 1.33602 0.454022 1.74984 0.459102H4.66317C4.75672 0.459721 4.84897 0.481056 4.93329 0.521573C5.01761 0.56209 5.0919 0.620784 5.15084 0.693436L6.7975 2.70744H11.2308C11.4373 2.70239 11.6428 2.73829 11.8353 2.81306C12.0279 2.88784 12.2037 3 12.3527 3.14308C12.5016 3.28616 12.6208 3.45733 12.7033 3.6467C12.7857 3.83608 12.8299 4.03991 12.8332 4.24644V9.68677C12.8265 10.1006 12.6561 10.4948 12.3594 10.7833C12.0626 11.0717 11.6637 11.2308 11.2498 11.2258ZM1.43317 6.9571V9.68677C1.43556 9.72563 1.44571 9.76362 1.46302 9.7985C1.48034 9.83337 1.50447 9.86442 1.534 9.8898C1.56352 9.91519 1.59783 9.93441 1.6349 9.94631C1.67197 9.95821 1.71105 9.96256 1.74984 9.9591H11.2498C11.2886 9.96256 11.3277 9.95821 11.3648 9.94631C11.4018 9.93441 11.4362 9.91519 11.4657 9.8898C11.4952 9.86442 11.5193 9.83337 11.5366 9.7985C11.554 9.76362 11.5641 9.72563 11.5665 9.68677V4.24644C11.5641 4.20757 11.554 4.16958 11.5366 4.13471C11.5193 4.09984 11.4952 4.06879 11.4657 4.0434C11.4362 4.01801 11.4018 3.9988 11.3648 3.9869C11.3277 3.97499 11.2886 3.97064 11.2498 3.9741H6.49984C6.40629 3.97348 6.31404 3.95215 6.22972 3.91163C6.1454 3.87111 6.0711 3.81242 6.01217 3.73977L4.3655 1.72577H1.74984C1.71105 1.72231 1.67197 1.72666 1.6349 1.73856C1.59783 1.75047 1.56352 1.76968 1.534 1.79507C1.50447 1.82045 1.48034 1.8515 1.46302 1.88638C1.44571 1.92125 1.43556 1.95924 1.43317 1.9981V6.9571Z" fill="white"/>
</svg>
