<svg width="14" height="12" viewBox="0 0 14 12" fill="none" xmlns="http://www.w3.org/2000/svg">
<path d="M12.0007 11.4995H2.00065C1.56506 11.5048 1.14509 11.3373 0.832716 11.0337C0.520339 10.7301 0.341006 10.315 0.333984 9.87947V1.78614C0.341006 1.35057 0.520339 0.93553 0.832716 0.6319C1.14509 0.32827 1.56506 0.160792 2.00065 0.16614H5.06732C5.16579 0.166791 5.26289 0.189249 5.35165 0.231898C5.44041 0.274548 5.51861 0.336331 5.58065 0.412806L7.31398 2.53281H11.9806C12.198 2.5275 12.4143 2.56529 12.6169 2.64399C12.8196 2.7227 13.0047 2.84077 13.1615 2.99138C13.3183 3.14199 13.4438 3.32217 13.5306 3.52151C13.6174 3.72085 13.6639 3.93541 13.6673 4.15281V9.87947C13.6603 10.315 13.481 10.7301 13.1686 11.0337C12.8562 11.3373 12.4362 11.5048 12.0007 11.4995ZM1.66732 7.00614V9.87947C1.66983 9.92038 1.68051 9.96037 1.69874 9.99708C1.71697 10.0338 1.74237 10.0665 1.77345 10.0932C1.80452 10.1199 1.84064 10.1401 1.87966 10.1527C1.91869 10.1652 1.95983 10.1698 2.00065 10.1661H12.0007C12.0415 10.1698 12.0826 10.1652 12.1216 10.1527C12.1607 10.1401 12.1968 10.1199 12.2279 10.0932C12.2589 10.0665 12.2843 10.0338 12.3026 9.99708C12.3208 9.96037 12.3315 9.92038 12.334 9.87947V4.15281C12.3315 4.1119 12.3208 4.07191 12.3026 4.0352C12.2843 3.99849 12.2589 3.96581 12.2279 3.93908C12.1968 3.91236 12.1607 3.89214 12.1216 3.87961C12.0826 3.86708 12.0415 3.8625 12.0007 3.86614H7.00065C6.90218 3.86549 6.80508 3.84303 6.71632 3.80038C6.62756 3.75773 6.54935 3.69595 6.48732 3.61947L4.75398 1.49947H2.00065C1.95983 1.49583 1.91869 1.50041 1.87966 1.51294C1.84064 1.52547 1.80452 1.54569 1.77345 1.57242C1.74237 1.59914 1.71697 1.63182 1.69874 1.66853C1.68051 1.70524 1.66983 1.74523 1.66732 1.78614V7.00614Z" fill="rgb(100, 97, 97)"/>
</svg>
