<svg width="12" height="9" viewBox="0 0 12 9" fill="none" xmlns="http://www.w3.org/2000/svg">
<path d="M4.49918 7.95681L4.29863 8.41482L4.49918 7.95681C4.47842 7.94772 4.4598 7.93448 4.44445 7.91795L4.44446 7.91794L4.44215 7.91548L1.21069 4.48169C1.21065 4.48165 1.21062 4.48162 1.21058 4.48158C1.18065 4.44966 1.16471 4.40729 1.1661 4.3638C1.16749 4.32025 1.18613 4.27892 1.21812 4.24893C1.25014 4.21893 1.29288 4.20276 1.33698 4.20417C1.38107 4.20557 1.42268 4.22441 1.4527 4.25636L1.45273 4.25639L4.19241 7.1724L4.56163 7.56538L4.92567 7.16759L10.5181 1.05659L10.5289 1.04479L10.5389 1.03232C10.553 1.01485 10.5704 1.0004 10.5903 0.989881C10.6102 0.979362 10.6321 0.973005 10.6546 0.971221C10.6771 0.969438 10.6997 0.972269 10.7211 0.979529C10.7424 0.986789 10.762 0.998317 10.7786 1.01338L11.114 0.642543L10.7786 1.01338C10.7953 1.02844 10.8086 1.0467 10.8179 1.06704L11.2715 0.860138L10.8179 1.06704C10.8272 1.08737 10.8322 1.10936 10.8326 1.13167C10.8331 1.15397 10.829 1.17614 10.8205 1.19682C10.8121 1.21751 10.7995 1.23629 10.7834 1.25199L10.7737 1.26153L10.7645 1.27158L4.68666 7.91397L4.68665 7.91397L4.68451 7.91634C4.6693 7.93317 4.65075 7.94671 4.62999 7.95609L4.82666 8.39163L4.62998 7.95609C4.60985 7.96518 4.58808 7.97015 4.56597 7.9707H4.56456C4.54203 7.97056 4.51978 7.96583 4.49918 7.95681Z" fill="white"/>
<path d="M4.49918 7.95681L4.29863 8.41482L4.49918 7.95681C4.47842 7.94772 4.4598 7.93448 4.44445 7.91795L4.44446 7.91794L4.44215 7.91548L1.21069 4.48169C1.21065 4.48165 1.21062 4.48162 1.21058 4.48158C1.18065 4.44966 1.16471 4.40729 1.1661 4.3638C1.16749 4.32025 1.18613 4.27892 1.21812 4.24893C1.25014 4.21893 1.29288 4.20276 1.33698 4.20417C1.38107 4.20557 1.42268 4.22441 1.4527 4.25636L1.45273 4.25639L4.19241 7.1724L4.56163 7.56538L4.92567 7.16759L10.5181 1.05659L10.5289 1.04479L10.5389 1.03232C10.553 1.01485 10.5704 1.0004 10.5903 0.989881C10.6102 0.979362 10.6321 0.973005 10.6546 0.971221C10.6771 0.969438 10.6997 0.972269 10.7211 0.979529C10.7424 0.986789 10.762 0.998317 10.7786 1.01338L11.114 0.642543L10.7786 1.01338C10.7953 1.02844 10.8086 1.0467 10.8179 1.06704L11.2715 0.860138L10.8179 1.06704C10.8272 1.08737 10.8322 1.10936 10.8326 1.13167C10.8331 1.15397 10.829 1.17614 10.8205 1.19682C10.8121 1.21751 10.7995 1.23629 10.7834 1.25199L10.7737 1.26153L10.7645 1.27158L4.68666 7.91397L4.68665 7.91397L4.68451 7.91634C4.6693 7.93317 4.65075 7.94671 4.62999 7.95609L4.82666 8.39163L4.62998 7.95609C4.60985 7.96518 4.58808 7.97015 4.56597 7.9707H4.56456C4.54203 7.97056 4.51978 7.96583 4.49918 7.95681Z" stroke="#39D02B"/>
<path d="M4.49918 7.95681L4.29863 8.41482L4.49918 7.95681C4.47842 7.94772 4.4598 7.93448 4.44445 7.91795L4.44446 7.91794L4.44215 7.91548L1.21069 4.48169C1.21065 4.48165 1.21062 4.48162 1.21058 4.48158C1.18065 4.44966 1.16471 4.40729 1.1661 4.3638C1.16749 4.32025 1.18613 4.27892 1.21812 4.24893C1.25014 4.21893 1.29288 4.20276 1.33698 4.20417C1.38107 4.20557 1.42268 4.22441 1.4527 4.25636L1.45273 4.25639L4.19241 7.1724L4.56163 7.56538L4.92567 7.16759L10.5181 1.05659L10.5289 1.04479L10.5389 1.03232C10.553 1.01485 10.5704 1.0004 10.5903 0.989881C10.6102 0.979362 10.6321 0.973005 10.6546 0.971221C10.6771 0.969438 10.6997 0.972269 10.7211 0.979529C10.7424 0.986789 10.762 0.998317 10.7786 1.01338L11.114 0.642543L10.7786 1.01338C10.7953 1.02844 10.8086 1.0467 10.8179 1.06704L11.2715 0.860138L10.8179 1.06704C10.8272 1.08737 10.8322 1.10936 10.8326 1.13167C10.8331 1.15397 10.829 1.17614 10.8205 1.19682C10.8121 1.21751 10.7995 1.23629 10.7834 1.25199L10.7737 1.26153L10.7645 1.27158L4.68666 7.91397L4.68665 7.91397L4.68451 7.91634C4.6693 7.93317 4.65075 7.94671 4.62999 7.95609L4.82666 8.39163L4.62998 7.95609C4.60985 7.96518 4.58808 7.97015 4.56597 7.9707H4.56456C4.54203 7.97056 4.51978 7.96583 4.49918 7.95681Z" stroke="black" stroke-opacity="0.24"/>
</svg>
