<svg width="14" height="14" viewBox="0 0 14 14" fill="none" xmlns="http://www.w3.org/2000/svg">
<path d="M7.00065 0.333984C5.68211 0.333984 4.39318 0.724977 3.29685 1.45752C2.20052 2.19006 1.34604 3.23125 0.841457 4.44943C0.336873 5.6676 0.204851 7.00805 0.462085 8.30125C0.71932 9.59446 1.35426 10.7823 2.28661 11.7147C3.21896 12.647 4.40684 13.282 5.70005 13.5392C6.99326 13.7965 8.3337 13.6644 9.55188 13.1598C10.77 12.6553 11.8112 11.8008 12.5438 10.7044C13.2763 9.60812 13.6673 8.31919 13.6673 7.00065C13.6673 6.12517 13.4949 5.25826 13.1598 4.44943C12.8248 3.64059 12.3338 2.90566 11.7147 2.28661C11.0956 1.66755 10.3607 1.17649 9.55188 0.841454C8.74304 0.506423 7.87613 0.333984 7.00065 0.333984ZM7.00065 12.334C5.94582 12.334 4.91467 12.0212 4.03761 11.4352C3.16055 10.8491 2.47696 10.0162 2.0733 9.04163C1.66963 8.06709 1.56401 6.99473 1.7698 5.96017C1.97559 4.9256 2.48354 3.97529 3.22942 3.22941C3.9753 2.48353 4.92561 1.97558 5.96017 1.7698C6.99474 1.56401 8.06709 1.66963 9.04163 2.07329C10.0162 2.47696 10.8491 3.16055 11.4352 4.03761C12.0212 4.91467 12.334 5.94582 12.334 7.00065C12.334 8.41514 11.7721 9.77169 10.7719 10.7719C9.77169 11.7721 8.41514 12.334 7.00065 12.334Z" fill="#39D02B"/>
<path d="M7.00065 0.333984C5.68211 0.333984 4.39318 0.724977 3.29685 1.45752C2.20052 2.19006 1.34604 3.23125 0.841457 4.44943C0.336873 5.6676 0.204851 7.00805 0.462085 8.30125C0.71932 9.59446 1.35426 10.7823 2.28661 11.7147C3.21896 12.647 4.40684 13.282 5.70005 13.5392C6.99326 13.7965 8.3337 13.6644 9.55188 13.1598C10.77 12.6553 11.8112 11.8008 12.5438 10.7044C13.2763 9.60812 13.6673 8.31919 13.6673 7.00065C13.6673 6.12517 13.4949 5.25826 13.1598 4.44943C12.8248 3.64059 12.3338 2.90566 11.7147 2.28661C11.0956 1.66755 10.3607 1.17649 9.55188 0.841454C8.74304 0.506423 7.87613 0.333984 7.00065 0.333984ZM7.00065 12.334C5.94582 12.334 4.91467 12.0212 4.03761 11.4352C3.16055 10.8491 2.47696 10.0162 2.0733 9.04163C1.66963 8.06709 1.56401 6.99473 1.7698 5.96017C1.97559 4.9256 2.48354 3.97529 3.22942 3.22941C3.9753 2.48353 4.92561 1.97558 5.96017 1.7698C6.99474 1.56401 8.06709 1.66963 9.04163 2.07329C10.0162 2.47696 10.8491 3.16055 11.4352 4.03761C12.0212 4.91467 12.334 5.94582 12.334 7.00065C12.334 8.41514 11.7721 9.77169 10.7719 10.7719C9.77169 11.7721 8.41514 12.334 7.00065 12.334Z" fill="black" fill-opacity="0.24"/>
<path d="M7.00065 5.0013C7.36884 5.0013 7.66732 4.70282 7.66732 4.33464C7.66732 3.96645 7.36884 3.66797 7.00065 3.66797C6.63246 3.66797 6.33398 3.96645 6.33398 4.33464C6.33398 4.70282 6.63246 5.0013 7.00065 5.0013Z" fill="#39D02B"/>
<path d="M7.00065 5.0013C7.36884 5.0013 7.66732 4.70282 7.66732 4.33464C7.66732 3.96645 7.36884 3.66797 7.00065 3.66797C6.63246 3.66797 6.33398 3.96645 6.33398 4.33464C6.33398 4.70282 6.63246 5.0013 7.00065 5.0013Z" fill="black" fill-opacity="0.24"/>
<path d="M7.00065 5.66797C6.82384 5.66797 6.65427 5.73821 6.52925 5.86323C6.40422 5.98826 6.33398 6.15782 6.33398 6.33464V9.66797C6.33398 9.84478 6.40422 10.0143 6.52925 10.1394C6.65427 10.2644 6.82384 10.3346 7.00065 10.3346C7.17746 10.3346 7.34703 10.2644 7.47205 10.1394C7.59708 10.0143 7.66732 9.84478 7.66732 9.66797V6.33464C7.66732 6.15782 7.59708 5.98826 7.47205 5.86323C7.34703 5.73821 7.17746 5.66797 7.00065 5.66797Z" fill="#39D02B"/>
<path d="M7.00065 5.66797C6.82384 5.66797 6.65427 5.73821 6.52925 5.86323C6.40422 5.98826 6.33398 6.15782 6.33398 6.33464V9.66797C6.33398 9.84478 6.40422 10.0143 6.52925 10.1394C6.65427 10.2644 6.82384 10.3346 7.00065 10.3346C7.17746 10.3346 7.34703 10.2644 7.47205 10.1394C7.59708 10.0143 7.66732 9.84478 7.66732 9.66797V6.33464C7.66732 6.15782 7.59708 5.98826 7.47205 5.86323C7.34703 5.73821 7.17746 5.66797 7.00065 5.66797Z" fill="black" fill-opacity="0.24"/>
</svg>
