<svg width="14" height="14" viewBox="0 0 14 14" fill="none" xmlns="http://www.w3.org/2000/svg">
<path d="M3.57415 1.87277C4.58825 1.19516 5.78051 0.833496 7.00016 0.833496C7.80998 0.833496 8.61187 0.993002 9.36005 1.30291C10.1082 1.61281 10.788 2.06704 11.3607 2.63967C11.9333 3.2123 12.3875 3.89211 12.6974 4.64028C13.0073 5.38845 13.1668 6.19034 13.1668 7.00016C13.1668 8.21981 12.8052 9.41207 12.1276 10.4262C11.45 11.4403 10.4869 12.2307 9.36005 12.6974C8.23323 13.1642 6.99332 13.2863 5.79711 13.0483C4.60089 12.8104 3.5021 12.2231 2.63967 11.3607C1.77725 10.4982 1.18993 9.39943 0.95199 8.20322C0.714048 7.007 0.836168 5.76709 1.30291 4.64028C1.76965 3.51347 2.56005 2.55037 3.57415 1.87277ZM3.75934 11.8504C4.71863 12.4914 5.84644 12.8335 7.00016 12.8335C8.54726 12.8335 10.031 12.2189 11.125 11.125C12.2189 10.031 12.8335 8.54726 12.8335 7.00016C12.8335 5.84644 12.4914 4.71862 11.8504 3.75934C11.2094 2.80005 10.2984 2.05238 9.23248 1.61087C8.16658 1.16935 6.99369 1.05383 5.86214 1.27892C4.73058 1.504 3.69118 2.05957 2.87538 2.87537C2.05957 3.69118 1.504 4.73058 1.27892 5.86213C1.05384 6.99369 1.16936 8.16658 1.61087 9.23248C2.05238 10.2984 2.80005 11.2094 3.75934 11.8504Z" fill="white" stroke="white"/>
<path d="M7.00016 5.00032C7.36835 5.00032 7.66683 4.70185 7.66683 4.33366C7.66683 3.96547 7.36835 3.66699 7.00016 3.66699C6.63197 3.66699 6.3335 3.96547 6.3335 4.33366C6.3335 4.70185 6.63197 5.00032 7.00016 5.00032Z" fill="white"/>
<path d="M7.00016 5.66699C6.82335 5.66699 6.65378 5.73723 6.52876 5.86225C6.40373 5.98728 6.3335 6.15685 6.3335 6.33366V9.66699C6.3335 9.8438 6.40373 10.0134 6.52876 10.1384C6.65378 10.2634 6.82335 10.3337 7.00016 10.3337C7.17697 10.3337 7.34654 10.2634 7.47157 10.1384C7.59659 10.0134 7.66683 9.8438 7.66683 9.66699V6.33366C7.66683 6.15685 7.59659 5.98728 7.47157 5.86225C7.34654 5.73723 7.17697 5.66699 7.00016 5.66699Z" fill="white"/>
</svg>
