<svg width="14" height="14" viewBox="0 0 14 14" fill="none" xmlns="http://www.w3.org/2000/svg">
<path d="M7.00016 2.99967C7.17697 2.99967 7.34654 2.92944 7.47157 2.80441C7.59659 2.67939 7.66683 2.50982 7.66683 2.33301V0.999674C7.66683 0.822863 7.59659 0.653294 7.47157 0.52827C7.34654 0.403246 7.17697 0.333008 7.00016 0.333008C6.82335 0.333008 6.65378 0.403246 6.52876 0.52827C6.40373 0.653294 6.3335 0.822863 6.3335 0.999674V2.33301C6.3335 2.50982 6.40373 2.67939 6.52876 2.80441C6.65378 2.92944 6.82335 2.99967 7.00016 2.99967ZM13.0002 6.33301H11.6668C11.49 6.33301 11.3204 6.40325 11.1954 6.52827C11.0704 6.65329 11.0002 6.82286 11.0002 6.99967C11.0002 7.17649 11.0704 7.34605 11.1954 7.47108C11.3204 7.5961 11.49 7.66634 11.6668 7.66634H13.0002C13.177 7.66634 13.3465 7.5961 13.4716 7.47108C13.5966 7.34605 13.6668 7.17649 13.6668 6.99967C13.6668 6.82286 13.5966 6.65329 13.4716 6.52827C13.3465 6.40325 13.177 6.33301 13.0002 6.33301ZM3.00016 6.99967C3.00016 6.82286 2.92992 6.65329 2.8049 6.52827C2.67988 6.40325 2.51031 6.33301 2.3335 6.33301H1.00016C0.823352 6.33301 0.653782 6.40325 0.528758 6.52827C0.403734 6.65329 0.333496 6.82286 0.333496 6.99967C0.333496 7.17649 0.403734 7.34605 0.528758 7.47108C0.653782 7.5961 0.823352 7.66634 1.00016 7.66634H2.3335C2.51031 7.66634 2.67988 7.5961 2.8049 7.47108C2.92992 7.34605 3.00016 7.17649 3.00016 6.99967ZM3.14683 2.33301C3.01687 2.21012 2.84342 2.1439 2.66464 2.1489C2.48586 2.1539 2.31638 2.22972 2.1935 2.35967C2.07061 2.48963 2.00439 2.66308 2.00939 2.84186C2.01439 3.02065 2.09021 3.19012 2.22016 3.31301L3.18016 4.23967C3.24459 4.30188 3.32088 4.35047 3.4045 4.38254C3.48811 4.41461 3.57733 4.42951 3.66683 4.42634C3.75663 4.426 3.84544 4.40752 3.92792 4.372C4.01041 4.33649 4.08487 4.28468 4.14683 4.21967C4.271 4.09477 4.34069 3.9258 4.34069 3.74967C4.34069 3.57355 4.271 3.40458 4.14683 3.27967L3.14683 2.33301ZM10.3335 4.42634C10.5051 4.42566 10.6699 4.35879 10.7935 4.23967L11.7535 3.31301C11.8706 3.19064 11.9368 3.02829 11.9385 2.85892C11.9402 2.68955 11.8775 2.52587 11.7629 2.40112C11.6483 2.27637 11.4906 2.1999 11.3217 2.18725C11.1528 2.1746 10.9854 2.22672 10.8535 2.33301L9.8935 3.27967C9.76933 3.40458 9.69963 3.57355 9.69963 3.74967C9.69963 3.9258 9.76933 4.09477 9.8935 4.21967C10.0089 4.34149 10.166 4.41529 10.3335 4.42634ZM7.00016 10.9997C6.82335 10.9997 6.65378 11.0699 6.52876 11.1949C6.40373 11.32 6.3335 11.4895 6.3335 11.6663V12.9997C6.3335 13.1765 6.40373 13.3461 6.52876 13.4711C6.65378 13.5961 6.82335 13.6663 7.00016 13.6663C7.17697 13.6663 7.34654 13.5961 7.47157 13.4711C7.59659 13.3461 7.66683 13.1765 7.66683 12.9997V11.6663C7.66683 11.4895 7.59659 11.32 7.47157 11.1949C7.34654 11.0699 7.17697 10.9997 7.00016 10.9997ZM10.8202 9.75967C10.6929 9.63679 10.522 9.56951 10.345 9.57264C10.1681 9.57576 9.99971 9.64904 9.87683 9.77634C9.75395 9.90365 9.68667 10.0745 9.68979 10.2515C9.69292 10.4284 9.76619 10.5968 9.8935 10.7197L10.8535 11.6663C10.9771 11.7855 11.1418 11.8523 11.3135 11.853C11.4028 11.8535 11.4913 11.8361 11.5738 11.8017C11.6563 11.7674 11.731 11.7168 11.7935 11.653C11.856 11.591 11.9056 11.5173 11.9394 11.4361C11.9733 11.3548 11.9907 11.2677 11.9907 11.1797C11.9907 11.0917 11.9733 11.0045 11.9394 10.9233C11.9056 10.8421 11.856 10.7683 11.7935 10.7063L10.8202 9.75967ZM3.18016 9.75967L2.22016 10.6863C2.15768 10.7483 2.10808 10.8221 2.07424 10.9033C2.04039 10.9845 2.02296 11.0717 2.02296 11.1597C2.02296 11.2477 2.04039 11.3348 2.07424 11.4161C2.10808 11.4973 2.15768 11.571 2.22016 11.633C2.28269 11.6968 2.3574 11.7474 2.43986 11.7817C2.52232 11.8161 2.61084 11.8335 2.70016 11.833C2.86451 11.8344 3.02357 11.7751 3.14683 11.6663L4.10683 10.7397C4.23413 10.6168 4.30741 10.4484 4.31053 10.2715C4.31366 10.0946 4.24638 9.92364 4.1235 9.79634C4.00061 9.66904 3.83219 9.59576 3.65528 9.59264C3.47837 9.58951 3.30747 9.65679 3.18016 9.77967V9.75967ZM7.00016 4.33301C6.47275 4.33301 5.95717 4.48941 5.51864 4.78242C5.08011 5.07544 4.73832 5.49192 4.53648 5.97918C4.33465 6.46645 4.28184 7.00263 4.38473 7.51991C4.48763 8.0372 4.7416 8.51235 5.11454 8.88529C5.48748 9.25823 5.96264 9.51221 6.47992 9.6151C6.9972 9.718 7.53338 9.66519 8.02065 9.46335C8.50792 9.26152 8.9244 8.91973 9.21741 8.48119C9.51043 8.04266 9.66683 7.52709 9.66683 6.99967C9.66683 6.29243 9.38588 5.61415 8.88578 5.11406C8.38568 4.61396 7.70741 4.33301 7.00016 4.33301ZM7.00016 8.33301C6.73645 8.33301 6.47867 8.25481 6.2594 8.1083C6.04014 7.96179 5.86924 7.75355 5.76832 7.50992C5.66741 7.26628 5.641 6.9982 5.69245 6.73955C5.7439 6.48091 5.87088 6.24334 6.05735 6.05687C6.24382 5.8704 6.4814 5.74341 6.74004 5.69196C6.99868 5.64051 7.26677 5.66692 7.51041 5.76783C7.75404 5.86875 7.96228 6.03965 8.10879 6.25891C8.2553 6.47818 8.3335 6.73597 8.3335 6.99967C8.3335 7.3533 8.19302 7.69243 7.94297 7.94248C7.69292 8.19253 7.35378 8.33301 7.00016 8.33301Z" fill="white"/>
</svg>
