<svg width="16" height="14" viewBox="0 0 16 14" fill="none" xmlns="http://www.w3.org/2000/svg">
<path d="M14 13.6001H2C1.47729 13.6066 0.97333 13.4056 0.598478 13.0412C0.223626 12.6769 0.00842623 12.1788 0 11.6561V1.94415C0.00842623 1.42146 0.223626 0.923417 0.598478 0.559061C0.97333 0.194705 1.47729 -0.00626805 2 0.000149084H5.68C5.79817 0.000930512 5.91469 0.0278796 6.0212 0.0790593C6.12771 0.130239 6.22156 0.204378 6.296 0.296149L8.376 2.84015H13.976C14.2368 2.83378 14.4963 2.87913 14.7396 2.97357C14.9828 3.06802 15.2049 3.2097 15.393 3.39044C15.5812 3.57117 15.7317 3.78738 15.8359 4.02659C15.9401 4.2658 15.9959 4.52327 16 4.78415V11.6561C15.9916 12.1788 15.7764 12.6769 15.4015 13.0412C15.0267 13.4056 14.5227 13.6066 14 13.6001ZM1.6 8.20815V11.6561C1.60301 11.7052 1.61584 11.7532 1.63771 11.7973C1.65959 11.8413 1.69007 11.8805 1.72736 11.9126C1.76465 11.9447 1.80799 11.969 1.85482 11.984C1.90164 11.999 1.95101 12.0045 2 12.0001H14C14.049 12.0045 14.0984 11.999 14.1452 11.984C14.192 11.969 14.2354 11.9447 14.2726 11.9126C14.3099 11.8805 14.3404 11.8413 14.3623 11.7973C14.3842 11.7532 14.397 11.7052 14.4 11.6561V4.78415C14.397 4.73506 14.3842 4.68707 14.3623 4.64302C14.3404 4.59897 14.3099 4.55975 14.2726 4.52768C14.2354 4.49561 14.192 4.47134 14.1452 4.45631C14.0984 4.44128 14.049 4.43578 14 4.44015H8C7.88183 4.43937 7.76531 4.41242 7.6588 4.36124C7.55229 4.31006 7.45844 4.23592 7.384 4.14415L5.304 1.60015H2C1.95101 1.59578 1.90164 1.60128 1.85482 1.61631C1.80799 1.63134 1.76465 1.65561 1.72736 1.68768C1.69007 1.71975 1.65959 1.75897 1.63771 1.80302C1.61584 1.84707 1.60301 1.89506 1.6 1.94415V8.20815Z" fill="white"/>
</svg>
