<svg width="118" height="101" viewBox="0 0 118 101" fill="none" xmlns="http://www.w3.org/2000/svg">
<path d="M103 100.4H15.0002C11.1669 100.448 7.47125 98.9737 4.72234 96.3018C1.97342 93.6298 0.395288 89.9775 0.333496 86.1444V14.9231C0.395288 11.0901 1.97342 7.43774 4.72234 4.7658C7.47125 2.09385 11.1669 0.62005 15.0002 0.667109H41.9868C42.8534 0.672839 43.7079 0.870466 44.489 1.24578C45.27 1.6211 45.9582 2.16479 46.5042 2.83778L61.7575 21.4938H102.824C104.737 21.4471 106.64 21.7796 108.424 22.4722C110.207 23.1649 111.836 24.2038 113.216 25.5292C114.596 26.8546 115.7 28.4401 116.463 30.1944C117.227 31.9486 117.636 33.8367 117.667 35.7498V86.1444C117.605 89.9775 116.027 93.6298 113.278 96.3018C110.529 98.9737 106.833 100.448 103 100.4ZM12.0668 60.8591V86.1444C12.0889 86.5044 12.183 86.8564 12.3434 87.1794C12.5038 87.5024 12.7273 87.79 13.0008 88.0252C13.2742 88.2604 13.5921 88.4384 13.9355 88.5486C14.2789 88.6589 14.6409 88.6992 15.0002 88.6671H103C103.359 88.6992 103.721 88.6589 104.065 88.5486C104.408 88.4384 104.726 88.2604 105 88.0252C105.273 87.79 105.497 87.5024 105.657 87.1794C105.817 86.8564 105.911 86.5044 105.933 86.1444V35.7498C105.911 35.3898 105.817 35.0379 105.657 34.7148C105.497 34.3918 105.273 34.1042 105 33.869C104.726 33.6338 104.408 33.4559 104.065 33.3456C103.721 33.2354 103.359 33.1951 103 33.2271H59.0002C58.1336 33.2214 57.2791 33.0238 56.498 32.6484C55.717 32.2731 55.0287 31.7294 54.4828 31.0564L39.2295 12.4004H15.0002C14.6409 12.3684 14.2789 12.4087 13.9355 12.519C13.5921 12.6292 13.2742 12.8072 13.0008 13.0424C12.7273 13.2775 12.5038 13.5651 12.3434 13.8882C12.183 14.2112 12.0889 14.5631 12.0668 14.9231V60.8591Z" fill="#0884FF"/>
</svg>
