<svg width="16" height="15" viewBox="0 0 16 15" fill="none" xmlns="http://www.w3.org/2000/svg">
<path d="M2.82307 1.875C3.07264 1.875 3.312 1.77623 3.48847 1.60041C3.66495 1.4246 3.76409 1.18614 3.76409 0.9375C3.76409 0.68886 3.66495 0.450403 3.48847 0.274588C3.312 0.0987722 3.07264 0 2.82307 0H0.941023C0.691448 0 0.452095 0.0987722 0.275619 0.274588C0.0991434 0.450403 0 0.68886 0 0.9375V14.0625C0 14.3111 0.0991434 14.5496 0.275619 14.7254C0.452095 14.9012 0.691448 15 0.941023 15H2.82307C3.07264 15 3.312 14.9012 3.48847 14.7254C3.66495 14.5496 3.76409 14.3111 3.76409 14.0625C3.76409 13.8139 3.66495 13.5754 3.48847 13.3996C3.312 13.2238 3.07264 13.125 2.82307 13.125H1.88205V1.875H2.82307ZM15.828 6.95625L13.1743 3.20625C13.0304 3.00414 12.812 2.86701 12.5669 2.82485C12.3218 2.78268 12.0699 2.83892 11.8663 2.98125C11.7645 3.0523 11.6779 3.14273 11.6114 3.24732C11.5449 3.35191 11.4998 3.46858 11.4788 3.59061C11.4578 3.71264 11.4613 3.8376 11.489 3.95829C11.5168 4.07897 11.5682 4.19299 11.6405 4.29375L13.259 6.5625H5.64614C5.39656 6.5625 5.15721 6.66127 4.98073 6.83709C4.80426 7.0129 4.70511 7.25136 4.70511 7.5C4.70511 7.74864 4.80426 7.9871 4.98073 8.16291C5.15721 8.33873 5.39656 8.4375 5.64614 8.4375H13.1743L11.4805 10.6875C11.4063 10.786 11.3524 10.8981 11.3217 11.0173C11.291 11.1366 11.2843 11.2607 11.3017 11.3826C11.3192 11.5045 11.3606 11.6217 11.4236 11.7276C11.4865 11.8336 11.5698 11.9261 11.6687 12C11.8316 12.1217 12.0297 12.1875 12.2333 12.1875C12.3794 12.1875 12.5235 12.1536 12.6541 12.0885C12.7848 12.0234 12.8985 11.9289 12.9861 11.8125L15.8092 8.0625C15.9297 7.90394 15.9965 7.7113 15.9999 7.51244C16.0032 7.31357 15.9431 7.11879 15.828 6.95625Z" fill="white"/>
</svg>
