<svg xmlns="http://www.w3.org/2000/svg" xmlns:xlink="http://www.w3.org/1999/xlink" width="233.338" height="81" viewBox="0 0 233.338 81">
  <defs>
    <clipPath id="clip-path">
      <rect id="Rectangle_114" data-name="Rectangle 114" width="114" height="81" transform="translate(0.3 -0.321)" fill="#fff"/>
    </clipPath>
  </defs>
  <g id="logo_new_only_cc" transform="translate(-0.8 0.32)">
    <g id="Group_171" data-name="Group 171" transform="translate(0.5)" clip-path="url(#clip-path)">
      <path id="Path_110" data-name="Path 110" d="M54.016,1.34A41.8,41.8,0,0,1,66.906,3.746,48.444,48.444,0,0,1,78.164,9.552a48.453,48.453,0,0,1,9.219,8.71,44.831,44.831,0,0,1,6.771,11.362,39.866,39.866,0,0,1,3.1,13.022c0,.414.082.747.082,1.161a17.456,17.456,0,0,1,10.395,7.035A17.972,17.972,0,0,1,105.1,74.4,17.3,17.3,0,0,1,93.42,78.893H24.81A24.066,24.066,0,0,1,8.547,72.556a24.992,24.992,0,0,1-3.4-32.879,24.259,24.259,0,0,1,14.61-9.638,31.137,31.137,0,0,1,1.794-7.216,32.667,32.667,0,0,1,7.913-12.275A33.632,33.632,0,0,1,40.8,3.5,36.291,36.291,0,0,1,54.016,1.34ZM77.342,10.8A46.07,46.07,0,0,0,66.736,5.323,37.558,37.558,0,0,0,54.5,3.249,33.045,33.045,0,0,0,42.262,5.323a28.938,28.938,0,0,0-10.523,6.8,29.851,29.851,0,0,0-7.177,11.529,33.455,33.455,0,0,0-1.469,15.759A39.238,39.238,0,0,0,29.456,56a44.631,44.631,0,0,0,12.971,12.77,41.453,41.453,0,0,0,16.317,6.221A33.988,33.988,0,0,0,75.061,73.5,29.261,29.261,0,0,0,86.64,66.226a29.91,29.91,0,0,0,7.1-11.8,34.327,34.327,0,0,0,1.55-12.275,38.217,38.217,0,0,0-2.856-12.358,42.958,42.958,0,0,0-6.363-10.783A45.93,45.93,0,0,0,77.344,10.8" transform="translate(-0.496 2.034)" fill="#0884ff"/>
      <path id="Path_111" data-name="Path 111" d="M38.805,3.3a24.8,24.8,0,0,1,2.529.083c.652,1.991,1.224,3.981,1.876,6.055-.9-.082-1.714-.082-2.611-.082a13.923,13.923,0,0,0-2.611.249c-.572-2.073-1.142-4.146-1.713-6.137C37.09,3.387,37.989,3.3,38.8,3.3Zm9.136,1.246A38.392,38.392,0,0,1,72.9,27.19a32.73,32.73,0,0,1,1.959,17.5A26.311,26.311,0,0,1,66.133,60.2c-.979-3.152-1.957-6.139-2.936-9.207a18.371,18.371,0,0,0,4.16-6.3,21.656,21.656,0,0,0,1.387-10.534c-2.039.331-4.16.747-6.363,1.078a14.383,14.383,0,0,1-1.224,5.225,13.564,13.564,0,0,1-3.806,4.789,13.284,13.284,0,0,1-5.493,2.593,17.742,17.742,0,0,1-13.543-2.9,19.3,19.3,0,0,1-8.4-11.944A13.9,13.9,0,0,1,31.98,21.115a13.558,13.558,0,0,1,4.605-4.048,13.319,13.319,0,0,1,5.887-1.578,18.007,18.007,0,0,1,11.5,3.483,20.28,20.28,0,0,1,4.16,3.815c2.121-.249,4.161-.415,6.2-.663a28.222,28.222,0,0,0-7.587-7.714,27.157,27.157,0,0,0-6.69-3.483c-.734-2.157-1.469-4.313-2.121-6.385ZM59.766,64.262c-.979.414-1.876.747-2.856,1.078s-2.039.581-3.018.83c-.9-3.235-1.713-6.385-2.611-9.455a12.171,12.171,0,0,0,3.018-.581,27.283,27.283,0,0,0,2.773-.912c.9,2.9,1.713,5.972,2.691,9.041ZM45.333,66.671a37.839,37.839,0,0,1-33.451-31.1A28.146,28.146,0,0,1,15.8,15.323,26.648,26.648,0,0,1,29.668,4.706c.652,2.322,1.224,4.561,1.794,6.967a19.468,19.468,0,0,0-5.792,4.561,20.937,20.937,0,0,0-4.24,8.488,21.148,21.148,0,0,0-.078,9.519,29.478,29.478,0,0,0,7.624,14.152A28.732,28.732,0,0,0,42.809,56.3c.815,3.317,1.632,6.8,2.529,10.368" transform="translate(16.18 5.05)" fill="#0884ff" fill-rule="evenodd"/>
    </g>
    <path id="Path_112" data-name="Path 112" d="M61.368,37.761a25.581,25.581,0,0,1,6.515-17.137,23.218,23.218,0,0,1,7.79-5.736,24.057,24.057,0,0,1,10.481-2.2,22.9,22.9,0,0,1,11.968,3.045,19.386,19.386,0,0,1,7.577,7.931l-7.506,5.169a11.669,11.669,0,0,0-3.328-4.461A13.066,13.066,0,0,0,90.4,22.041a15.592,15.592,0,0,0-4.532-.708,13.389,13.389,0,0,0-6.444,1.487,14.415,14.415,0,0,0-4.532,3.895A17.115,17.115,0,0,0,72.132,32.1a21.563,21.563,0,0,0-.85,5.948A19.307,19.307,0,0,0,73.123,46.4a16.254,16.254,0,0,0,5.169,6.232,12.824,12.824,0,0,0,7.719,2.408,15.151,15.151,0,0,0,4.674-.779,13.314,13.314,0,0,0,4.532-2.479A11.248,11.248,0,0,0,98.4,47.392l8,4.6a15.66,15.66,0,0,1-4.886,6.373,25.931,25.931,0,0,1-7.506,3.966,26.908,26.908,0,0,1-8.285,1.345,21.987,21.987,0,0,1-9.843-2.2,26.107,26.107,0,0,1-7.648-5.948,29.211,29.211,0,0,1-5.1-8.356A26.407,26.407,0,0,1,61.368,37.761Z" transform="translate(79.073 17)" fill="#0884ff"/>
    <path id="Path_113" data-name="Path 113" d="M61.368,37.761a25.581,25.581,0,0,1,6.515-17.137,23.218,23.218,0,0,1,7.79-5.736,24.057,24.057,0,0,1,10.481-2.2,22.9,22.9,0,0,1,11.968,3.045,19.386,19.386,0,0,1,7.577,7.931l-7.506,5.169a11.669,11.669,0,0,0-3.328-4.461A13.066,13.066,0,0,0,90.4,22.041a15.592,15.592,0,0,0-4.532-.708,13.389,13.389,0,0,0-6.444,1.487,14.415,14.415,0,0,0-4.532,3.895A17.115,17.115,0,0,0,72.132,32.1a21.563,21.563,0,0,0-.85,5.948A19.307,19.307,0,0,0,73.123,46.4a16.254,16.254,0,0,0,5.169,6.232,12.824,12.824,0,0,0,7.719,2.408,15.151,15.151,0,0,0,4.674-.779,13.314,13.314,0,0,0,4.532-2.479A11.248,11.248,0,0,0,98.4,47.392l8,4.6a15.66,15.66,0,0,1-4.886,6.373,25.931,25.931,0,0,1-7.506,3.966,26.908,26.908,0,0,1-8.285,1.345,21.987,21.987,0,0,1-9.843-2.2,26.107,26.107,0,0,1-7.648-5.948,29.211,29.211,0,0,1-5.1-8.356A26.407,26.407,0,0,1,61.368,37.761Z" transform="translate(127.733 17)" fill="#0884ff"/>
  </g>
</svg>
