<!-- <svg width="202" height="36" viewBox="0 0 202 36" fill="none" xmlns="http://www.w3.org/2000/svg">
<g clip-path="url(#clip0)">
<path d="M21.662 1.33418C23.399 1.38092 25.1184 1.70178 26.7585 2.28529C28.3339 2.85115 29.8302 3.6229 31.2099 4.58113C32.5679 5.56187 33.7934 6.71968 34.855 8.02489C35.9626 9.37845 36.865 10.8928 37.5322 12.5176C38.2274 14.1499 38.6421 15.8914 38.758 17.6663C38.758 17.8301 38.7904 17.9615 38.7904 18.1253C40.4507 18.506 41.9144 19.4965 42.9005 20.9069C43.8867 22.3172 44.326 24.0481 44.1341 25.7675C43.9422 27.4869 43.1327 29.0737 41.8608 30.2236C40.5889 31.3735 38.9443 32.0055 37.2423 31.9983H10.114C7.73962 32 5.44875 31.1075 3.68357 29.4929C1.9184 27.8783 0.804061 25.6561 0.555655 23.2553C0.307249 20.8545 0.942378 18.4452 2.33846 16.4925C3.73453 14.5398 5.79258 13.1821 8.11537 12.6815C8.23723 11.7047 8.47546 10.7465 8.82483 9.82817C9.49155 7.98972 10.5615 6.3299 11.9536 4.97476C13.2511 3.75236 14.775 2.80467 16.4363 2.18688C18.1124 1.5806 19.8835 1.2916 21.662 1.33418ZM30.885 5.07265C29.5844 4.17126 28.175 3.44397 26.6916 2.90871C25.1336 2.36873 23.4991 2.09182 21.8531 2.08899C20.2041 2.05397 18.5632 2.33196 17.0145 2.90871C15.4521 3.48775 14.0323 4.40546 12.8536 5.59818C11.5734 6.874 10.6019 8.43451 10.0157 10.1569C9.32676 12.155 9.12742 14.2939 9.43497 16.388C9.76296 18.743 10.6243 20.9884 11.951 22.9473C13.3015 24.9706 15.0474 26.6894 17.0799 27.9965C19.037 29.2673 21.2351 30.1054 23.5315 30.4562C25.6974 30.7885 27.9102 30.586 29.983 29.8658C31.7098 29.2853 33.2781 28.3001 34.5613 26.9897C35.8445 25.6794 36.8067 24.0805 37.37 22.3224C37.8663 20.7567 38.074 19.1113 37.9827 17.4689C37.8807 15.787 37.499 14.1347 36.8536 12.5826C36.2259 11.0432 35.3781 9.60659 34.3376 8.31908C33.3312 7.08866 32.1709 5.99743 30.886 5.07317" fill="#0884FF"/>
<path fill-rule="evenodd" clip-rule="evenodd" d="M22.2412 3.30273C22.596 3.30273 22.9188 3.30273 23.2411 3.33571C23.499 4.12297 23.725 4.90972 23.983 5.72996C23.6282 5.6975 23.3054 5.6975 22.9507 5.6975C22.6044 5.69774 22.2588 5.73068 21.9184 5.79591C21.6924 4.97618 21.4669 4.15646 21.2409 3.3692C21.5632 3.33622 21.9184 3.30325 22.2407 3.30325L22.2412 3.30273ZM25.8534 3.79529C28.0238 4.41887 30.0297 5.52789 31.7242 7.0412C33.4817 8.59589 34.8523 10.5514 35.724 12.7478C36.6091 14.9366 36.8772 17.3328 36.4984 19.6678C36.0897 22.0595 34.8682 24.2294 33.0468 25.799C32.6597 24.5526 32.273 23.3718 31.8859 22.1584C32.5991 21.4532 33.1594 20.6041 33.5308 19.6657C34.0563 18.3467 34.2449 16.9138 34.0791 15.5007C33.2729 15.6315 32.4342 15.7959 31.5631 15.9268C31.5326 16.6405 31.3684 17.3417 31.0791 17.9928C30.7264 18.7327 30.2115 19.3805 29.5741 19.8865C28.9367 20.3925 28.1936 20.7431 27.4021 20.9116C26.4792 21.0894 25.5307 21.0796 24.6116 20.8825C23.6925 20.6855 22.8209 20.3052 22.0472 19.7636C20.3714 18.6956 19.1775 16.9986 18.7249 15.0411C18.5002 14.2468 18.4571 13.4108 18.5988 12.597C18.7405 11.7832 19.0632 11.0131 19.5424 10.3455C20.0215 9.67786 20.6444 9.13039 21.3634 8.74487C22.0824 8.35936 22.8786 8.14601 23.6911 8.12111C25.3166 8.04471 26.9197 8.53013 28.2392 9.49831C28.8539 9.92089 29.4076 10.4286 29.8842 11.0069C30.7229 10.9085 31.5296 10.843 32.3359 10.7446C31.5388 9.54067 30.52 8.50492 29.3359 7.69451C28.5207 7.1137 27.6305 6.65025 26.6906 6.31731C26.4002 5.46462 26.1098 4.61192 25.8519 3.79271L25.8534 3.79529ZM30.5293 27.406C30.1421 27.5698 29.7874 27.7012 29.4002 27.8321C29.0131 27.9629 28.594 28.0618 28.2068 28.1602C27.8521 26.8809 27.5293 25.6356 27.1745 24.4218C27.5802 24.396 27.9811 24.3188 28.368 24.192C28.7395 24.0915 29.1055 23.9711 29.4646 23.8313C29.8193 24.9793 30.1421 26.1926 30.5288 27.406H30.5293ZM24.8222 28.3586C21.6134 28.054 18.5894 26.6956 16.2073 24.4888C13.7767 22.2904 12.151 19.3192 11.5958 16.0602C11.0817 13.2888 11.6364 10.4225 13.1449 8.05568C14.4596 6.07215 16.3903 4.59402 18.6286 3.85763C18.8865 4.77576 19.1125 5.66092 19.338 6.61254C18.4691 7.0605 17.6919 7.67248 17.048 8.41582C16.2416 9.38776 15.6678 10.5365 15.3716 11.7718C15.0754 13.0072 15.0648 14.2955 15.3407 15.5357C15.8113 17.6508 16.8556 19.5893 18.3552 21.1314C19.8548 22.6734 21.7495 23.7571 23.8244 24.2595C24.1467 25.5712 24.4695 26.949 24.8242 28.3591" fill="#0884FF"/>
</g>
<path d="M61.368 21.92C61.368 20.7067 61.5827 19.512 62.012 18.336C62.46 17.16 63.104 16.096 63.944 15.144C64.784 14.192 65.8107 13.436 67.024 12.876C68.2373 12.2973 69.6187 12.008 71.168 12.008C72.9787 12.008 74.556 12.4093 75.9 13.212C77.244 14.0147 78.2427 15.06 78.896 16.348L75.928 18.392C75.592 17.6453 75.1533 17.0573 74.612 16.628C74.0707 16.1987 73.4827 15.8907 72.848 15.704C72.232 15.5173 71.6347 15.424 71.056 15.424C70.0853 15.424 69.236 15.62 68.508 16.012C67.7987 16.404 67.2013 16.9173 66.716 17.552C66.2307 18.1867 65.8667 18.896 65.624 19.68C65.4 20.464 65.288 21.248 65.288 22.032C65.288 23.208 65.5307 24.3093 66.016 25.336C66.5013 26.344 67.1827 27.1653 68.06 27.8C68.9373 28.4347 69.9547 28.752 71.112 28.752C71.7093 28.752 72.3253 28.6493 72.96 28.444C73.6133 28.2387 74.2107 27.912 74.752 27.464C75.2933 27.016 75.7133 26.4373 76.012 25.728L79.176 27.548C78.7653 28.5373 78.1213 29.3773 77.244 30.068C76.3667 30.74 75.3773 31.2627 74.276 31.636C73.1747 31.9907 72.0827 32.168 71 32.168C69.5813 32.168 68.284 31.8787 67.108 31.3C65.9507 30.7027 64.9427 29.9187 64.084 28.948C63.2253 27.9587 62.5533 26.8573 62.068 25.644C61.6013 24.412 61.368 23.1707 61.368 21.92ZM81.0953 11.56H84.8473V27.296C84.8473 27.9867 84.9593 28.444 85.1833 28.668C85.4073 28.892 85.7153 29.004 86.1073 29.004C86.406 29.004 86.714 28.9667 87.0313 28.892C87.3486 28.8173 87.6286 28.724 87.8713 28.612L88.3753 31.468C87.8713 31.7107 87.2833 31.8973 86.6113 32.028C85.9393 32.1587 85.3326 32.224 84.7913 32.224C83.6153 32.224 82.7006 31.916 82.0473 31.3C81.4126 30.6653 81.0953 29.7693 81.0953 28.612V11.56ZM96.506 32.28C94.9007 32.28 93.5194 31.9347 92.362 31.244C91.2234 30.5347 90.346 29.6013 89.73 28.444C89.114 27.2867 88.806 26.036 88.806 24.692C88.806 23.3293 89.114 22.0693 89.73 20.912C90.3647 19.7547 91.2514 18.8307 92.39 18.14C93.5474 17.4307 94.9194 17.076 96.506 17.076C98.0927 17.076 99.4554 17.4307 100.594 18.14C101.751 18.8307 102.638 19.7547 103.254 20.912C103.87 22.0693 104.178 23.3293 104.178 24.692C104.178 26.036 103.87 27.2867 103.254 28.444C102.638 29.6013 101.751 30.5347 100.594 31.244C99.4554 31.9347 98.0927 32.28 96.506 32.28ZM92.67 24.692C92.67 25.5507 92.838 26.316 93.174 26.988C93.51 27.6413 93.9674 28.1547 94.546 28.528C95.1247 28.9013 95.778 29.088 96.506 29.088C97.2154 29.088 97.8594 28.9013 98.438 28.528C99.0167 28.136 99.474 27.6133 99.81 26.96C100.165 26.288 100.342 25.5227 100.342 24.664C100.342 23.824 100.165 23.0773 99.81 22.424C99.474 21.752 99.0167 21.2293 98.438 20.856C97.8594 20.464 97.2154 20.268 96.506 20.268C95.778 20.268 95.1247 20.464 94.546 20.856C93.9674 21.2293 93.51 21.752 93.174 22.424C92.838 23.0773 92.67 23.8333 92.67 24.692ZM106.29 26.512V17.328H110.043V25.7C110.043 27.9587 110.855 29.088 112.479 29.088C113.207 29.088 113.907 28.8733 114.579 28.444C115.269 27.996 115.829 27.324 116.259 26.428V17.328H120.01V27.8C120.01 28.2107 120.076 28.5 120.207 28.668C120.337 28.8173 120.57 28.9107 120.907 28.948V32C120.533 32.0747 120.216 32.1213 119.955 32.14C119.712 32.1587 119.488 32.168 119.283 32.168C118.611 32.168 118.06 32.0187 117.631 31.72C117.22 31.4027 116.977 30.9733 116.903 30.432L116.819 29.256C116.165 30.264 115.325 31.02 114.299 31.524C113.272 32.028 112.143 32.28 110.911 32.28C109.399 32.28 108.25 31.7947 107.466 30.824C106.682 29.8347 106.29 28.3973 106.29 26.512ZM122.563 24.664C122.563 23.264 122.843 21.9853 123.403 20.828C123.963 19.6707 124.738 18.756 125.727 18.084C126.716 17.412 127.846 17.076 129.115 17.076C130.198 17.076 131.168 17.3467 132.027 17.888C132.904 18.4107 133.586 19.0827 134.071 19.904V11.56H137.823V27.8C137.823 28.2107 137.888 28.5 138.019 28.668C138.15 28.8173 138.374 28.9107 138.691 28.948V32C138.019 32.1307 137.487 32.196 137.095 32.196C136.423 32.196 135.863 32.028 135.415 31.692C134.986 31.356 134.743 30.9173 134.687 30.376L134.631 29.452C134.09 30.3667 133.352 31.0667 132.419 31.552C131.504 32.0373 130.543 32.28 129.535 32.28C128.172 32.28 126.968 31.944 125.923 31.272C124.878 30.5813 124.056 29.6667 123.459 28.528C122.862 27.3707 122.563 26.0827 122.563 24.664ZM134.071 26.624V23.124C133.772 22.3027 133.259 21.6213 132.531 21.08C131.803 20.5387 131.056 20.268 130.291 20.268C129.526 20.268 128.854 20.4827 128.275 20.912C127.696 21.3227 127.248 21.8733 126.931 22.564C126.614 23.236 126.455 23.964 126.455 24.748C126.455 25.5507 126.632 26.288 126.987 26.96C127.342 27.6133 127.818 28.136 128.415 28.528C129.031 28.9013 129.731 29.088 130.515 29.088C131.224 29.088 131.924 28.8547 132.615 28.388C133.324 27.9213 133.81 27.3333 134.071 26.624ZM140.195 21.92C140.195 20.7067 140.409 19.512 140.839 18.336C141.287 17.16 141.931 16.096 142.771 15.144C143.611 14.192 144.637 13.436 145.851 12.876C147.064 12.2973 148.445 12.008 149.995 12.008C151.805 12.008 153.383 12.4093 154.727 13.212C156.071 14.0147 157.069 15.06 157.723 16.348L154.755 18.392C154.419 17.6453 153.98 17.0573 153.439 16.628C152.897 16.1987 152.309 15.8907 151.675 15.704C151.059 15.5173 150.461 15.424 149.883 15.424C148.912 15.424 148.063 15.62 147.335 16.012C146.625 16.404 146.028 16.9173 145.543 17.552C145.057 18.1867 144.693 18.896 144.451 19.68C144.227 20.464 144.115 21.248 144.115 22.032C144.115 23.208 144.357 24.3093 144.843 25.336C145.328 26.344 146.009 27.1653 146.887 27.8C147.764 28.4347 148.781 28.752 149.939 28.752C150.536 28.752 151.152 28.6493 151.787 28.444C152.44 28.2387 153.037 27.912 153.579 27.464C154.12 27.016 154.54 26.4373 154.839 25.728L158.003 27.548C157.592 28.5373 156.948 29.3773 156.071 30.068C155.193 30.74 154.204 31.2627 153.103 31.636C152.001 31.9907 150.909 32.168 149.827 32.168C148.408 32.168 147.111 31.8787 145.935 31.3C144.777 30.7027 143.769 29.9187 142.911 28.948C142.052 27.9587 141.38 26.8573 140.895 25.644C140.428 24.412 140.195 23.1707 140.195 21.92ZM166.671 32.28C165.066 32.28 163.685 31.9347 162.527 31.244C161.389 30.5347 160.511 29.6013 159.895 28.444C159.279 27.2867 158.971 26.036 158.971 24.692C158.971 23.3293 159.279 22.0693 159.895 20.912C160.53 19.7547 161.417 18.8307 162.555 18.14C163.713 17.4307 165.085 17.076 166.671 17.076C168.258 17.076 169.621 17.4307 170.759 18.14C171.917 18.8307 172.803 19.7547 173.419 20.912C174.035 22.0693 174.343 23.3293 174.343 24.692C174.343 26.036 174.035 27.2867 173.419 28.444C172.803 29.6013 171.917 30.5347 170.759 31.244C169.621 31.9347 168.258 32.28 166.671 32.28ZM162.835 24.692C162.835 25.5507 163.003 26.316 163.339 26.988C163.675 27.6413 164.133 28.1547 164.711 28.528C165.29 28.9013 165.943 29.088 166.671 29.088C167.381 29.088 168.025 28.9013 168.603 28.528C169.182 28.136 169.639 27.6133 169.975 26.96C170.33 26.288 170.507 25.5227 170.507 24.664C170.507 23.824 170.33 23.0773 169.975 22.424C169.639 21.752 169.182 21.2293 168.603 20.856C168.025 20.464 167.381 20.268 166.671 20.268C165.943 20.268 165.29 20.464 164.711 20.856C164.133 21.2293 163.675 21.752 163.339 22.424C163.003 23.0773 162.835 23.8333 162.835 24.692ZM176.596 15.284V11.56H180.348V15.284H176.596ZM176.596 32V17.328H180.348V32H176.596ZM197.088 32H193.336V23.768C193.336 22.592 193.131 21.7333 192.72 21.192C192.31 20.6507 191.74 20.38 191.012 20.38C190.508 20.38 189.995 20.5107 189.472 20.772C188.968 21.0333 188.511 21.3973 188.1 21.864C187.69 22.312 187.391 22.8347 187.204 23.432V32H183.452V17.328H186.84V20.044C187.382 19.1293 188.166 18.4107 189.192 17.888C190.219 17.3467 191.376 17.076 192.664 17.076C193.579 17.076 194.326 17.244 194.904 17.58C195.483 17.8973 195.931 18.336 196.248 18.896C196.566 19.4373 196.78 20.0533 196.892 20.744C197.023 21.4347 197.088 22.1347 197.088 22.844V32Z" fill="#0884FF"/>
<defs>
<clipPath id="clip0">
<rect width="45" height="32" fill="white" transform="translate(0.5)"/>
</clipPath>
</defs>
</svg> -->
<svg width="202" height="36" viewBox="0 0 202 36" fill="none" xmlns="http://www.w3.org/2000/svg">
<g clip-path="url(#clip0)">
<path d="M21.662 1.33418C23.399 1.38092 25.1184 1.70178 26.7585 2.28529C28.3339 2.85115 29.8302 3.6229 31.2099 4.58113C32.5679 5.56187 33.7934 6.71968 34.855 8.02489C35.9626 9.37845 36.865 10.8928 37.5322 12.5176C38.2274 14.1499 38.6421 15.8914 38.758 17.6663C38.758 17.8301 38.7904 17.9615 38.7904 18.1253C40.4507 18.506 41.9144 19.4965 42.9005 20.9069C43.8867 22.3172 44.326 24.0481 44.1341 25.7675C43.9422 27.4869 43.1327 29.0737 41.8608 30.2236C40.5889 31.3735 38.9443 32.0055 37.2423 31.9983H10.114C7.73962 32 5.44875 31.1075 3.68357 29.4929C1.9184 27.8783 0.804061 25.6561 0.555655 23.2553C0.307249 20.8545 0.942378 18.4452 2.33846 16.4925C3.73453 14.5398 5.79258 13.1821 8.11537 12.6815C8.23723 11.7047 8.47546 10.7465 8.82483 9.82817C9.49155 7.98972 10.5615 6.3299 11.9536 4.97476C13.2511 3.75236 14.775 2.80467 16.4363 2.18688C18.1124 1.5806 19.8835 1.2916 21.662 1.33418ZM30.885 5.07265C29.5844 4.17126 28.175 3.44397 26.6916 2.90871C25.1336 2.36873 23.4991 2.09182 21.8531 2.08899C20.2041 2.05397 18.5632 2.33196 17.0145 2.90871C15.4521 3.48775 14.0323 4.40546 12.8536 5.59818C11.5734 6.874 10.6019 8.43451 10.0157 10.1569C9.32676 12.155 9.12742 14.2939 9.43497 16.388C9.76296 18.743 10.6243 20.9884 11.951 22.9473C13.3015 24.9706 15.0474 26.6894 17.0799 27.9965C19.037 29.2673 21.2351 30.1054 23.5315 30.4562C25.6974 30.7885 27.9102 30.586 29.983 29.8658C31.7098 29.2853 33.2781 28.3001 34.5613 26.9897C35.8445 25.6794 36.8067 24.0805 37.37 22.3224C37.8663 20.7567 38.074 19.1113 37.9827 17.4689C37.8807 15.787 37.499 14.1347 36.8536 12.5826C36.2259 11.0432 35.3781 9.60659 34.3376 8.31908C33.3312 7.08866 32.1709 5.99743 30.886 5.07317" fill="#0884FF"/>
<path fill-rule="evenodd" clip-rule="evenodd" d="M22.2412 3.30273C22.596 3.30273 22.9188 3.30273 23.2411 3.33571C23.499 4.12297 23.725 4.90972 23.983 5.72996C23.6282 5.6975 23.3054 5.6975 22.9507 5.6975C22.6044 5.69774 22.2588 5.73068 21.9184 5.79591C21.6924 4.97618 21.4669 4.15646 21.2409 3.3692C21.5632 3.33622 21.9184 3.30325 22.2407 3.30325L22.2412 3.30273ZM25.8534 3.79529C28.0238 4.41887 30.0297 5.52789 31.7242 7.0412C33.4817 8.59589 34.8523 10.5514 35.724 12.7478C36.6091 14.9366 36.8772 17.3328 36.4984 19.6678C36.0897 22.0595 34.8682 24.2294 33.0468 25.799C32.6597 24.5526 32.273 23.3718 31.8859 22.1584C32.5991 21.4532 33.1594 20.6041 33.5308 19.6657C34.0563 18.3467 34.2449 16.9138 34.0791 15.5007C33.2729 15.6315 32.4342 15.7959 31.5631 15.9268C31.5326 16.6405 31.3684 17.3417 31.0791 17.9928C30.7264 18.7327 30.2115 19.3805 29.5741 19.8865C28.9367 20.3925 28.1936 20.7431 27.4021 20.9116C26.4792 21.0894 25.5307 21.0796 24.6116 20.8825C23.6925 20.6855 22.8209 20.3052 22.0472 19.7636C20.3714 18.6956 19.1775 16.9986 18.7249 15.0411C18.5002 14.2468 18.4571 13.4108 18.5988 12.597C18.7405 11.7832 19.0632 11.0131 19.5424 10.3455C20.0215 9.67786 20.6444 9.13039 21.3634 8.74487C22.0824 8.35936 22.8786 8.14601 23.6911 8.12111C25.3166 8.04471 26.9197 8.53013 28.2392 9.49831C28.8539 9.92089 29.4076 10.4286 29.8842 11.0069C30.7229 10.9085 31.5296 10.843 32.3359 10.7446C31.5388 9.54067 30.52 8.50492 29.3359 7.69451C28.5207 7.1137 27.6305 6.65025 26.6906 6.31731C26.4002 5.46462 26.1098 4.61192 25.8519 3.79271L25.8534 3.79529ZM30.5293 27.406C30.1421 27.5698 29.7874 27.7012 29.4002 27.8321C29.0131 27.9629 28.594 28.0618 28.2068 28.1602C27.8521 26.8809 27.5293 25.6356 27.1745 24.4218C27.5802 24.396 27.9811 24.3188 28.368 24.192C28.7395 24.0915 29.1055 23.9711 29.4646 23.8313C29.8193 24.9793 30.1421 26.1926 30.5288 27.406H30.5293ZM24.8222 28.3586C21.6134 28.054 18.5894 26.6956 16.2073 24.4888C13.7767 22.2904 12.151 19.3192 11.5958 16.0602C11.0817 13.2888 11.6364 10.4225 13.1449 8.05568C14.4596 6.07215 16.3903 4.59402 18.6286 3.85763C18.8865 4.77576 19.1125 5.66092 19.338 6.61254C18.4691 7.0605 17.6919 7.67248 17.048 8.41582C16.2416 9.38776 15.6678 10.5365 15.3716 11.7718C15.0754 13.0072 15.0648 14.2955 15.3407 15.5357C15.8113 17.6508 16.8556 19.5893 18.3552 21.1314C19.8548 22.6734 21.7495 23.7571 23.8244 24.2595C24.1467 25.5712 24.4695 26.949 24.8242 28.3591" fill="#0884FF"/>
</g>
<path d="M61.368 21.92C61.368 20.7067 61.5827 19.512 62.012 18.336C62.46 17.16 63.104 16.096 63.944 15.144C64.784 14.192 65.8107 13.436 67.024 12.876C68.2373 12.2973 69.6187 12.008 71.168 12.008C72.9787 12.008 74.556 12.4093 75.9 13.212C77.244 14.0147 78.2427 15.06 78.896 16.348L75.928 18.392C75.592 17.6453 75.1533 17.0573 74.612 16.628C74.0707 16.1987 73.4827 15.8907 72.848 15.704C72.232 15.5173 71.6347 15.424 71.056 15.424C70.0853 15.424 69.236 15.62 68.508 16.012C67.7987 16.404 67.2013 16.9173 66.716 17.552C66.2307 18.1867 65.8667 18.896 65.624 19.68C65.4 20.464 65.288 21.248 65.288 22.032C65.288 23.208 65.5307 24.3093 66.016 25.336C66.5013 26.344 67.1827 27.1653 68.06 27.8C68.9373 28.4347 69.9547 28.752 71.112 28.752C71.7093 28.752 72.3253 28.6493 72.96 28.444C73.6133 28.2387 74.2107 27.912 74.752 27.464C75.2933 27.016 75.7133 26.4373 76.012 25.728L79.176 27.548C78.7653 28.5373 78.1213 29.3773 77.244 30.068C76.3667 30.74 75.3773 31.2627 74.276 31.636C73.1747 31.9907 72.0827 32.168 71 32.168C69.5813 32.168 68.284 31.8787 67.108 31.3C65.9507 30.7027 64.9427 29.9187 64.084 28.948C63.2253 27.9587 62.5533 26.8573 62.068 25.644C61.6013 24.412 61.368 23.1707 61.368 21.92ZM81.0953 11.56H84.8473V27.296C84.8473 27.9867 84.9593 28.444 85.1833 28.668C85.4073 28.892 85.7153 29.004 86.1073 29.004C86.406 29.004 86.714 28.9667 87.0313 28.892C87.3486 28.8173 87.6286 28.724 87.8713 28.612L88.3753 31.468C87.8713 31.7107 87.2833 31.8973 86.6113 32.028C85.9393 32.1587 85.3326 32.224 84.7913 32.224C83.6153 32.224 82.7006 31.916 82.0473 31.3C81.4126 30.6653 81.0953 29.7693 81.0953 28.612V11.56ZM96.506 32.28C94.9007 32.28 93.5194 31.9347 92.362 31.244C91.2234 30.5347 90.346 29.6013 89.73 28.444C89.114 27.2867 88.806 26.036 88.806 24.692C88.806 23.3293 89.114 22.0693 89.73 20.912C90.3647 19.7547 91.2514 18.8307 92.39 18.14C93.5474 17.4307 94.9194 17.076 96.506 17.076C98.0927 17.076 99.4554 17.4307 100.594 18.14C101.751 18.8307 102.638 19.7547 103.254 20.912C103.87 22.0693 104.178 23.3293 104.178 24.692C104.178 26.036 103.87 27.2867 103.254 28.444C102.638 29.6013 101.751 30.5347 100.594 31.244C99.4554 31.9347 98.0927 32.28 96.506 32.28ZM92.67 24.692C92.67 25.5507 92.838 26.316 93.174 26.988C93.51 27.6413 93.9674 28.1547 94.546 28.528C95.1247 28.9013 95.778 29.088 96.506 29.088C97.2154 29.088 97.8594 28.9013 98.438 28.528C99.0167 28.136 99.474 27.6133 99.81 26.96C100.165 26.288 100.342 25.5227 100.342 24.664C100.342 23.824 100.165 23.0773 99.81 22.424C99.474 21.752 99.0167 21.2293 98.438 20.856C97.8594 20.464 97.2154 20.268 96.506 20.268C95.778 20.268 95.1247 20.464 94.546 20.856C93.9674 21.2293 93.51 21.752 93.174 22.424C92.838 23.0773 92.67 23.8333 92.67 24.692ZM106.29 26.512V17.328H110.043V25.7C110.043 27.9587 110.855 29.088 112.479 29.088C113.207 29.088 113.907 28.8733 114.579 28.444C115.269 27.996 115.829 27.324 116.259 26.428V17.328H120.01V27.8C120.01 28.2107 120.076 28.5 120.207 28.668C120.337 28.8173 120.57 28.9107 120.907 28.948V32C120.533 32.0747 120.216 32.1213 119.955 32.14C119.712 32.1587 119.488 32.168 119.283 32.168C118.611 32.168 118.06 32.0187 117.631 31.72C117.22 31.4027 116.977 30.9733 116.903 30.432L116.819 29.256C116.165 30.264 115.325 31.02 114.299 31.524C113.272 32.028 112.143 32.28 110.911 32.28C109.399 32.28 108.25 31.7947 107.466 30.824C106.682 29.8347 106.29 28.3973 106.29 26.512ZM122.563 24.664C122.563 23.264 122.843 21.9853 123.403 20.828C123.963 19.6707 124.738 18.756 125.727 18.084C126.716 17.412 127.846 17.076 129.115 17.076C130.198 17.076 131.168 17.3467 132.027 17.888C132.904 18.4107 133.586 19.0827 134.071 19.904V11.56H137.823V27.8C137.823 28.2107 137.888 28.5 138.019 28.668C138.15 28.8173 138.374 28.9107 138.691 28.948V32C138.019 32.1307 137.487 32.196 137.095 32.196C136.423 32.196 135.863 32.028 135.415 31.692C134.986 31.356 134.743 30.9173 134.687 30.376L134.631 29.452C134.09 30.3667 133.352 31.0667 132.419 31.552C131.504 32.0373 130.543 32.28 129.535 32.28C128.172 32.28 126.968 31.944 125.923 31.272C124.878 30.5813 124.056 29.6667 123.459 28.528C122.862 27.3707 122.563 26.0827 122.563 24.664ZM134.071 26.624V23.124C133.772 22.3027 133.259 21.6213 132.531 21.08C131.803 20.5387 131.056 20.268 130.291 20.268C129.526 20.268 128.854 20.4827 128.275 20.912C127.696 21.3227 127.248 21.8733 126.931 22.564C126.614 23.236 126.455 23.964 126.455 24.748C126.455 25.5507 126.632 26.288 126.987 26.96C127.342 27.6133 127.818 28.136 128.415 28.528C129.031 28.9013 129.731 29.088 130.515 29.088C131.224 29.088 131.924 28.8547 132.615 28.388C133.324 27.9213 133.81 27.3333 134.071 26.624ZM140.195 21.92C140.195 20.7067 140.409 19.512 140.839 18.336C141.287 17.16 141.931 16.096 142.771 15.144C143.611 14.192 144.637 13.436 145.851 12.876C147.064 12.2973 148.445 12.008 149.995 12.008C151.805 12.008 153.383 12.4093 154.727 13.212C156.071 14.0147 157.069 15.06 157.723 16.348L154.755 18.392C154.419 17.6453 153.98 17.0573 153.439 16.628C152.897 16.1987 152.309 15.8907 151.675 15.704C151.059 15.5173 150.461 15.424 149.883 15.424C148.912 15.424 148.063 15.62 147.335 16.012C146.625 16.404 146.028 16.9173 145.543 17.552C145.057 18.1867 144.693 18.896 144.451 19.68C144.227 20.464 144.115 21.248 144.115 22.032C144.115 23.208 144.357 24.3093 144.843 25.336C145.328 26.344 146.009 27.1653 146.887 27.8C147.764 28.4347 148.781 28.752 149.939 28.752C150.536 28.752 151.152 28.6493 151.787 28.444C152.44 28.2387 153.037 27.912 153.579 27.464C154.12 27.016 154.54 26.4373 154.839 25.728L158.003 27.548C157.592 28.5373 156.948 29.3773 156.071 30.068C155.193 30.74 154.204 31.2627 153.103 31.636C152.001 31.9907 150.909 32.168 149.827 32.168C148.408 32.168 147.111 31.8787 145.935 31.3C144.777 30.7027 143.769 29.9187 142.911 28.948C142.052 27.9587 141.38 26.8573 140.895 25.644C140.428 24.412 140.195 23.1707 140.195 21.92ZM166.671 32.28C165.066 32.28 163.685 31.9347 162.527 31.244C161.389 30.5347 160.511 29.6013 159.895 28.444C159.279 27.2867 158.971 26.036 158.971 24.692C158.971 23.3293 159.279 22.0693 159.895 20.912C160.53 19.7547 161.417 18.8307 162.555 18.14C163.713 17.4307 165.085 17.076 166.671 17.076C168.258 17.076 169.621 17.4307 170.759 18.14C171.917 18.8307 172.803 19.7547 173.419 20.912C174.035 22.0693 174.343 23.3293 174.343 24.692C174.343 26.036 174.035 27.2867 173.419 28.444C172.803 29.6013 171.917 30.5347 170.759 31.244C169.621 31.9347 168.258 32.28 166.671 32.28ZM162.835 24.692C162.835 25.5507 163.003 26.316 163.339 26.988C163.675 27.6413 164.133 28.1547 164.711 28.528C165.29 28.9013 165.943 29.088 166.671 29.088C167.381 29.088 168.025 28.9013 168.603 28.528C169.182 28.136 169.639 27.6133 169.975 26.96C170.33 26.288 170.507 25.5227 170.507 24.664C170.507 23.824 170.33 23.0773 169.975 22.424C169.639 21.752 169.182 21.2293 168.603 20.856C168.025 20.464 167.381 20.268 166.671 20.268C165.943 20.268 165.29 20.464 164.711 20.856C164.133 21.2293 163.675 21.752 163.339 22.424C163.003 23.0773 162.835 23.8333 162.835 24.692ZM176.596 15.284V11.56H180.348V15.284H176.596ZM176.596 32V17.328H180.348V32H176.596ZM197.088 32H193.336V23.768C193.336 22.592 193.131 21.7333 192.72 21.192C192.31 20.6507 191.74 20.38 191.012 20.38C190.508 20.38 189.995 20.5107 189.472 20.772C188.968 21.0333 188.511 21.3973 188.1 21.864C187.69 22.312 187.391 22.8347 187.204 23.432V32H183.452V17.328H186.84V20.044C187.382 19.1293 188.166 18.4107 189.192 17.888C190.219 17.3467 191.376 17.076 192.664 17.076C193.579 17.076 194.326 17.244 194.904 17.58C195.483 17.8973 195.931 18.336 196.248 18.896C196.566 19.4373 196.78 20.0533 196.892 20.744C197.023 21.4347 197.088 22.1347 197.088 22.844V32Z" fill="#0884FF"/>
<defs>
<clipPath id="clip0">
<rect width="45" height="32" fill="white" transform="translate(0.5)"/>
</clipPath>
</defs>
</svg>  
