<svg width="20" height="21" viewBox="0 0 20 21" fill="none" xmlns="http://www.w3.org/2000/svg">
<path d="M10.0002 17.1668C13.6821 17.1668 16.6668 14.1821 16.6668 10.5002C16.6668 6.81826 13.6821 3.8335 10.0002 3.8335C6.31826 3.8335 3.3335 6.81826 3.3335 10.5002C3.3335 14.1821 6.31826 17.1668 10.0002 17.1668Z" stroke="white" stroke-width="1.5" stroke-linecap="round" stroke-linejoin="round"/>
<path d="M8.06006 8.50038C8.21679 8.05482 8.52616 7.67912 8.93336 7.4398C9.34056 7.20049 9.81932 7.11301 10.2848 7.19285C10.7504 7.2727 11.1726 7.51473 11.4768 7.87607C11.781 8.2374 11.9474 8.69473 11.9467 9.16705C11.9467 10.5004 10.0001 11.241 10.0001 11.241V12.3521" stroke="white" stroke-width="1.5" stroke-linecap="round" stroke-linejoin="round"/>
<path d="M10 14.5742H10.0067" stroke="white" stroke-width="1.5" stroke-linecap="round" stroke-linejoin="round"/>
</svg>
