<svg width="18" height="16" viewBox="0 0 18 16" fill="none" xmlns="http://www.w3.org/2000/svg">
<path d="M12.1011 1.0024C13.013 1.65442 13.6997 2.57564 14.0659 3.63787C14.8822 3.73954 15.6549 4.06462 16.2997 4.57756C16.9444 5.0905 17.4363 5.77156 17.7216 6.54628C18.0068 7.32101 18.0745 8.15958 17.9172 8.97031C17.7598 9.78105 17.3836 10.5327 16.8295 11.1432C16.7454 11.2393 16.6419 11.3164 16.5259 11.3692C16.4098 11.422 16.2839 11.4494 16.1565 11.4496C15.9384 11.4493 15.7279 11.3692 15.5643 11.2243C15.4747 11.146 15.4015 11.0507 15.3489 10.9438C15.2962 10.8369 15.2653 10.7206 15.2578 10.6015C15.2503 10.4825 15.2663 10.3632 15.3051 10.2505C15.3439 10.1378 15.4045 10.0339 15.4836 9.94489C15.8307 9.55517 16.0578 9.07272 16.1374 8.55599C16.217 8.03927 16.1456 7.51045 15.932 7.03364C15.7183 6.55682 15.3715 6.15247 14.9335 5.86959C14.4956 5.58671 13.9854 5.43744 13.4647 5.43988H13.4109C13.2009 5.44413 12.9962 5.37433 12.8322 5.24262C12.6683 5.11092 12.5555 4.92565 12.5136 4.71907C12.3488 3.90436 11.9087 3.17189 11.2676 2.64577C10.6266 2.11966 9.82418 1.83225 8.99628 1.83225C8.16838 1.83225 7.36594 2.11966 6.72491 2.64577C6.08389 3.17189 5.64372 3.90436 5.47897 4.71907C5.43702 4.92565 5.32426 5.11092 5.16031 5.24262C4.99636 5.37433 4.79161 5.44413 4.58169 5.43988H4.49197C3.97127 5.43744 3.46104 5.58671 3.02312 5.86959C2.5852 6.15247 2.23839 6.55682 2.02471 7.03364C1.81103 7.51045 1.73966 8.03927 1.81925 8.55599C1.89883 9.07272 2.12596 9.55517 2.4731 9.94489C2.5755 10.0284 2.65831 10.1335 2.71562 10.2528C2.77294 10.3721 2.80336 10.5026 2.80471 10.6351C2.80607 10.7675 2.77832 10.8987 2.72346 11.0191C2.66859 11.1396 2.58795 11.2464 2.48728 11.332C2.38661 11.4176 2.26838 11.4798 2.14102 11.5143C2.01366 11.5488 1.8803 11.5546 1.75043 11.5314C1.62056 11.5082 1.49738 11.4566 1.38965 11.3801C1.28193 11.3037 1.19232 11.2044 1.12719 11.0892C0.588062 10.4776 0.22463 9.73044 0.0757748 8.9275C-0.0730804 8.12456 -0.00175869 7.29609 0.282111 6.53071C0.56598 5.76534 1.05172 5.09185 1.68736 4.58229C2.323 4.07274 3.08464 3.74629 3.89079 3.63787C4.25692 2.57564 4.94368 1.65442 5.85552 1.0024C6.76736 0.350386 7.85893 0 8.97833 0C10.0977 0 11.1893 0.350386 12.1011 1.0024Z" fill="white"/>
<path d="M8.63905 6.71003V8.64743C8.63905 8.65903 8.63873 8.67058 8.63808 8.68208V14.5916C8.63808 14.9288 8.37213 15.2022 8.04407 15.2022C7.716 15.2022 7.45006 14.9288 7.45006 14.5916V9.80103L6.3412 10.583C5.82138 10.9496 5.18462 10.3238 5.51757 9.77359L7.56264 6.39401C7.87188 5.88297 8.63905 6.10821 8.63905 6.71003Z" fill="white"/>
<path d="M9.35528 15.4006V13.4632C9.35528 13.4516 9.35561 13.44 9.35626 13.4285V7.51905C9.35626 7.18184 9.62221 6.90848 9.95027 6.90848C10.2783 6.90848 10.5443 7.18184 10.5443 7.51905V12.3096L11.6531 11.5276C12.173 11.1611 12.8097 11.7868 12.4768 12.337L10.4317 15.7166C10.1225 16.2277 9.35528 16.0024 9.35528 15.4006Z" fill="white"/>
</svg>
