<svg width="14" height="11" viewBox="0 0 14 11" fill="none" xmlns="http://www.w3.org/2000/svg">
<path d="M5.20384 10.9629C5.08986 10.9625 4.97718 10.9387 4.8728 10.893C4.76841 10.8473 4.67455 10.7807 4.59705 10.6972L0.557342 6.40455C0.406333 6.2438 0.325437 6.02971 0.332452 5.80938C0.339467 5.58904 0.433817 5.38052 0.594747 5.22968C0.755677 5.07883 0.970004 4.99803 1.19058 5.00503C1.41115 5.01204 1.61991 5.10629 1.77092 5.26704L5.19552 8.91205L12.186 1.2733C12.257 1.18506 12.3452 1.11224 12.4454 1.0593C12.5455 1.00637 12.6554 0.974448 12.7684 0.965494C12.8813 0.956539 12.9949 0.970744 13.1022 1.00723C13.2094 1.04372 13.3081 1.10173 13.392 1.17769C13.476 1.25365 13.5436 1.34596 13.5906 1.44895C13.6375 1.55193 13.6629 1.66343 13.6652 1.77658C13.6675 1.88973 13.6465 2.00215 13.6037 2.10693C13.5609 2.21171 13.4971 2.30665 13.4162 2.3859L5.81894 10.6889C5.74217 10.7739 5.64863 10.8421 5.54421 10.8892C5.43979 10.9364 5.32673 10.9615 5.21215 10.9629H5.20384Z" fill="#39D02B"/>
</svg>
