<svg width="19" height="19" viewBox="0 0 19 19" fill="none" xmlns="http://www.w3.org/2000/svg">
<path d="M11.9551 3.95958C12.6769 4.47576 13.2206 5.20506 13.5105 6.046C14.1567 6.12649 14.7685 6.38384 15.2789 6.78991C15.7893 7.19599 16.1787 7.73517 16.4046 8.34849C16.6304 8.96181 16.684 9.62568 16.5594 10.2675C16.4349 10.9093 16.137 11.5044 15.6983 11.9877C15.6318 12.0638 15.5498 12.1248 15.458 12.1666C15.3661 12.2084 15.2664 12.2301 15.1656 12.2303C14.9929 12.23 14.8262 12.1666 14.6967 12.0519C14.6258 11.99 14.5678 11.9145 14.5262 11.8298C14.4845 11.7452 14.46 11.6531 14.4541 11.5589C14.4481 11.4647 14.4609 11.3702 14.4915 11.281C14.5222 11.1917 14.5702 11.1095 14.6328 11.0391C14.9076 10.7305 15.0874 10.3486 15.1505 9.93951C15.2135 9.53043 15.157 9.11179 14.9878 8.73431C14.8186 8.35683 14.5441 8.03672 14.1974 7.81278C13.8507 7.58883 13.4468 7.47066 13.0346 7.47258H12.9919C12.8257 7.47595 12.6637 7.42069 12.5339 7.31642C12.4041 7.21216 12.3148 7.06549 12.2816 6.90195C12.1512 6.25697 11.8027 5.67709 11.2952 5.26059C10.7877 4.84408 10.1525 4.61655 9.49705 4.61655C8.84163 4.61655 8.20637 4.84408 7.69889 5.26059C7.19142 5.67709 6.84294 6.25697 6.71252 6.90195C6.67931 7.06549 6.59004 7.21216 6.46024 7.31642C6.33045 7.42069 6.16836 7.47595 6.00217 7.47258H5.93114C5.51892 7.47066 5.11499 7.58883 4.76831 7.81278C4.42162 8.03672 4.14706 8.35683 3.9779 8.73431C3.80873 9.11179 3.75223 9.53043 3.81524 9.93951C3.87824 10.3486 4.05805 10.7305 4.33287 11.0391C4.41394 11.1052 4.47949 11.1884 4.52487 11.2828C4.57025 11.3773 4.59433 11.4806 4.5954 11.5855C4.59647 11.6903 4.57451 11.7941 4.53107 11.8895C4.48763 11.9848 4.42379 12.0694 4.3441 12.1372C4.2644 12.2049 4.1708 12.2542 4.06998 12.2815C3.96915 12.3088 3.86357 12.3134 3.76076 12.2951C3.65794 12.2767 3.56042 12.2358 3.47514 12.1753C3.38986 12.1148 3.31892 12.0361 3.26736 11.9449C2.84055 11.4608 2.55283 10.8693 2.43499 10.2336C2.31714 9.59796 2.37361 8.94208 2.59834 8.33616C2.82307 7.73024 3.20761 7.19706 3.71083 6.79366C4.21405 6.39027 4.81701 6.13183 5.45521 6.046C5.74506 5.20506 6.28875 4.47576 7.01062 3.95958C7.73249 3.4434 8.59665 3.16602 9.48285 3.16602C10.369 3.16602 11.2332 3.4434 11.9551 3.95958Z" fill="white"/>
<path d="M9.21425 8.47812V10.0119C9.21425 10.0211 9.21399 10.0302 9.21348 10.0393V14.7177C9.21348 14.9846 9.00294 15.2011 8.74322 15.2011C8.4835 15.2011 8.27296 14.9846 8.27296 14.7177V10.9252L7.39511 11.5442C6.98359 11.8344 6.47949 11.339 6.74308 10.9034L8.36209 8.22794C8.6069 7.82337 9.21425 8.00168 9.21425 8.47812Z" fill="white"/>
<path d="M9.78127 15.3582V13.8244C9.78127 13.8152 9.78153 13.8061 9.78204 13.7969V9.1186C9.78204 8.85164 9.99258 8.63523 10.2523 8.63523C10.512 8.63523 10.7226 8.85164 10.7226 9.1186V12.9111L11.6004 12.2921C12.0119 12.0018 12.516 12.4972 12.2524 12.9328L10.6334 15.6083C10.3886 16.0129 9.78127 15.8346 9.78127 15.3582Z" fill="white"/>
</svg>
