<svg width="20" height="21" viewBox="0 0 20 21" fill="none" xmlns="http://www.w3.org/2000/svg">
<g clip-path="url(#clip0)">
<path d="M18.3332 6.01367H1.6665V7.29557H18.3332V6.01367Z" fill="#F5F5F5"/>
<path d="M17.4628 3.44922H2.53672C2.2207 3.81992 1.97751 4.25459 1.82959 4.73128H18.1699C18.022 4.25459 17.7788 3.81992 17.4628 3.44922Z" fill="#F5F5F5"/>
<path d="M18.3332 8.57715H1.6665V9.85905H18.3332V8.57715Z" fill="#F5F5F5"/>
<path d="M18.3332 11.1416H1.6665V12.4235H18.3332V11.1416Z" fill="#F5F5F5"/>
<path d="M18.3332 13.7051H1.6665V14.987H18.3332V13.7051Z" fill="#F5F5F5"/>
<path d="M18.1699 16.2695H1.82959C1.97747 16.7462 2.2207 17.1809 2.53672 17.5516H17.4627C17.7788 17.1809 18.022 16.7462 18.1699 16.2695Z" fill="#F5F5F5"/>
<path d="M14.6871 2.16699H5.31214C4.20055 2.16699 3.20534 2.66462 2.53662 3.44906H17.4626C16.7939 2.66462 15.7987 2.16699 14.6871 2.16699Z" fill="#FF4B55"/>
<path d="M18.3332 7.29492H1.6665V8.57682H18.3332V7.29492Z" fill="#FF4B55"/>
<path d="M18.3332 5.81315C18.3332 5.43649 18.276 5.07321 18.17 4.73145H1.82969C1.72363 5.07321 1.6665 5.43649 1.6665 5.81315V6.01348H18.3332V5.81315Z" fill="#FF4B55"/>
<path d="M18.3332 9.85938H1.6665V11.1413H18.3332V9.85938Z" fill="#FF4B55"/>
<path d="M18.3332 15.1876V14.9873H1.6665V15.1876C1.6665 15.5643 1.72363 15.9276 1.82969 16.2694H18.17C18.276 15.9276 18.3332 15.5643 18.3332 15.1876Z" fill="#FF4B55"/>
<path d="M17.4627 17.5518H2.53662C3.20534 18.3362 4.20055 18.8338 5.31214 18.8338H14.6871C15.7987 18.8338 16.7939 18.3362 17.4627 17.5518Z" fill="#FF4B55"/>
<path d="M18.3332 12.4238H1.6665V13.7057H18.3332V12.4238Z" fill="#FF4B55"/>
<path d="M10.6409 2.16699H5.31234C3.2988 2.16699 1.6665 3.79928 1.6665 5.81283V11.1413H10.6409V2.16699Z" fill="#41479B"/>
<path d="M2.63476 3.56842C2.62623 3.59541 2.65693 3.61774 2.67997 3.60127L2.85781 3.47419L3.03564 3.60127C3.05865 3.61774 3.08938 3.59541 3.08085 3.56842L3.01493 3.36003L3.19078 3.23018C3.21353 3.21335 3.20182 3.17725 3.1735 3.17702L2.95494 3.17533L2.91764 3.06348C2.82395 3.14515 2.7346 3.23161 2.64973 3.32233L2.70074 3.36003L2.63476 3.56842Z" fill="#F5F5F5"/>
<path d="M2.88567 4.69788L2.95481 4.90523L3.17337 4.90693C3.20166 4.90715 3.21341 4.94325 3.19065 4.96008L3.01481 5.08993L3.08073 5.29833C3.08925 5.32532 3.05856 5.34762 3.03551 5.33118L2.85768 5.20406L2.67985 5.33118C2.65683 5.34765 2.6261 5.32532 2.63463 5.29833L2.70055 5.08993L2.5247 4.96008C2.50195 4.94329 2.51367 4.90715 2.54196 4.90693L2.76051 4.90523L2.82965 4.69788C2.83873 4.67102 2.87672 4.67102 2.88567 4.69788Z" fill="#F5F5F5"/>
<path d="M2.88567 6.61682L2.95481 6.82418L3.17337 6.82587C3.20166 6.8261 3.21341 6.8622 3.19065 6.87903L3.01481 7.00888L3.08073 7.21728C3.08925 7.24426 3.05856 7.26656 3.03551 7.25012L2.85768 7.12304L2.67985 7.25012C2.65683 7.26656 2.6261 7.24426 2.63463 7.21728L2.70055 7.00888L2.5247 6.87903C2.50195 6.86223 2.51367 6.8261 2.54196 6.82587L2.76051 6.82418L2.82965 6.61682C2.83873 6.58997 2.87672 6.58997 2.88567 6.61682Z" fill="#F5F5F5"/>
<path d="M2.88567 8.37952L2.95481 8.58687L3.17337 8.58856C3.20166 8.58879 3.21341 8.62489 3.19065 8.64172L3.01481 8.77157L3.08073 8.97997C3.08925 9.00696 3.05856 9.02925 3.03551 9.01281L2.85768 8.8857L2.67985 9.01281C2.65683 9.02925 2.6261 9.00696 2.63463 8.97997L2.70055 8.77157L2.5247 8.64172C2.50195 8.62493 2.51367 8.58879 2.54196 8.58856L2.76051 8.58687L2.82965 8.37952C2.83873 8.35266 2.87672 8.35266 2.88567 8.37952Z" fill="#F5F5F5"/>
<path d="M2.88567 9.98303L2.95481 10.1904L3.17337 10.1921C3.20166 10.1923 3.21341 10.2284 3.19065 10.2452L3.01481 10.3751L3.08073 10.5835C3.08925 10.6105 3.05856 10.6328 3.03551 10.6163L2.85768 10.4892L2.67985 10.6163C2.65683 10.6328 2.6261 10.6105 2.63463 10.5835L2.70055 10.3751L2.5247 10.2452C2.50195 10.2284 2.51367 10.1923 2.54196 10.1921L2.76051 10.1904L2.82965 9.98303C2.83873 9.95618 2.87672 9.95618 2.88567 9.98303Z" fill="#F5F5F5"/>
<path d="M3.72737 3.78772L3.79651 3.99508L4.01507 3.99677C4.04336 3.997 4.05511 4.0331 4.03235 4.04989L3.85651 4.17975L3.92242 4.38814C3.93095 4.41513 3.90026 4.43746 3.87721 4.42099L3.69944 4.29387L3.52161 4.42099C3.4986 4.43746 3.46787 4.41513 3.4764 4.38814L3.54231 4.17975L3.3665 4.04989C3.34375 4.0331 3.35547 3.99696 3.38375 3.99677L3.60231 3.99508L3.67145 3.78772C3.68043 3.76086 3.71842 3.76086 3.72737 3.78772Z" fill="#F5F5F5"/>
<path d="M3.72744 5.70569L3.79658 5.91305L4.01513 5.91474C4.04342 5.91497 4.05517 5.95107 4.03242 5.9679L3.85657 6.09775L3.92249 6.30615C3.93102 6.33313 3.90032 6.35546 3.87727 6.33899L3.69944 6.21187L3.52161 6.33899C3.4986 6.35546 3.46787 6.33313 3.4764 6.30615L3.54231 6.09775L3.3665 5.9679C3.34375 5.9511 3.35547 5.91497 3.38375 5.91474L3.60231 5.91305L3.67145 5.70569C3.6805 5.67883 3.71849 5.67883 3.72744 5.70569Z" fill="#F5F5F5"/>
<path d="M3.72744 7.52891L3.79658 7.73626L4.01513 7.73796C4.04342 7.73818 4.05517 7.77428 4.03242 7.79111L3.85657 7.92096L3.92249 8.12936C3.93102 8.15635 3.90032 8.17865 3.87727 8.16221L3.69944 8.03509L3.52161 8.16221C3.4986 8.17868 3.46787 8.15635 3.4764 8.12936L3.54231 7.92096L3.3665 7.79111C3.34375 7.77432 3.35547 7.73818 3.38375 7.73796L3.60231 7.73626L3.67145 7.52891C3.6805 7.50208 3.71849 7.50208 3.72744 7.52891Z" fill="#F5F5F5"/>
<path d="M3.72744 9.16565L3.79658 9.373L4.01513 9.3747C4.04342 9.37493 4.05517 9.41103 4.03242 9.42786L3.85657 9.5577L3.92249 9.7661C3.93102 9.79309 3.90032 9.81542 3.87727 9.79895L3.69944 9.67186L3.52161 9.79895C3.4986 9.81542 3.46787 9.79309 3.4764 9.7661L3.54231 9.5577L3.3665 9.42786C3.34375 9.41106 3.35547 9.37493 3.38375 9.3747L3.60231 9.373L3.67145 9.16565C3.6805 9.13879 3.71849 9.13879 3.72744 9.16565Z" fill="#F5F5F5"/>
<path d="M4.56972 2.96836L4.63886 3.17572L4.85742 3.17741C4.88571 3.17764 4.89746 3.21374 4.8747 3.23053L4.69886 3.36038L4.76478 3.56878C4.7733 3.59577 4.74261 3.61807 4.71956 3.60163L4.54173 3.47451L4.3639 3.60163C4.34088 3.6181 4.31015 3.59577 4.31868 3.56878L4.3846 3.36038L4.20879 3.23053C4.18603 3.21374 4.19775 3.1776 4.22604 3.17741L4.44459 3.17572L4.51373 2.96836C4.52278 2.94154 4.56077 2.94154 4.56972 2.96836Z" fill="#F5F5F5"/>
<path d="M4.56972 4.69788L4.63886 4.90523L4.85742 4.90693C4.88571 4.90715 4.89746 4.94325 4.8747 4.96008L4.69886 5.08993L4.76478 5.29833C4.7733 5.32532 4.74261 5.34762 4.71956 5.33118L4.54173 5.20406L4.3639 5.33118C4.34088 5.34765 4.31015 5.32532 4.31868 5.29833L4.3846 5.08993L4.20879 4.96008C4.18603 4.94329 4.19775 4.90715 4.22604 4.90693L4.44459 4.90523L4.51373 4.69788C4.52278 4.67102 4.56077 4.67102 4.56972 4.69788Z" fill="#F5F5F5"/>
<path d="M4.56972 6.61682L4.63886 6.82418L4.85742 6.82587C4.88571 6.8261 4.89746 6.8622 4.8747 6.87903L4.69886 7.00888L4.76478 7.21728C4.7733 7.24426 4.74261 7.26656 4.71956 7.25012L4.54173 7.12304L4.3639 7.25012C4.34088 7.26656 4.31015 7.24426 4.31868 7.21728L4.3846 7.00888L4.20879 6.87903C4.18603 6.86223 4.19775 6.8261 4.22604 6.82587L4.44459 6.82418L4.51373 6.61682C4.52278 6.58997 4.56077 6.58997 4.56972 6.61682Z" fill="#F5F5F5"/>
<path d="M4.56972 8.37952L4.63886 8.58687L4.85742 8.58856C4.88571 8.58879 4.89746 8.62489 4.8747 8.64172L4.69886 8.77157L4.76478 8.97997C4.7733 9.00696 4.74261 9.02925 4.71956 9.01281L4.54173 8.8857L4.3639 9.01281C4.34088 9.02925 4.31015 9.00696 4.31868 8.97997L4.3846 8.77157L4.20879 8.64172C4.18603 8.62493 4.19775 8.58879 4.22604 8.58856L4.44459 8.58687L4.51373 8.37952C4.52278 8.35266 4.56077 8.35266 4.56972 8.37952Z" fill="#F5F5F5"/>
<path d="M4.56972 9.98303L4.63886 10.1904L4.85742 10.1921C4.88571 10.1923 4.89746 10.2284 4.8747 10.2452L4.69886 10.3751L4.76478 10.5835C4.7733 10.6105 4.74261 10.6328 4.71956 10.6163L4.54173 10.4892L4.3639 10.6163C4.34088 10.6328 4.31015 10.6105 4.31868 10.5835L4.3846 10.3751L4.20879 10.2452C4.18603 10.2284 4.19775 10.1923 4.22604 10.1921L4.44459 10.1904L4.51373 9.98303C4.52278 9.95618 4.56077 9.95618 4.56972 9.98303Z" fill="#F5F5F5"/>
<path d="M5.41155 3.78772L5.48069 3.99508L5.69925 3.99677C5.72753 3.997 5.73929 4.0331 5.7165 4.04989L5.54069 4.17975L5.6066 4.38814C5.61513 4.41513 5.58444 4.43746 5.56139 4.42099L5.38356 4.29387L5.20572 4.42099C5.18271 4.43746 5.15198 4.41513 5.16051 4.38814L5.22643 4.17975L5.05058 4.04989C5.02783 4.0331 5.03955 3.99696 5.06787 3.99677L5.28642 3.99508L5.35556 3.78772C5.36464 3.76086 5.4026 3.76086 5.41155 3.78772Z" fill="#F5F5F5"/>
<path d="M5.41155 5.70569L5.48069 5.91305L5.69925 5.91474C5.72753 5.91497 5.73929 5.95107 5.7165 5.9679L5.54069 6.09775L5.6066 6.30615C5.61513 6.33313 5.58444 6.35546 5.56139 6.33899L5.38356 6.21187L5.20572 6.33899C5.18271 6.35546 5.15198 6.33313 5.16051 6.30615L5.22643 6.09775L5.05058 5.9679C5.02783 5.9511 5.03955 5.91497 5.06787 5.91474L5.28642 5.91305L5.35556 5.70569C5.36464 5.67883 5.4026 5.67883 5.41155 5.70569Z" fill="#F5F5F5"/>
<path d="M5.41155 7.52891L5.48069 7.73626L5.69925 7.73796C5.72753 7.73818 5.73929 7.77428 5.7165 7.79111L5.54069 7.92096L5.6066 8.12936C5.61513 8.15635 5.58444 8.17865 5.56139 8.16221L5.38356 8.03509L5.20572 8.16221C5.18271 8.17868 5.15198 8.15635 5.16051 8.12936L5.22643 7.92096L5.05058 7.79111C5.02783 7.77432 5.03955 7.73818 5.06787 7.73796L5.28642 7.73626L5.35556 7.52891C5.36464 7.50208 5.4026 7.50208 5.41155 7.52891Z" fill="#F5F5F5"/>
<path d="M5.41155 9.16565L5.48069 9.373L5.69925 9.3747C5.72753 9.37493 5.73929 9.41103 5.7165 9.42786L5.54069 9.5577L5.6066 9.7661C5.61513 9.79309 5.58444 9.81542 5.56139 9.79895L5.38356 9.67186L5.20572 9.79895C5.18271 9.81542 5.15198 9.79309 5.16051 9.7661L5.22643 9.5577L5.05058 9.42786C5.02783 9.41106 5.03955 9.37493 5.06787 9.3747L5.28642 9.373L5.35556 9.16565C5.36464 9.13879 5.4026 9.13879 5.41155 9.16565Z" fill="#F5F5F5"/>
<path d="M6.25332 2.96836L6.32246 3.17572L6.54101 3.17741C6.5693 3.17764 6.58105 3.21374 6.55827 3.23053L6.38245 3.36038L6.44837 3.56878C6.4569 3.59577 6.4262 3.61807 6.40315 3.60163L6.22532 3.47451L6.04749 3.60163C6.02447 3.6181 5.99375 3.59577 6.00227 3.56878L6.06819 3.36038L5.89238 3.23053C5.86962 3.21374 5.88134 3.1776 5.90966 3.17741L6.12822 3.17572L6.19736 2.96836C6.20641 2.94154 6.24436 2.94154 6.25332 2.96836Z" fill="#F5F5F5"/>
<path d="M6.25328 4.69788L6.32242 4.90524L6.54098 4.90693C6.56927 4.90716 6.58102 4.94326 6.55823 4.96009L6.38242 5.08994L6.44837 5.2983C6.4569 5.32529 6.4262 5.34759 6.40315 5.33115L6.22532 5.20403L6.04749 5.33115C6.02447 5.34762 5.99375 5.32529 6.00227 5.2983L6.06819 5.08991L5.89238 4.96006C5.86962 4.94326 5.88134 4.90713 5.90966 4.9069L6.12822 4.9052L6.19736 4.69785C6.20638 4.67102 6.24433 4.67102 6.25328 4.69788Z" fill="#F5F5F5"/>
<path d="M6.25332 6.61682L6.32246 6.82418L6.54101 6.82587C6.5693 6.8261 6.58105 6.8622 6.55827 6.87903L6.38245 7.00888L6.44837 7.21728C6.4569 7.24426 6.4262 7.26656 6.40315 7.25012L6.22532 7.12304L6.04749 7.25012C6.02447 7.26656 5.99375 7.24426 6.00227 7.21728L6.06819 7.00888L5.89238 6.87903C5.86962 6.86223 5.88134 6.8261 5.90966 6.82587L6.12822 6.82418L6.19736 6.61682C6.20641 6.58997 6.24436 6.58997 6.25332 6.61682Z" fill="#F5F5F5"/>
<path d="M6.25332 8.37952L6.32246 8.58687L6.54101 8.58856C6.5693 8.58879 6.58105 8.62489 6.55827 8.64172L6.38245 8.77157L6.44837 8.97997C6.4569 9.00696 6.4262 9.02925 6.40315 9.01281L6.22532 8.8857L6.04749 9.01281C6.02447 9.02925 5.99375 9.00696 6.00227 8.97997L6.06819 8.77157L5.89238 8.64172C5.86962 8.62493 5.88134 8.58879 5.90966 8.58856L6.12822 8.58687L6.19736 8.37952C6.20641 8.35266 6.24436 8.35266 6.25332 8.37952Z" fill="#F5F5F5"/>
<path d="M6.25332 9.98303L6.32246 10.1904L6.54101 10.1921C6.5693 10.1923 6.58105 10.2284 6.55827 10.2452L6.38245 10.3751L6.44837 10.5835C6.4569 10.6105 6.4262 10.6328 6.40315 10.6163L6.22532 10.4892L6.04749 10.6163C6.02447 10.6328 5.99375 10.6105 6.00227 10.5835L6.06819 10.3751L5.89238 10.2452C5.86962 10.2284 5.88134 10.1923 5.90966 10.1921L6.12822 10.1904L6.19736 9.98303C6.20641 9.95618 6.24436 9.95618 6.25332 9.98303Z" fill="#F5F5F5"/>
<path d="M7.09515 3.78772L7.16429 3.99508L7.38284 3.99677C7.41113 3.997 7.42288 4.0331 7.40009 4.04989L7.22425 4.17975L7.29017 4.38814C7.29869 4.41513 7.26797 4.43746 7.24495 4.42099L7.06712 4.29387L6.88929 4.42099C6.86627 4.43746 6.83554 4.41513 6.84407 4.38814L6.90999 4.17975L6.73418 4.04989C6.71142 4.0331 6.72314 3.99696 6.75143 3.99677L6.96998 3.99508L7.03912 3.78772C7.04824 3.76086 7.08619 3.76086 7.09515 3.78772Z" fill="#F5F5F5"/>
<path d="M7.09515 5.70569L7.16429 5.91305L7.38284 5.91474C7.41113 5.91497 7.42288 5.95107 7.40009 5.9679L7.22425 6.09775L7.29017 6.30615C7.29869 6.33313 7.26797 6.35546 7.24495 6.33899L7.06712 6.21187L6.88929 6.33899C6.86627 6.35546 6.83554 6.33313 6.84407 6.30615L6.90999 6.09775L6.73418 5.9679C6.71142 5.9511 6.72314 5.91497 6.75143 5.91474L6.96998 5.91305L7.03912 5.70569C7.04824 5.67883 7.08619 5.67883 7.09515 5.70569Z" fill="#F5F5F5"/>
<path d="M7.09515 7.52891L7.16429 7.73626L7.38284 7.73796C7.41113 7.73818 7.42288 7.77428 7.40009 7.79111L7.22425 7.92096L7.29017 8.12936C7.29869 8.15635 7.26797 8.17865 7.24495 8.16221L7.06712 8.03509L6.88929 8.16221C6.86627 8.17868 6.83554 8.15635 6.84407 8.12936L6.90999 7.92096L6.73418 7.79111C6.71142 7.77432 6.72314 7.73818 6.75143 7.73796L6.96998 7.73626L7.03912 7.52891C7.04824 7.50208 7.08619 7.50208 7.09515 7.52891Z" fill="#F5F5F5"/>
<path d="M7.09515 9.16565L7.16429 9.373L7.38284 9.3747C7.41113 9.37493 7.42288 9.41103 7.40009 9.42786L7.22425 9.5577L7.29017 9.7661C7.29869 9.79309 7.26797 9.81542 7.24495 9.79895L7.06712 9.67186L6.88929 9.79895C6.86627 9.81542 6.83554 9.79309 6.84407 9.7661L6.90999 9.5577L6.73418 9.42786C6.71142 9.41106 6.72314 9.37493 6.75143 9.3747L6.96998 9.373L7.03912 9.16565C7.04824 9.13879 7.08619 9.13879 7.09515 9.16565Z" fill="#F5F5F5"/>
<path d="M7.93697 2.96836L8.00612 3.17572L8.22467 3.17741C8.25296 3.17764 8.26471 3.21374 8.24192 3.23053L8.06608 3.36038L8.13199 3.56878C8.14052 3.59577 8.10979 3.61807 8.08678 3.60163L7.90895 3.47451L7.73112 3.60163C7.7081 3.6181 7.67737 3.59577 7.6859 3.56878L7.75182 3.36038L7.57597 3.23053C7.55322 3.21374 7.56494 3.1776 7.59326 3.17741L7.81181 3.17572L7.88095 2.96836C7.89007 2.94154 7.92802 2.94154 7.93697 2.96836Z" fill="#F5F5F5"/>
<path d="M7.93697 4.69788L8.00612 4.90523L8.22467 4.90693C8.25296 4.90715 8.26471 4.94325 8.24192 4.96008L8.06608 5.08993L8.13199 5.29833C8.14052 5.32532 8.10979 5.34762 8.08678 5.33118L7.90895 5.20406L7.73112 5.33118C7.7081 5.34765 7.67737 5.32532 7.6859 5.29833L7.75182 5.08993L7.57597 4.96008C7.55322 4.94329 7.56494 4.90715 7.59326 4.90693L7.81181 4.90523L7.88095 4.69788C7.89007 4.67102 7.92802 4.67102 7.93697 4.69788Z" fill="#F5F5F5"/>
<path d="M7.93697 6.61682L8.00612 6.82418L8.22467 6.82587C8.25296 6.8261 8.26471 6.8622 8.24192 6.87903L8.06608 7.00888L8.13199 7.21728C8.14052 7.24426 8.10979 7.26656 8.08678 7.25012L7.90895 7.12304L7.73112 7.25012C7.7081 7.26656 7.67737 7.24426 7.6859 7.21728L7.75182 7.00888L7.57597 6.87903C7.55322 6.86223 7.56494 6.8261 7.59326 6.82587L7.81181 6.82418L7.88095 6.61682C7.89007 6.58997 7.92802 6.58997 7.93697 6.61682Z" fill="#F5F5F5"/>
<path d="M7.93697 8.37952L8.00612 8.58687L8.22467 8.58856C8.25296 8.58879 8.26471 8.62489 8.24192 8.64172L8.06608 8.77157L8.13199 8.97997C8.14052 9.00696 8.10979 9.02925 8.08678 9.01281L7.90895 8.8857L7.73112 9.01281C7.7081 9.02925 7.67737 9.00696 7.6859 8.97997L7.75182 8.77157L7.57597 8.64172C7.55322 8.62493 7.56494 8.58879 7.59326 8.58856L7.81181 8.58687L7.88095 8.37952C7.89007 8.35266 7.92802 8.35266 7.93697 8.37952Z" fill="#F5F5F5"/>
<path d="M7.93697 9.98303L8.00612 10.1904L8.22467 10.1921C8.25296 10.1923 8.26471 10.2284 8.24192 10.2452L8.06608 10.3751L8.13199 10.5835C8.14052 10.6105 8.10979 10.6328 8.08678 10.6163L7.90895 10.4892L7.73112 10.6163C7.7081 10.6328 7.67737 10.6105 7.6859 10.5835L7.75182 10.3751L7.57597 10.2452C7.55322 10.2284 7.56494 10.1923 7.59326 10.1921L7.81181 10.1904L7.88095 9.98303C7.89007 9.95618 7.92802 9.95618 7.93697 9.98303Z" fill="#F5F5F5"/>
<path d="M8.77874 3.78772L8.84788 3.99508L9.06647 3.99677C9.09476 3.997 9.10651 4.0331 9.08372 4.04989L8.90788 4.17975L8.97379 4.38814C8.98232 4.41513 8.95159 4.43746 8.92858 4.42099L8.75075 4.29387L8.57291 4.42099C8.5499 4.43746 8.51917 4.41513 8.5277 4.38814L8.59362 4.17975L8.41777 4.04989C8.39502 4.0331 8.40673 3.99696 8.43502 3.99677L8.65361 3.99508L8.72275 3.78772C8.73183 3.76086 8.76979 3.76086 8.77874 3.78772Z" fill="#F5F5F5"/>
<path d="M8.77874 5.70569L8.84788 5.91305L9.06647 5.91474C9.09476 5.91497 9.10651 5.95107 9.08372 5.9679L8.90788 6.09775L8.97379 6.30615C8.98232 6.33313 8.95159 6.35546 8.92858 6.33899L8.75075 6.21187L8.57291 6.33899C8.5499 6.35546 8.51917 6.33313 8.5277 6.30615L8.59362 6.09775L8.41777 5.9679C8.39502 5.9511 8.40673 5.91497 8.43502 5.91474L8.65361 5.91305L8.72275 5.70569C8.73183 5.67883 8.76979 5.67883 8.77874 5.70569Z" fill="#F5F5F5"/>
<path d="M8.77874 7.52891L8.84788 7.73626L9.06647 7.73796C9.09476 7.73818 9.10651 7.77428 9.08372 7.79111L8.90788 7.92096L8.97379 8.12936C8.98232 8.15635 8.95159 8.17865 8.92858 8.16221L8.75075 8.03509L8.57291 8.16221C8.5499 8.17868 8.51917 8.15635 8.5277 8.12936L8.59362 7.92096L8.41777 7.79111C8.39502 7.77432 8.40673 7.73818 8.43502 7.73796L8.65361 7.73626L8.72275 7.52891C8.73183 7.50208 8.76979 7.50208 8.77874 7.52891Z" fill="#F5F5F5"/>
<path d="M8.77874 9.16565L8.84788 9.373L9.06647 9.3747C9.09476 9.37493 9.10651 9.41103 9.08372 9.42786L8.90788 9.5577L8.97379 9.7661C8.98232 9.79309 8.95159 9.81542 8.92858 9.79895L8.75075 9.67186L8.57291 9.79895C8.5499 9.81542 8.51917 9.79309 8.5277 9.7661L8.59362 9.5577L8.41777 9.42786C8.39502 9.41106 8.40673 9.37493 8.43502 9.3747L8.65361 9.373L8.72275 9.16565C8.73183 9.13879 8.76979 9.13879 8.77874 9.16565Z" fill="#F5F5F5"/>
<path d="M9.62102 2.96836L9.69016 3.17572L9.90872 3.17741C9.93701 3.17764 9.94876 3.21374 9.926 3.23053L9.75016 3.36038L9.81608 3.56878C9.8246 3.59577 9.79387 3.61807 9.77086 3.60163L9.59303 3.47451L9.4152 3.60163C9.39218 3.6181 9.36145 3.59577 9.36998 3.56878L9.4359 3.36038L9.26006 3.23053C9.2373 3.21374 9.24902 3.1776 9.27731 3.17741L9.49586 3.17572L9.565 2.96836C9.57412 2.94154 9.61207 2.94154 9.62102 2.96836Z" fill="#F5F5F5"/>
<path d="M9.62102 4.69788L9.69016 4.90523L9.90872 4.90693C9.93701 4.90715 9.94876 4.94325 9.926 4.96008L9.75016 5.08993L9.81608 5.29833C9.8246 5.32532 9.79387 5.34762 9.77086 5.33118L9.59303 5.20406L9.4152 5.33118C9.39218 5.34765 9.36145 5.32532 9.36998 5.29833L9.4359 5.08993L9.26006 4.96008C9.2373 4.94329 9.24902 4.90715 9.27731 4.90693L9.49586 4.90523L9.565 4.69788C9.57412 4.67102 9.61207 4.67102 9.62102 4.69788Z" fill="#F5F5F5"/>
<path d="M9.62102 6.61682L9.69016 6.82418L9.90872 6.82587C9.93701 6.8261 9.94876 6.8622 9.926 6.87903L9.75016 7.00888L9.81608 7.21728C9.8246 7.24426 9.79387 7.26656 9.77086 7.25012L9.59303 7.12304L9.4152 7.25012C9.39218 7.26656 9.36145 7.24426 9.36998 7.21728L9.4359 7.00888L9.26006 6.87903C9.2373 6.86223 9.24902 6.8261 9.27731 6.82587L9.49586 6.82418L9.565 6.61682C9.57412 6.58997 9.61207 6.58997 9.62102 6.61682Z" fill="#F5F5F5"/>
<path d="M9.62102 8.37952L9.69016 8.58687L9.90872 8.58856C9.93701 8.58879 9.94876 8.62489 9.926 8.64172L9.75016 8.77157L9.81608 8.97997C9.8246 9.00696 9.79387 9.02925 9.77086 9.01281L9.59303 8.8857L9.4152 9.01281C9.39218 9.02925 9.36145 9.00696 9.36998 8.97997L9.4359 8.77157L9.26006 8.64172C9.2373 8.62493 9.24902 8.58879 9.27731 8.58856L9.49586 8.58687L9.565 8.37952C9.57412 8.35266 9.61207 8.35266 9.62102 8.37952Z" fill="#F5F5F5"/>
<path d="M9.62102 9.98303L9.69016 10.1904L9.90872 10.1921C9.93701 10.1923 9.94876 10.2284 9.926 10.2452L9.75016 10.3751L9.81608 10.5835C9.8246 10.6105 9.79387 10.6328 9.77086 10.6163L9.59303 10.4892L9.4152 10.6163C9.39218 10.6328 9.36145 10.6105 9.36998 10.5835L9.4359 10.3751L9.26006 10.2452C9.2373 10.2284 9.24902 10.1923 9.27731 10.1921L9.49586 10.1904L9.565 9.98303C9.57412 9.95618 9.61207 9.95618 9.62102 9.98303Z" fill="#F5F5F5"/>
</g>
<defs>
<clipPath id="clip0">
<rect width="16.6667" height="16.6667" fill="white" transform="translate(1.6665 2.16699)"/>
</clipPath>
</defs>
</svg>
