<svg width="21" height="18" viewBox="0 0 21 18" fill="none" xmlns="http://www.w3.org/2000/svg">
<path d="M19.9044 13.3801L12.9082 1.77757C12.6253 1.33501 12.2356 0.970796 11.7749 0.71851C11.3142 0.466224 10.7974 0.333984 10.2721 0.333984C9.74686 0.333984 9.23006 0.466224 8.76937 0.71851C8.30867 0.970796 7.91891 1.33501 7.63601 1.77757L0.639855 13.3801C0.392713 13.792 0.258386 14.2618 0.25038 14.7422C0.242374 15.2225 0.360971 15.6965 0.594248 16.1165C0.863951 16.5892 1.25433 16.9819 1.72549 17.2543C2.19665 17.5268 2.7317 17.6692 3.27596 17.6671H17.2683C17.8089 17.6729 18.3416 17.536 18.8124 17.2701C19.2833 17.0043 19.6756 16.6189 19.95 16.153C20.1901 15.7286 20.3125 15.2478 20.3045 14.7603C20.2965 14.2728 20.1583 13.7963 19.9044 13.3801ZM18.3537 15.25C18.2441 15.4384 18.085 15.5933 17.8937 15.6978C17.7023 15.8023 17.4861 15.8524 17.2683 15.8429H3.27596C3.05816 15.8524 2.84188 15.8023 2.65055 15.6978C2.45922 15.5933 2.30013 15.4384 2.1905 15.25C2.11045 15.1113 2.0683 14.954 2.0683 14.7939C2.0683 14.6338 2.11045 14.4765 2.1905 14.3378L9.19578 2.7262C9.32166 2.55992 9.48435 2.42507 9.6711 2.33222C9.85784 2.23937 10.0636 2.19105 10.2721 2.19105C10.4807 2.19105 10.6864 2.23937 10.8731 2.33222C11.0599 2.42507 11.2226 2.55992 11.3484 2.7262L18.3446 14.3287C18.4277 14.4676 18.4724 14.6262 18.474 14.7881C18.4756 14.95 18.4341 15.1094 18.3537 15.25Z" fill="#FF443C"/>
<path d="M19.9044 13.3801L12.9082 1.77757C12.6253 1.33501 12.2356 0.970796 11.7749 0.71851C11.3142 0.466224 10.7974 0.333984 10.2721 0.333984C9.74686 0.333984 9.23006 0.466224 8.76937 0.71851C8.30867 0.970796 7.91891 1.33501 7.63601 1.77757L0.639855 13.3801C0.392713 13.792 0.258386 14.2618 0.25038 14.7422C0.242374 15.2225 0.360971 15.6965 0.594248 16.1165C0.863951 16.5892 1.25433 16.9819 1.72549 17.2543C2.19665 17.5268 2.7317 17.6692 3.27596 17.6671H17.2683C17.8089 17.6729 18.3416 17.536 18.8124 17.2701C19.2833 17.0043 19.6756 16.6189 19.95 16.153C20.1901 15.7286 20.3125 15.2478 20.3045 14.7603C20.2965 14.2728 20.1583 13.7963 19.9044 13.3801ZM18.3537 15.25C18.2441 15.4384 18.085 15.5933 17.8937 15.6978C17.7023 15.8023 17.4861 15.8524 17.2683 15.8429H3.27596C3.05816 15.8524 2.84188 15.8023 2.65055 15.6978C2.45922 15.5933 2.30013 15.4384 2.1905 15.25C2.11045 15.1113 2.0683 14.954 2.0683 14.7939C2.0683 14.6338 2.11045 14.4765 2.1905 14.3378L9.19578 2.7262C9.32166 2.55992 9.48435 2.42507 9.6711 2.33222C9.85784 2.23937 10.0636 2.19105 10.2721 2.19105C10.4807 2.19105 10.6864 2.23937 10.8731 2.33222C11.0599 2.42507 11.2226 2.55992 11.3484 2.7262L18.3446 14.3287C18.4277 14.4676 18.4724 14.6262 18.474 14.7881C18.4756 14.95 18.4341 15.1094 18.3537 15.25Z" fill="black" fill-opacity="0.24"/>
<path d="M10.2721 14.0196C10.7759 14.0196 11.1843 13.6112 11.1843 13.1075C11.1843 12.6037 10.7759 12.1953 10.2721 12.1953C9.76837 12.1953 9.35999 12.6037 9.35999 13.1075C9.35999 13.6112 9.76837 14.0196 10.2721 14.0196Z" fill="#FF443C"/>
<path d="M10.2721 14.0196C10.7759 14.0196 11.1843 13.6112 11.1843 13.1075C11.1843 12.6037 10.7759 12.1953 10.2721 12.1953C9.76837 12.1953 9.35999 12.6037 9.35999 13.1075C9.35999 13.6112 9.76837 14.0196 10.2721 14.0196Z" fill="black" fill-opacity="0.24"/>
<path d="M10.2721 5.80859C10.0302 5.80859 9.79821 5.90469 9.62715 6.07576C9.45609 6.24682 9.35999 6.47882 9.35999 6.72074V10.3693C9.35999 10.6112 9.45609 10.8432 9.62715 11.0143C9.79821 11.1854 10.0302 11.2815 10.2721 11.2815C10.514 11.2815 10.7461 11.1854 10.9171 11.0143C11.0882 10.8432 11.1843 10.6112 11.1843 10.3693V6.72074C11.1843 6.47882 11.0882 6.24682 10.9171 6.07576C10.7461 5.90469 10.514 5.80859 10.2721 5.80859Z" fill="#FF443C"/>
<path d="M10.2721 5.80859C10.0302 5.80859 9.79821 5.90469 9.62715 6.07576C9.45609 6.24682 9.35999 6.47882 9.35999 6.72074V10.3693C9.35999 10.6112 9.45609 10.8432 9.62715 11.0143C9.79821 11.1854 10.0302 11.2815 10.2721 11.2815C10.514 11.2815 10.7461 11.1854 10.9171 11.0143C11.0882 10.8432 11.1843 10.6112 11.1843 10.3693V6.72074C11.1843 6.47882 11.0882 6.24682 10.9171 6.07576C10.7461 5.90469 10.514 5.80859 10.2721 5.80859Z" fill="black" fill-opacity="0.24"/>
</svg>
