<svg width="9" height="14" viewBox="0 0 9 14" fill="none" xmlns="http://www.w3.org/2000/svg">
<path d="M8.00143 7.01098C8.00195 7.24422 7.90895 7.47026 7.73857 7.64986L2.02429 13.6394C1.8303 13.8432 1.55155 13.9714 1.24934 13.9958C0.947143 14.0201 0.64625 13.9386 0.412859 13.7692C0.179469 13.5997 0.0326986 13.3562 0.00483602 13.0923C-0.0230265 12.8283 0.0703008 12.5655 0.264288 12.3616L5.38429 7.01098L0.447146 1.66034C0.352213 1.55824 0.28132 1.44074 0.238541 1.31463C0.195762 1.18851 0.18194 1.05625 0.197871 0.925448C0.213801 0.794649 0.259169 0.667889 0.331368 0.552454C0.403566 0.437019 0.501172 0.335186 0.618574 0.252808C0.736084 0.161387 0.873943 0.0921497 1.02351 0.0494318C1.17308 0.00671387 1.33114 -0.00856209 1.48778 0.00455856C1.64443 0.0176783 1.79628 0.0589123 1.93383 0.125678C2.07138 0.192445 2.19167 0.283305 2.28715 0.392564L7.80715 6.38208C7.95059 6.56684 8.019 6.78827 8.00143 7.01098Z" fill="#7C7C7C"/>
</svg>
