<svg width="14" height="11" viewBox="0 0 14 11" fill="none" xmlns="http://www.w3.org/2000/svg">
<path d="M5.20426 10.9629C5.09029 10.9625 4.97761 10.9387 4.87322 10.893C4.76884 10.8473 4.67498 10.7807 4.59748 10.6972L0.55777 6.40455C0.40676 6.2438 0.325865 6.02971 0.332879 5.80938C0.339894 5.58904 0.434244 5.38052 0.595174 5.22968C0.756104 5.07883 0.970431 4.99803 1.19101 5.00503C1.41158 5.01204 1.62033 5.10629 1.77134 5.26704L5.19595 8.91205L12.1865 1.2733C12.2574 1.18506 12.3457 1.11224 12.4458 1.0593C12.5459 1.00637 12.6559 0.974448 12.7688 0.965494C12.8818 0.956539 12.9953 0.970744 13.1026 1.00723C13.2098 1.04372 13.3085 1.10173 13.3925 1.17769C13.4765 1.25365 13.544 1.34596 13.591 1.44895C13.638 1.55193 13.6634 1.66343 13.6656 1.77658C13.6679 1.88973 13.647 2.00215 13.6042 2.10693C13.5614 2.21171 13.4975 2.30665 13.4167 2.3859L5.81936 10.6889C5.74259 10.7739 5.64906 10.8421 5.54464 10.8892C5.44022 10.9364 5.32716 10.9615 5.21257 10.9629H5.20426Z" fill="#39D02B"/>
<path d="M5.20426 10.9629C5.09029 10.9625 4.97761 10.9387 4.87322 10.893C4.76884 10.8473 4.67498 10.7807 4.59748 10.6972L0.55777 6.40455C0.40676 6.2438 0.325865 6.02971 0.332879 5.80938C0.339894 5.58904 0.434244 5.38052 0.595174 5.22968C0.756104 5.07883 0.970431 4.99803 1.19101 5.00503C1.41158 5.01204 1.62033 5.10629 1.77134 5.26704L5.19595 8.91205L12.1865 1.2733C12.2574 1.18506 12.3457 1.11224 12.4458 1.0593C12.5459 1.00637 12.6559 0.974448 12.7688 0.965494C12.8818 0.956539 12.9953 0.970744 13.1026 1.00723C13.2098 1.04372 13.3085 1.10173 13.3925 1.17769C13.4765 1.25365 13.544 1.34596 13.591 1.44895C13.638 1.55193 13.6634 1.66343 13.6656 1.77658C13.6679 1.88973 13.647 2.00215 13.6042 2.10693C13.5614 2.21171 13.4975 2.30665 13.4167 2.3859L5.81936 10.6889C5.74259 10.7739 5.64906 10.8421 5.54464 10.8892C5.44022 10.9364 5.32716 10.9615 5.21257 10.9629H5.20426Z" fill="black" fill-opacity="0.24"/>
</svg>
