<svg width="12" height="12" viewBox="0 0 12 12" fill="none" xmlns="http://www.w3.org/2000/svg">
<path d="M7.4087 5.9983L11.7045 1.71244C11.8927 1.52431 11.9984 1.26917 11.9984 1.00312C11.9984 0.737078 11.8927 0.48193 11.7045 0.293808C11.5164 0.105686 11.2613 0 10.9952 0C10.7292 0 10.474 0.105686 10.2859 0.293808L6.00006 4.58966L1.7142 0.293808C1.52608 0.105686 1.27093 -1.98219e-09 1.00489 0C0.738844 1.98219e-09 0.483696 0.105686 0.295574 0.293808C0.107452 0.48193 0.00176599 0.737078 0.00176599 1.00312C0.00176599 1.26917 0.107452 1.52431 0.295574 1.71244L4.59142 5.9983L0.295574 10.2842C0.201936 10.377 0.127614 10.4875 0.0768939 10.6093C0.0261743 10.731 6.10352e-05 10.8616 6.10352e-05 10.9935C6.10352e-05 11.1254 0.0261743 11.2559 0.0768939 11.3777C0.127614 11.4994 0.201936 11.6099 0.295574 11.7028C0.388447 11.7964 0.498941 11.8707 0.620683 11.9215C0.742424 11.9722 0.873004 11.9983 1.00489 11.9983C1.13677 11.9983 1.26735 11.9722 1.38909 11.9215C1.51084 11.8707 1.62133 11.7964 1.7142 11.7028L6.00006 7.40693L10.2859 11.7028C10.3788 11.7964 10.4893 11.8707 10.611 11.9215C10.7328 11.9722 10.8633 11.9983 10.9952 11.9983C11.1271 11.9983 11.2577 11.9722 11.3794 11.9215C11.5012 11.8707 11.6117 11.7964 11.7045 11.7028C11.7982 11.6099 11.8725 11.4994 11.9232 11.3777C11.9739 11.2559 12.0001 11.1254 12.0001 10.9935C12.0001 10.8616 11.9739 10.731 11.9232 10.6093C11.8725 10.4875 11.7982 10.377 11.7045 10.2842L7.4087 5.9983Z" fill="white"/>
</svg>
