<svg width="15" height="13" viewBox="0 0 15 13" fill="none" xmlns="http://www.w3.org/2000/svg">
<path d="M9.95507 0.960316C10.6769 1.4765 11.2206 2.20579 11.5105 3.04673C12.1567 3.12722 12.7685 3.38457 13.2789 3.79065C13.7893 4.19672 14.1787 4.7359 14.4046 5.34922C14.6304 5.96255 14.684 6.62641 14.5594 7.26824C14.4349 7.91008 14.137 8.50517 13.6983 8.98847C13.6318 9.06455 13.5498 9.12553 13.458 9.16735C13.3661 9.20917 13.2664 9.23086 13.1656 9.23099C12.9929 9.23074 12.8262 9.16735 12.6967 9.05266C12.6258 8.9907 12.5678 8.91521 12.5262 8.83058C12.4845 8.74595 12.46 8.65385 12.4541 8.55964C12.4481 8.46542 12.4609 8.37095 12.4915 8.28172C12.5222 8.19248 12.5702 8.11025 12.6328 8.03979C12.9076 7.73126 13.0874 7.34931 13.1505 6.94024C13.2135 6.53117 13.157 6.11252 12.9878 5.73504C12.8186 5.35756 12.5441 5.03745 12.1974 4.81351C11.8507 4.58956 11.4468 4.47139 11.0346 4.47332H10.9919C10.8257 4.47668 10.6637 4.42142 10.5339 4.31716C10.4041 4.21289 10.3148 4.06622 10.2816 3.90268C10.1512 3.2577 9.80269 2.67783 9.29521 2.26132C8.78774 1.84481 8.15247 1.61728 7.49705 1.61728C6.84163 1.61728 6.20637 1.84481 5.69889 2.26132C5.19142 2.67783 4.84294 3.2577 4.71252 3.90268C4.67931 4.06622 4.59004 4.21289 4.46024 4.31716C4.33045 4.42142 4.16836 4.47668 4.00217 4.47332H3.93114C3.51892 4.47139 3.11499 4.58956 2.76831 4.81351C2.42162 5.03745 2.14706 5.35756 1.9779 5.73504C1.80873 6.11252 1.75223 6.53117 1.81524 6.94024C1.87824 7.34931 2.05805 7.73126 2.33287 8.03979C2.41394 8.10589 2.47949 8.18912 2.52487 8.28357C2.57025 8.37801 2.59433 8.48134 2.5954 8.58619C2.59647 8.69105 2.57451 8.79485 2.53107 8.89021C2.48763 8.98557 2.42379 9.07014 2.3441 9.13789C2.2644 9.20565 2.1708 9.25493 2.06998 9.28222C1.96915 9.30951 1.86357 9.31415 1.76076 9.29579C1.65794 9.27744 1.56042 9.23655 1.47514 9.17603C1.38986 9.11551 1.31892 9.03686 1.26736 8.94567C0.840549 8.46154 0.552832 7.87001 0.434988 7.23435C0.317145 6.59869 0.373608 5.94282 0.598338 5.33689C0.823067 4.73097 1.20761 4.19779 1.71083 3.7944C2.21405 3.391 2.81701 3.13256 3.45521 3.04673C3.74506 2.20579 4.28875 1.4765 5.01062 0.960316C5.73249 0.444137 6.59665 0.166748 7.48285 0.166748C8.36904 0.166748 9.2332 0.444137 9.95507 0.960316Z" fill="white"/>
<path d="M7.21425 5.47886V7.01263C7.21425 7.02181 7.21399 7.03096 7.21348 7.04006V11.7184C7.21348 11.9854 7.00294 12.2018 6.74322 12.2018C6.4835 12.2018 6.27296 11.9854 6.27296 11.7184V7.92589L5.39511 8.54496C4.98359 8.83516 4.47949 8.33976 4.74308 7.90418L6.36209 5.22867C6.6069 4.8241 7.21425 5.00241 7.21425 5.47886Z" fill="white"/>
<path d="M7.78127 12.3589V10.8251C7.78127 10.8159 7.78153 10.8068 7.78204 10.7977V6.11933C7.78204 5.85237 7.99258 5.63596 8.2523 5.63596C8.51201 5.63596 8.72256 5.85237 8.72256 6.11933V9.91185L9.6004 9.29279C10.0119 9.00258 10.516 9.49798 10.2524 9.93357L8.63343 12.6091C8.38861 13.0136 7.78127 12.8353 7.78127 12.3589Z" fill="white"/>
</svg>
