<svg width="14" height="10" viewBox="0 0 14 10" fill="none" xmlns="http://www.w3.org/2000/svg">
<path d="M13.5771 4.33618C13.1506 3.59618 10.8048 -0.117156 6.81975 0.00284405C3.13454 0.0961774 1.00206 3.33618 0.422289 4.33618C0.3638 4.43752 0.333008 4.55249 0.333008 4.66951C0.333008 4.78653 0.3638 4.9015 0.422289 5.00284C0.842122 5.72951 3.0879 9.33618 7.013 9.33618H7.1796C10.8648 9.24284 13.004 6.00284 13.5771 5.00284C13.6355 4.9015 13.6663 4.78653 13.6663 4.66951C13.6663 4.55249 13.6355 4.43752 13.5771 4.33618ZM7.14628 8.00284C4.27409 8.06951 2.4015 5.60951 1.81507 4.66951C2.48147 3.59618 4.22078 1.40284 6.88639 1.33618C9.74525 1.26284 11.6245 3.72951 12.2176 4.66951C11.5312 5.74284 9.81189 7.93618 7.14628 8.00284Z" fill="white"/>
<path d="M6.9994 2.33594C6.53809 2.33594 6.08715 2.47279 5.70358 2.72918C5.32002 2.98557 5.02107 3.34998 4.84454 3.77634C4.668 4.2027 4.62181 4.67186 4.71181 5.12448C4.80181 5.5771 5.02395 5.99286 5.35014 6.31919C5.67633 6.64551 6.09193 6.86774 6.54437 6.95777C6.99681 7.0478 7.46578 7.0016 7.89197 6.82499C8.31816 6.64839 8.68244 6.34932 8.93872 5.9656C9.19501 5.58189 9.33181 5.13076 9.33181 4.66927C9.33181 4.05043 9.08607 3.45694 8.64866 3.01936C8.21125 2.58177 7.61799 2.33594 6.9994 2.33594ZM6.9994 5.66927C6.8017 5.66927 6.60843 5.61062 6.44405 5.50074C6.27967 5.39086 6.15154 5.23468 6.07589 5.05195C6.00023 4.86923 5.98043 4.66816 6.019 4.47418C6.05757 4.2802 6.15278 4.10202 6.29257 3.96216C6.43237 3.82231 6.61048 3.72707 6.80439 3.68849C6.99829 3.6499 7.19928 3.6697 7.38193 3.74539C7.56458 3.82108 7.7207 3.94925 7.83054 4.1137C7.94038 4.27815 7.999 4.47149 7.999 4.66927C7.999 4.93449 7.89369 5.18884 7.70623 5.37638C7.51876 5.56391 7.26451 5.66927 6.9994 5.66927Z" fill="white"/>
</svg>
