<?xml version="1.0" encoding="utf-8"?>
<!-- Generator: Adobe Illustrator 25.4.1, SVG Export Plug-In . SVG Version: 6.00 Build 0)  -->
<svg version="1.1" id="Capa_1" xmlns="http://www.w3.org/2000/svg" xmlns:xlink="http://www.w3.org/1999/xlink" x="0px" y="0px"
	 viewBox="0 0 477.9 477.9" style="enable-background:new 0 0 477.9 477.9;" xml:space="preserve">
<style type="text/css">
	.st0{fill:#FFFFFF;}
</style>
<g>
	<g>
		<path class="st0" d="M474.6,228.9c-29-38-63.8-71.2-103.2-98.3l67.3-67.3c6.8-6.5,7-17.4,0.4-24.1c-6.5-6.8-17.4-7-24.1-0.4
			c-0.1,0.1-0.3,0.3-0.4,0.4L341,112.6C309.7,95.4,274.7,86,238.9,85.3C109.2,85.3,7.5,223,3.3,228.9c-4.3,6-4.3,14.1,0,20.1
			c29,38,63.8,71.2,103.2,98.3l-67.3,67.3c-6.8,6.5-7,17.4-0.4,24.1s17.4,7,24.1,0.4c0.1-0.1,0.3-0.3,0.4-0.4l73.6-73.5
			c31.3,17.2,66.4,26.6,102.1,27.3c129.7,0,231.4-137.7,235.7-143.6C479,243,479,234.9,474.6,228.9z M131.3,322.5
			c-34.8-23.2-65.9-51.3-92.5-83.6c25.1-30.4,106.6-119.5,200.1-119.5c26.6,0.5,52.8,6.9,76.6,18.8l-29.6,29.6
			c-39.2-26-92.1-15.3-118.1,23.9c-19,28.6-19,65.7,0,94.2L131.3,322.5z M285,217c3.3,6.8,5.1,14.3,5.1,21.9
			c0,28.3-22.9,51.2-51.2,51.2c-7.6,0-15.1-1.8-21.9-5.1L285,217z M192.9,260.9c-3.3-6.8-5.1-14.3-5.1-21.9
			c0-28.3,22.9-51.2,51.2-51.2c7.6,0,15.1,1.8,21.9,5.1L192.9,260.9z M238.9,358.4c-26.6-0.5-52.8-6.9-76.6-18.8L192,310
			c39.2,26,92.1,15.3,118.1-23.9c19-28.6,19-65.7,0-94.2l36.5-36.5c34.8,23.2,65.9,51.3,92.5,83.6
			C413.9,269.4,332.5,358.4,238.9,358.4z"/>
	</g>
</g>
</svg>
