<svg width="13" height="12" viewBox="0 0 13 12" fill="none" xmlns="http://www.w3.org/2000/svg">
<path d="M11.2498 11.7253H1.74984C1.33602 11.7304 0.937057 11.5713 0.640299 11.2828C0.343541 10.9944 0.173175 10.6001 0.166504 10.1863V2.49761C0.173175 2.08382 0.343541 1.68953 0.640299 1.40109C0.937057 1.11264 1.33602 0.953534 1.74984 0.958614H4.66317C4.75672 0.959233 4.84897 0.980567 4.93329 1.02108C5.01761 1.0616 5.0919 1.1203 5.15084 1.19295L6.7975 3.20695H11.2308C11.4373 3.2019 11.6428 3.2378 11.8353 3.31258C12.0279 3.38735 12.2037 3.49951 12.3527 3.64259C12.5016 3.78567 12.6208 3.95684 12.7033 4.14621C12.7857 4.33559 12.8299 4.53942 12.8332 4.74595V10.1863C12.8265 10.6001 12.6561 10.9944 12.3594 11.2828C12.0626 11.5713 11.6637 11.7304 11.2498 11.7253ZM1.43317 7.45661V10.1863C1.43556 10.2251 1.44571 10.2631 1.46302 10.298C1.48034 10.3329 1.50447 10.3639 1.534 10.3893C1.56352 10.4147 1.59783 10.4339 1.6349 10.4458C1.67197 10.4577 1.71105 10.4621 1.74984 10.4586H11.2498C11.2886 10.4621 11.3277 10.4577 11.3648 10.4458C11.4018 10.4339 11.4362 10.4147 11.4657 10.3893C11.4952 10.3639 11.5193 10.3329 11.5366 10.298C11.554 10.2631 11.5641 10.2251 11.5665 10.1863V4.74595C11.5641 4.70708 11.554 4.66909 11.5366 4.63422C11.5193 4.59935 11.4952 4.5683 11.4657 4.54291C11.4362 4.51752 11.4018 4.49831 11.3648 4.48641C11.3277 4.47451 11.2886 4.47016 11.2498 4.47361H6.49984C6.40629 4.473 6.31404 4.45166 6.22972 4.41114C6.1454 4.37063 6.0711 4.31193 6.01217 4.23928L4.3655 2.22528H1.74984C1.71105 2.22182 1.67197 2.22617 1.6349 2.23807C1.59783 2.24998 1.56352 2.26919 1.534 2.29458C1.50447 2.31997 1.48034 2.35101 1.46302 2.38589C1.44571 2.42076 1.43556 2.45875 1.43317 2.49761V7.45661Z" fill="white"/>
</svg>
