<svg width="24" height="24" viewBox="0 0 24 24" fill="none" xmlns="http://www.w3.org/2000/svg">
<path d="M17.625 22H6.375C3.95875 22 2 20.0413 2 17.625V6.375C2 3.95875 3.95875 2 6.375 2H17.625C20.0413 2 22 3.95875 22 6.375V17.625C22 20.0413 20.0413 22 17.625 22Z" fill="#41479B"/>
<path d="M22.0002 17.6247V16.6643L18.8979 14.6318H22.0002V13.5791H13.5791V22.0002H14.6317V15.6119L21.3088 19.9865C21.5452 19.6183 21.7278 19.2123 21.8459 18.7796" fill="#F5F5F5"/>
<path d="M2.29418 19.205C2.40074 19.48 2.5341 19.7416 2.69137 19.9865L9.3684 15.6119V22.0002H10.421V13.5791H2V14.6318H5.1023L2 16.6643V17.6252C2 17.7934 2.00984 17.9593 2.02832 18.1225" fill="#F5F5F5"/>
<path d="M2 6.52371V7.33586L5.1023 9.36844H2V10.4211H10.4211V2H9.36844V8.38828L2.69137 4.01367C2.43187 4.4177 2.23723 4.86727 2.12164 5.34766" fill="#F5F5F5"/>
<path d="M21.7002 4.78004C21.5947 4.51055 21.4632 4.25402 21.3088 4.01363L14.6317 8.38828V2H13.5791V10.4211H22.0002V9.36844H18.8979L22.0002 7.33586V6.375C22.0002 6.20078 21.9897 6.02898 21.9698 5.86008" fill="#F5F5F5"/>
<path d="M13.5789 2H10.4211V10.4211H2V13.5789H10.4211V22H13.5789V13.5789H22V10.4211H13.5789V2Z" fill="#FF4B55"/>
<path d="M7.40605 14.6319L2.02832 18.1227C2.07105 18.5001 2.16168 18.863 2.29422 19.2051L9.33949 14.6318H7.40605V14.6319Z" fill="#FF4B55"/>
<path d="M15.4556 14.6319L21.8456 18.7798C21.946 18.4119 21.9999 18.0249 21.9999 17.6253V17.6248L17.389 14.6318L15.4556 14.6319Z" fill="#FF4B55"/>
<path d="M8.31578 9.36844L2.12164 5.34766C2.0423 5.67719 2 6.02113 2 6.375V6.52371L6.38234 9.36844H8.31578Z" fill="#FF4B55"/>
<path d="M16.5647 9.36863L21.9694 5.86027C21.9253 5.48355 21.8335 5.12145 21.6998 4.78027L14.6313 9.36863H16.5647Z" fill="#FF4B55"/>
</svg>
