<svg width="25" height="25" viewBox="0 0 25 25" fill="none" xmlns="http://www.w3.org/2000/svg">
<path d="M12.1875 0C5.4675 0 0 5.4675 0 12.1875C0 18.9075 5.4675 24.375 12.1875 24.375C18.9075 24.375 24.375 18.9075 24.375 12.1875C24.375 5.4675 18.9075 0 12.1875 0ZM12.1875 1.875C12.5044 1.875 12.8156 1.89375 13.125 1.92188V2.8125H15V2.27438C17.2782 2.92493 19.264 4.33811 20.625 6.2775V9.375L21.5625 11.25V12.1875H22.5C22.5 12.5306 22.4812 12.8709 22.4484 13.2056C22.44 13.2956 22.4213 13.3819 22.4109 13.4709C22.3791 13.7175 22.3472 13.9622 22.2984 14.2031C22.2806 14.2931 22.2572 14.3813 22.2366 14.4713C22.1822 14.7094 22.1241 14.9456 22.0528 15.1772C22.0284 15.2569 22.0003 15.3347 21.9741 15.4134C21.8968 15.6515 21.8108 15.8867 21.7162 16.1184C21.6881 16.1859 21.6572 16.2516 21.6281 16.3181C21.5231 16.5572 21.4125 16.7925 21.2906 17.0212C21.2625 17.0775 21.2306 17.1309 21.1997 17.1844C20.9076 17.7103 20.57 18.2097 20.1909 18.6769L20.1066 18.7809C19.9247 18.9994 19.7316 19.2084 19.5338 19.4109C19.5047 19.44 19.4775 19.4719 19.4475 19.5009C19.2438 19.7025 19.0317 19.8955 18.8119 20.0794C18.7809 20.1056 18.7547 20.1328 18.7228 20.1581C18.5034 20.3381 18.2728 20.505 18.0394 20.6672C18.0028 20.6925 17.97 20.7216 17.9334 20.7459C17.7084 20.8959 17.4759 21.0338 17.2397 21.1678C16.1176 21.7994 14.8863 22.2136 13.6106 22.3884L17.3709 19.5534L18.4022 18.5222L19.6875 15.9375V15L17.8125 14.0625H16.875L15 12.1875H13.125L12.1875 13.125V14.0625L11.25 15V16.875L13.125 18.375L11.2716 22.4541C6.01312 21.9872 1.875 17.5641 1.875 12.1875C1.875 8.9925 3.33656 6.13219 5.625 4.23844V4.6875L4.6875 5.625V7.6875L5.625 11.25L10.3125 13.125H11.25V12.1875L8.4375 11.25V9.375H11.25L12.1875 7.03125L14.0625 5.625V4.6875L11.25 2.8125L9.90188 2.13844C10.6515 1.96564 11.4182 1.87728 12.1875 1.875ZM11.25 10.3125V11.25H13.125V10.3125H11.25Z" fill="white"/>
</svg>
