<svg width="28" height="28" viewBox="0 0 28 28" fill="none" xmlns="http://www.w3.org/2000/svg">
<path d="M14 0.5C6.5561 0.5 0.5 6.5561 0.5 14V19.5931C0.5 20.9755 1.71095 22.1 3.2 22.1H4.55C4.90804 22.1 5.25142 21.9578 5.50459 21.7046C5.75777 21.4514 5.9 21.108 5.9 20.75V13.807C5.9 13.4489 5.75777 13.1055 5.50459 12.8524C5.25142 12.5992 4.90804 12.457 4.55 12.457H3.3242C4.0748 7.23245 8.5703 3.2 14 3.2C19.4297 3.2 23.9252 7.23245 24.6758 12.457H23.45C23.092 12.457 22.7486 12.5992 22.4954 12.8524C22.2422 13.1055 22.1 13.4489 22.1 13.807V22.1C22.1 23.5891 20.889 24.8 19.4 24.8H16.7V23.45H11.3V27.5H19.4C22.3781 27.5 24.8 25.0781 24.8 22.1C26.2891 22.1 27.5 20.9755 27.5 19.5931V14C27.5 6.5561 21.4439 0.5 14 0.5Z" fill="white"/>
</svg>
