<svg id="Layer_1" data-name="Layer 1" xmlns="http://www.w3.org/2000/svg" viewBox="0 0 240 160"><defs><style>.cls-1{fill:#118140;}.cls-2{fill:#fff;}.cls-3{fill:#f48e21;}.cls-4{fill:#2a2d79;}</style></defs><rect class="cls-1" x="279.55072" y="329.02899" width="53.33333" height="240" transform="translate(569.02899 -172.88406) rotate(90)"/><rect class="cls-2" x="279.55072" y="275.69565" width="53.33333" height="240" transform="translate(515.69565 -226.21739) rotate(90)"/><rect class="cls-3" x="279.55072" y="222.36232" width="53.33333" height="240" transform="translate(462.36232 -279.55072) rotate(90)"/><path class="cls-4" d="M331.01739,395.69556A24.8,24.8,0,1,0,306.217,420.49543,24.79987,24.79987,0,0,0,331.01739,395.69556Z" transform="translate(-186.21739 -315.69565)"/><path class="cls-2" d="M322.78007,410.13835a1.35953,1.35953,0,0,1,1.75648-2.0643,22.08565,22.08565,0,0,0,1.54052-2.65832,1.27629,1.27629,0,0,1-.12835-.065,1.35954,1.35954,0,0,1,1.172-2.445,21.95886,21.95886,0,0,0,.78871-2.93058,1.35936,1.35936,0,0,1,.35813-2.69478c.03685-.52333.05723-1.05163.05723-1.58474,0-.49691-.0182-.98966-.05075-1.47854a1.35933,1.35933,0,0,1-.34467-2.69668,22.00609,22.00609,0,0,0-.787-2.97333,1.35939,1.35939,0,1,1-1.03668-2.51327,22.04814,22.04814,0,0,0-1.521-2.644,1.35956,1.35956,0,1,1-1.65023-2.16016,22.195,22.195,0,0,0-2.171-2.1805,1.35981,1.35981,0,1,1-2.15186-1.66151,22.11846,22.11846,0,0,0-2.67-1.54962,1.35961,1.35961,0,1,1-2.50874-1.04387,21.95556,21.95556,0,0,0-2.95708-.79431,1.35972,1.35972,0,1,1-2.693-.35555c-.51725-.03623-1.0393-.05594-1.5657-.05594-.51077,0-1.018.01909-1.521.0531a1.34192,1.34192,0,0,1,.0225.2374,1.35985,1.35985,0,0,1-2.7151.11251,21.93023,21.93023,0,0,0-3.01.80563,1.40039,1.40039,0,0,1,.08627.2311,1.36,1.36,0,0,1-2.59327.81317,22.102,22.102,0,0,0-2.63621,1.52734,1.35967,1.35967,0,1,1-2.15208,1.65649,22.20344,22.20344,0,0,0-2.18054,2.1844,1.35972,1.35972,0,1,1-1.65241,2.1567,22.11893,22.11893,0,0,0-1.54506,2.68452,1.34352,1.34352,0,0,1,.2105.09714,1.3603,1.3603,0,0,1-1.24442,2.416,21.93492,21.93492,0,0,0-.77957,2.95011,1.36049,1.36049,0,0,1-.13746,2.714,1.37737,1.37737,0,0,1-.20832-.01753c-.03254.491-.051.986-.051,1.48524,0,.53528.02038,1.06576.05767,1.59167a1.35929,1.35929,0,1,1,.35924,2.69433,21.94528,21.94528,0,0,0,.80407,2.97267,1.38347,1.38347,0,0,1,.181-.06415,1.35984,1.35984,0,0,1,.8685,2.5716,22.11018,22.11018,0,0,0,1.53252,2.634,1.35968,1.35968,0,0,1,1.78615,2.04263,1.2892,1.2892,0,0,1-.12379.10838,22.25373,22.25373,0,0,0,2.17055,2.1619,1.4458,1.4458,0,0,1,.10492-.11882,1.3596,1.3596,0,0,1,2.055,1.76944,22.00615,22.00615,0,0,0,2.6605,1.53014,1.339,1.339,0,0,1,.06678-.13355,1.35953,1.35953,0,0,1,2.44631,1.16855,21.88737,21.88737,0,0,0,2.93711.77827,1.35971,1.35971,0,0,1,2.70209.21725,1.3066,1.3066,0,0,1-.00692.13093c.49776.03339.99943.052,1.5054.052.52121,0,1.038-.01954,1.55052-.05506-.00391-.04209-.00649-.08458-.00649-.12791a1.35978,1.35978,0,0,1,2.70081-.22591,21.95389,21.95389,0,0,0,2.97787-.7991c-.01474-.04075-.0286-.082-.03987-.12445a1.3595,1.3595,0,0,1,2.54861-.92048,22.09456,22.09456,0,0,0,2.61019-1.51065,1.35981,1.35981,0,0,1,2.06994-1.74951c.03037.03077.059.06287.08587.09537a22.1909,22.1909,0,0,0,2.16313-2.15883C322.84427,410.1986,322.81128,410.16957,322.78007,410.13835Z" transform="translate(-186.21739 -315.69565)"/><path class="cls-4" d="M307.073,386.29626,306.2344,373.601l-.8728,12.69522a58.15685,58.15685,0,0,1,.8728,9.38327A60.46861,60.46861,0,0,1,307.073,386.29626Z" transform="translate(-186.21739 -315.69565)"/><path class="cls-4" d="M306.20145,395.71287a58.14838,58.14838,0,0,1-9.3837-.873l-12.695.873,12.695.83858A60.46889,60.46889,0,0,1,306.20145,395.71287Z" transform="translate(-186.21739 -315.69565)"/><path class="cls-4" d="M306.24048,395.69639a60.48772,60.48772,0,0,1,7.2279-6.042l8.38468-9.56993-9.59439,8.35983A58.15278,58.15278,0,0,1,306.24048,395.69639Z" transform="translate(-186.21739 -315.69565)"/><path class="cls-4" d="M306.19364,395.69639a58.1433,58.1433,0,0,1-6.0173-7.25213l-9.59444-8.35983,8.38384,9.56976A60.49111,60.49111,0,0,1,306.19364,395.69639Z" transform="translate(-186.21739 -315.69565)"/><path class="cls-4" d="M309.5175,386.8532l2.53393-12.46781-4.185,12.01731a58.12794,58.12794,0,0,1-1.62859,9.282A60.54185,60.54185,0,0,1,309.5175,386.8532Z" transform="translate(-186.21739 -315.69565)"/><path class="cls-4" d="M315.05965,398.996l12.46821,2.53387-12.01773-4.185a58.13657,58.13657,0,0,1-9.2757-1.62688l0-.00515a60.465,60.465,0,0,1,9.382.83858l12.69541-.83858-12.69541-.873a58.13118,58.13118,0,0,1-9.382.873v-.00034l-.0009.00034h.0009l0,.00512-.005-.00132.00024-.001-.00017.00064-.00117,0,.00108.00029-.00157.00559-.00349-.002.00052-.00088-.00052.00088-.00075-.00044.00051.00029-.00227.00437-.00474-.00471.00086-.00086-.00056.00057-.00088-.00027.00056.00056-.00376.00373-.00256-.00437.00075-.00044-.00075.00042-.00042-.00068.00039.0007-.00373.0021-.0009-.00332.001-.00026-.00068.00017-.00066-.00108.00022.00078a58.15782,58.15782,0,0,1-9.28935,1.58012l-12.03879,4.12168,12.481-2.46844a60.42044,60.42044,0,0,1,8.84719-3.23294l.00085.00332a58.13051,58.13051,0,0,1-8.57578,3.893l-10.591,7.05444,11.43959-5.56812a60.46722,60.46722,0,0,1,7.72725-5.37928l.00175.00671a58.13469,58.13469,0,0,1-7.243,6.00865l-8.35934,9.59441,9.56994-8.38382a60.48713,60.48713,0,0,1,6.03241-7.21909l.00332.01272a58.20966,58.20966,0,0,1-5.43915,7.6651l-5.59848,11.42717,7.08048-10.57085a60.5392,60.5392,0,0,1,3.9573-8.52084l.005.01892a58.18538,58.18538,0,0,1-3.3006,8.77768l-2.50048,12.47694,4.1516-12.02641a60.55951,60.55951,0,0,1,1.64975-9.22721l.01633.06245a58.33957,58.33957,0,0,1-.87217,9.27095l.8728,12.69546.83856-12.69546a60.66338,60.66338,0,0,1-.83792-9.26606,60.63879,60.63879,0,0,1,1.5837,9.16936l4.08868,12.04811-2.435-12.48993a58.304,58.304,0,0,1-3.23744-8.7325l-.00034-.06216a60.5562,60.5562,0,0,1,3.90158,8.51979l7.02366,10.60816-5.53776-11.45672a58.22939,58.22939,0,0,1-5.38748-7.67289l-.00012-.02251a60.54444,60.54444,0,0,1,6.02412,7.20935l9.56925,8.38429-8.35954-9.59441a58.22613,58.22613,0,0,1-7.23383-5.99964l-.00007-.01076a60.48116,60.48116,0,0,1,7.69263,5.416l11.41028,5.62838-10.55351-7.10994a58.14319,58.14319,0,0,1-8.5494-3.93465l-.00005-.008A60.47544,60.47544,0,0,1,315.05965,398.996Zm-8.83533-3.27573.00347.00207-.00176.0063-.00415-.00408Zm.00166.00854-.0031.01108-.00493-.00844.00388-.00681Zm-.00891-.009.00469.00476-.004.00667-.00447-.00764Zm-.01008.00152.00371-.00218.00252.00445-.00442.00436Zm.00186.00678.00439-.00444.00442.00781-.00539.00913Zm.00356.013.0054-.00942.00493.00877-.0053.019Zm.02138.07821-.01611-.0589.00525-.01962.0112.01984Zm.00034-.06027-.011-.01884.003-.01127.00816.00822Zm.00013-.02228-.00811-.008.00171-.00639.00647.00383Zm.00007-.01081-.00644-.00369.00149-.00564.005.0014Z" transform="translate(-186.21739 -315.69565)"/><path class="cls-4" d="M306.19711,395.70791a58.14724,58.14724,0,0,1-8.8222-3.31283l-12.47692-2.5007,12.02639,4.1516A60.48226,60.48226,0,0,1,306.19711,395.70791Z" transform="translate(-186.21739 -315.69565)"/><path class="cls-4" d="M306.23958,395.70249a60.47555,60.47555,0,0,1,8.56336-3.92549l10.60858-7.02454-11.45666,5.53841A58.14668,58.14668,0,0,1,306.23958,395.70249Z" transform="translate(-186.21739 -315.69565)"/><path class="cls-4" d="M306.19452,395.69014a58.16653,58.16653,0,0,1-3.89623-8.58093l-7.054-10.59079,5.56855,11.43974A60.505,60.505,0,0,1,306.19452,395.69014Z" transform="translate(-186.21739 -315.69565)"/><path class="cls-4" d="M306.24131,395.69166a60.46909,60.46909,0,0,1,5.42246-7.70379l5.628-11.41026-7.11,10.55371A58.15714,58.15714,0,0,1,306.24131,395.69166Z" transform="translate(-186.21739 -315.69565)"/><path class="cls-4" d="M306.19538,395.70376a58.14344,58.14344,0,0,1-7.6862-5.45208L287.082,384.65317l10.57084,7.07985A60.48014,60.48014,0,0,1,306.19538,395.70376Z" transform="translate(-186.21739 -315.69565)"/><path class="cls-4" d="M306.23831,395.70918a60.47523,60.47523,0,0,1,9.28137-1.61292l12.04806-4.08853L315.07786,392.443A58.1512,58.1512,0,0,1,306.23831,395.70918Z" transform="translate(-186.21739 -315.69565)"/><path class="cls-4" d="M306.19755,395.6858a58.09315,58.09315,0,0,1-1.57956-9.29047l-4.12212-12.039,2.46842,12.481A60.48921,60.48921,0,0,1,306.19755,395.6858Z" transform="translate(-186.21739 -315.69565)"/></svg>