<svg width="14" height="14" viewBox="0 0 14 14" fill="none" xmlns="http://www.w3.org/2000/svg">
<path d="M7.00016 0.333984C5.68162 0.333984 4.39269 0.724977 3.29636 1.45752C2.20004 2.19006 1.34555 3.23125 0.840969 4.44943C0.336385 5.6676 0.204362 7.00805 0.461597 8.30125C0.718832 9.59446 1.35377 10.7823 2.28612 11.7147C3.21847 12.647 4.40636 13.282 5.69956 13.5392C6.99277 13.7965 8.33321 13.6644 9.55139 13.1598C10.7696 12.6553 11.8108 11.8008 12.5433 10.7044C13.2758 9.60812 13.6668 8.31919 13.6668 7.00065C13.6668 6.12517 13.4944 5.25826 13.1594 4.44943C12.8243 3.64059 12.3333 2.90566 11.7142 2.28661C11.0952 1.66755 10.3602 1.17649 9.55139 0.841454C8.74255 0.506423 7.87564 0.333984 7.00016 0.333984ZM7.00016 12.334C5.94533 12.334 4.91419 12.0212 4.03712 11.4352C3.16006 10.8491 2.47648 10.0162 2.07281 9.04163C1.66914 8.06709 1.56352 6.99473 1.76931 5.96017C1.9751 4.9256 2.48305 3.97529 3.22893 3.22941C3.97481 2.48353 4.92512 1.97558 5.95968 1.7698C6.99425 1.56401 8.0666 1.66963 9.04114 2.07329C10.0157 2.47696 10.8486 3.16055 11.4347 4.03761C12.0207 4.91467 12.3335 5.94582 12.3335 7.00065C12.3335 8.41514 11.7716 9.77169 10.7714 10.7719C9.77121 11.7721 8.41465 12.334 7.00016 12.334Z" fill="white"/>
<path d="M7.00016 5.0013C7.36835 5.0013 7.66683 4.70282 7.66683 4.33464C7.66683 3.96645 7.36835 3.66797 7.00016 3.66797C6.63197 3.66797 6.3335 3.96645 6.3335 4.33464C6.3335 4.70282 6.63197 5.0013 7.00016 5.0013Z" fill="white"/>
<path d="M7.00016 5.66797C6.82335 5.66797 6.65378 5.73821 6.52876 5.86323C6.40373 5.98826 6.3335 6.15782 6.3335 6.33464V9.66797C6.3335 9.84478 6.40373 10.0143 6.52876 10.1394C6.65378 10.2644 6.82335 10.3346 7.00016 10.3346C7.17697 10.3346 7.34654 10.2644 7.47157 10.1394C7.59659 10.0143 7.66683 9.84478 7.66683 9.66797V6.33464C7.66683 6.15782 7.59659 5.98826 7.47157 5.86323C7.34654 5.73821 7.17697 5.66797 7.00016 5.66797Z" fill="white"/>
</svg>
