<svg width="16" height="15" viewBox="0 0 16 15" fill="none" xmlns="http://www.w3.org/2000/svg">
<path d="M8.00065 14.1673C11.6825 14.1673 14.6673 11.1825 14.6673 7.50065C14.6673 3.81875 11.6825 0.833984 8.00065 0.833984C4.31875 0.833984 1.33398 3.81875 1.33398 7.50065C1.33398 11.1825 4.31875 14.1673 8.00065 14.1673Z" stroke="black" stroke-width="1.5" stroke-linecap="round" stroke-linejoin="round"/>
<path d="M6.06055 5.50038C6.21728 5.05482 6.52665 4.67912 6.93385 4.4398C7.34105 4.20049 7.81981 4.11301 8.28533 4.19285C8.75085 4.2727 9.17309 4.51473 9.47727 4.87607C9.78144 5.2374 9.94792 5.69473 9.94721 6.16705C9.94721 7.50038 8.00056 8.24103 8.00056 8.24103V9.35214" stroke="black" stroke-width="1.5" stroke-linecap="round" stroke-linejoin="round"/>
<path d="M8 11.5742H8.00667" stroke="black" stroke-width="1.5" stroke-linecap="round" stroke-linejoin="round"/>
</svg>
