<svg id="moon" xmlns="http://www.w3.org/2000/svg" width="15.585" height="15.531" viewBox="0 0 15.585 15.531">
  <g id="Group_88" data-name="Group 88" transform="translate(0 0)">
    <path id="Path_72" data-name="Path 72" d="M15.217,9.385a.548.548,0,0,0-.458.1,5.843,5.843,0,0,1-1.773,1.036,5.551,5.551,0,0,1-2.012.359A5.848,5.848,0,0,1,5.119,5.023a6.138,6.138,0,0,1,.319-1.932,5.348,5.348,0,0,1,.956-1.713.508.508,0,0,0-.08-.717.548.548,0,0,0-.458-.1A8.037,8.037,0,0,0,1.633,3.39a7.884,7.884,0,1,0,13.922,6.632A.472.472,0,0,0,15.217,9.385Zm-3.047,4.163A6.856,6.856,0,0,1,1.076,8.17,6.735,6.735,0,0,1,2.49,4.007,6.847,6.847,0,0,1,4.78,2.1a6.88,6.88,0,0,0-.279.677,6.628,6.628,0,0,0-.378,2.271,6.868,6.868,0,0,0,6.871,6.871,6.668,6.668,0,0,0,2.37-.418c.259-.1.518-.2.757-.319A7.246,7.246,0,0,1,12.169,13.548Z" transform="translate(0 -0.546)" fill="#fff"/>
  </g>
</svg>
