<?xml version="1.0" encoding="utf-8"?>
<!-- Generator: Adobe Illustrator 25.4.1, SVG Export Plug-In . SVG Version: 6.00 Build 0)  -->
<svg version="1.1" id="Capa_1" xmlns="http://www.w3.org/2000/svg" xmlns:xlink="http://www.w3.org/1999/xlink" x="0px" y="0px"
	 viewBox="0 0 512 512" style="enable-background:new 0 0 512 512;" xml:space="preserve">
<style type="text/css">
	.st0{fill:#FFFFFF;}
</style>
<g>
	<g>
		<path class="st0" d="M351,144.4H223.9c-11.2,0-20.3,9.1-20.3,20.3c0,11.2,9.1,20.3,20.3,20.3H351c11.2,0,20.3-9.1,20.3-20.3
			C371.3,153.5,362.2,144.4,351,144.4z"/>
	</g>
</g>
<g>
	<g>
		<path class="st0" d="M399.7,242.5H223.9c-11.2,0-20.3,9.1-20.3,20.3c0,11.2,9.1,20.3,20.3,20.3h175.9c11.2,0,20.3-9.1,20.3-20.3
			C420,251.6,410.9,242.5,399.7,242.5z"/>
	</g>
</g>
<g>
	<g>
		<path class="st0" d="M491.7,17.2H132.6c-11.2,0-20.3,9.1-20.3,20.3v191.4H76.4C34.3,228.9,0,263.2,0,305.4v113
			c0,42.1,34.3,76.4,76.4,76.4c3.4,0,6.8-0.2,10.2-0.7h334.8c50,0,90.6-40.7,90.6-90.6V37.5C512,26.3,502.9,17.2,491.7,17.2z
			 M112.3,418.3c0,17.4-12.5,31.9-28.9,35.2h-6.9v0.7c-19.8,0-35.8-16.1-35.8-35.8V305.4c0-19.8,16.1-35.8,35.8-35.8h35.8
			L112.3,418.3L112.3,418.3z M471.4,403.4c0,27.1-22.9,50-50,50H144.3c5.5-10.5,8.6-22.5,8.6-35.2V57.8h318.6L471.4,403.4
			L471.4,403.4z"/>
	</g>
</g>
<g>
	<g>
		<path class="st0" d="M351,334.5H223.9c-11.2,0-20.3,9.1-20.3,20.3c0,11.2,9.1,20.3,20.3,20.3H351c11.2,0,20.3-9.1,20.3-20.3
			C371.3,343.5,362.2,334.5,351,334.5z"/>
	</g>
</g>
</svg>
