<svg width="28" height="26" viewBox="0 0 28 26" fill="none" xmlns="http://www.w3.org/2000/svg">
<path d="M24.652 1.00002H7.19375C6.4694 0.997223 5.77345 1.27725 5.25839 1.77875C4.74334 2.28025 4.45119 2.96232 4.44596 3.67552L4.33322 18.8115H0.926281C0.809311 18.8159 0.698869 18.8657 0.61905 18.95C0.539232 19.0343 0.496516 19.1463 0.500223 19.2615V21.3445C0.503764 22.2745 0.867731 23.1681 1.5178 23.8428C2.16787 24.5176 3.05501 24.9225 3.99806 24.975V25H18.6999V24.972C18.809 24.9765 18.8756 25 18.9507 25H18.9614C19.9411 24.9943 20.8784 24.6059 21.5673 23.92C22.2563 23.2342 22.6404 22.3071 22.6354 21.3425V8.10301H27.0738C27.1909 8.09743 27.3011 8.04687 27.3807 7.96217C27.4604 7.87748 27.5031 7.7654 27.4998 7.65002V3.82852C27.5012 3.08218 27.2024 2.36567 26.6687 1.83564C26.1351 1.30561 25.41 1.00517 24.652 1.00002ZM4.18951 24.139H4.18646C3.43759 24.1333 2.72145 23.836 2.19457 23.312C1.66769 22.7879 1.37292 22.0799 1.37468 21.3425V19.6725H15.2569V21.335C15.2552 21.8148 15.3497 22.2901 15.535 22.7338C15.7204 23.1775 15.9929 23.5808 16.337 23.9205C16.421 23.9854 16.4981 24.0587 16.567 24.139H4.18951ZM21.76 21.342C21.7646 22.0783 21.4723 22.7863 20.9474 23.3106C20.4224 23.835 19.7076 24.1329 18.9599 24.139H18.9507C18.1997 24.1337 17.4814 23.8358 16.9528 23.3104C16.4243 22.7851 16.1285 22.075 16.1303 21.3355V19.2595C16.1314 19.1432 16.0864 19.031 16.0047 18.9469C15.923 18.8629 15.8112 18.8135 15.6931 18.8095H5.20768L5.32042 3.67852C5.32471 3.19311 5.52433 2.72919 5.87551 2.38848C6.22668 2.04777 6.70075 1.85809 7.19375 1.86102H22.5877C22.069 2.3948 21.7737 3.1014 21.7605 3.84002L21.76 21.342ZM26.6243 3.83602V7.24252H22.6349V3.83902C22.639 3.31645 22.8514 2.81635 23.2263 2.44641C23.6011 2.07646 24.1086 1.86625 24.6393 1.86102H24.6515C25.1782 1.86617 25.6815 2.07644 26.0513 2.44587C26.4211 2.81529 26.6273 3.31384 26.6249 3.83252L26.6243 3.83602Z" fill="white" stroke="white" stroke-width="0.5"/>
</svg>
