<svg width="12" height="11" viewBox="0 0 12 11" fill="none" xmlns="http://www.w3.org/2000/svg">
<path d="M10.83 9.7525H1.17C0.937687 9.7525 0.75 9.94019 0.75 10.1725V10.645C0.75 10.7027 0.79725 10.75 0.855 10.75H11.145C11.2027 10.75 11.25 10.7027 11.25 10.645V10.1725C11.25 9.94019 11.0623 9.7525 10.83 9.7525ZM2.66231 8.65C2.68856 8.65 2.71481 8.64738 2.74106 8.64344L4.94869 8.25625C4.97494 8.251 4.99988 8.23919 5.01825 8.2195L10.5819 2.65581C10.5941 2.64367 10.6038 2.62925 10.6103 2.61337C10.6169 2.59749 10.6203 2.58047 10.6203 2.56328C10.6203 2.54609 10.6169 2.52907 10.6103 2.51319C10.6038 2.49732 10.5941 2.48289 10.5819 2.47075L8.40056 0.288063C8.37563 0.263125 8.34281 0.25 8.30737 0.25C8.27194 0.25 8.23912 0.263125 8.21419 0.288063L2.6505 5.85175C2.63081 5.87144 2.619 5.89506 2.61375 5.92131L2.22656 8.12894C2.21379 8.19925 2.21836 8.27161 2.23985 8.33977C2.26135 8.40792 2.29914 8.4698 2.34994 8.52006C2.43656 8.60406 2.5455 8.65 2.66231 8.65Z" fill="#0884FF"/>
</svg>
