<svg width="16" height="15" viewBox="0 0 16 15" fill="none" xmlns="http://www.w3.org/2000/svg">
<path d="M8.00004 14.1673C11.6819 14.1673 14.6667 11.1825 14.6667 7.50065C14.6667 3.81875 11.6819 0.833984 8.00004 0.833984C4.31814 0.833984 1.33337 3.81875 1.33337 7.50065C1.33337 11.1825 4.31814 14.1673 8.00004 14.1673Z" stroke="white" stroke-width="1.5" stroke-linecap="round" stroke-linejoin="round"/>
<path d="M6.06006 5.50038C6.21679 5.05482 6.52616 4.67912 6.93336 4.4398C7.34056 4.20049 7.81932 4.11301 8.28484 4.19285C8.75036 4.2727 9.1726 4.51473 9.47678 4.87607C9.78095 5.2374 9.94743 5.69473 9.94673 6.16705C9.94673 7.50038 8.00007 8.24103 8.00007 8.24103V9.35214" stroke="white" stroke-width="1.5" stroke-linecap="round" stroke-linejoin="round"/>
<path d="M8 11.5742H8.00667" stroke="white" stroke-width="1.5" stroke-linecap="round" stroke-linejoin="round"/>
</svg>
