<svg width="14" height="15" viewBox="0 0 14 15" fill="none" xmlns="http://www.w3.org/2000/svg">
<path d="M13.4478 12.896L10.9301 10.3857C11.7424 9.35085 12.1832 8.07289 12.1815 6.75727C12.1815 5.58561 11.8341 4.44026 11.1832 3.46606C10.5322 2.49186 9.60701 1.73257 8.52454 1.28419C7.44207 0.835819 6.25094 0.718503 5.1018 0.947083C3.95265 1.17566 2.89709 1.73987 2.0686 2.56836C1.24011 3.39685 0.675907 4.45241 0.447327 5.60155C0.218748 6.7507 0.336063 7.94182 0.784438 9.02429C1.23281 10.1068 1.99211 11.032 2.96631 11.6829C3.94051 12.3338 5.08586 12.6813 6.25751 12.6813C7.57313 12.6829 8.85109 12.2422 9.88597 11.4298L12.3963 13.9475C12.4651 14.017 12.547 14.072 12.6373 14.1096C12.7275 14.1472 12.8243 14.1666 12.922 14.1666C13.0198 14.1666 13.1166 14.1472 13.2068 14.1096C13.297 14.072 13.3789 14.017 13.4478 13.9475C13.5172 13.8787 13.5723 13.7968 13.6099 13.7066C13.6475 13.6163 13.6668 13.5195 13.6668 13.4218C13.6668 13.324 13.6475 13.2272 13.6099 13.137C13.5723 13.0468 13.5172 12.9649 13.4478 12.896ZM1.8145 6.75727C1.8145 5.87853 2.07508 5.01952 2.56329 4.28887C3.05149 3.55822 3.74539 2.98874 4.55725 2.65246C5.3691 2.31618 6.26244 2.2282 7.1243 2.39963C7.98616 2.57106 8.77783 2.99422 9.3992 3.61559C10.0206 4.23695 10.4437 5.02862 10.6152 5.89048C10.7866 6.75234 10.6986 7.64568 10.3623 8.45754C10.026 9.26939 9.45657 9.9633 8.72592 10.4515C7.99527 10.9397 7.13626 11.2003 6.25751 11.2003C5.07915 11.2003 3.94906 10.7322 3.11583 9.89895C2.2826 9.06573 1.8145 7.93563 1.8145 6.75727Z" fill="white"/>
</svg>
