<svg width="17" height="16" viewBox="0 0 17 16" fill="none" xmlns="http://www.w3.org/2000/svg">
<path d="M5.29135 15.9924C4.90097 15.9901 4.52192 15.861 4.21135 15.6246L2.55535 14.3931C2.1732 14.0953 1.91963 13.6626 1.84673 13.1837C1.77383 12.7049 1.88712 12.2163 2.16335 11.8184C2.3095 11.6027 2.40238 11.3554 2.43437 11.0968C2.46635 10.8383 2.43653 10.5759 2.34735 10.3311L2.29935 10.2031C2.23725 9.98157 2.12376 9.77776 1.96807 9.60826C1.81239 9.43876 1.61891 9.30835 1.40335 9.2276H1.27535C0.808045 9.07054 0.421596 8.73556 0.199915 8.29541C-0.0217651 7.85525 -0.0607781 7.34546 0.0913481 6.87672L0.747348 4.79771C0.807735 4.55684 0.918914 4.33164 1.07344 4.13719C1.22797 3.94275 1.42227 3.78355 1.64335 3.67025C1.84923 3.56422 2.07449 3.50105 2.30551 3.48456C2.53652 3.46806 2.76848 3.49859 2.98735 3.5743C3.22566 3.65446 3.47994 3.67524 3.72811 3.63483C3.97628 3.59441 4.21082 3.49403 4.41135 3.34241L4.51535 3.26245C4.69686 3.11768 4.84356 2.93404 4.94464 2.72507C5.04571 2.5161 5.09858 2.28713 5.09935 2.05502V1.86311C5.0972 1.37385 5.28851 0.903548 5.63163 0.554602C5.97475 0.205656 6.44189 0.006322 6.93135 0H8.97135C9.20949 0.000641448 9.44516 0.0483004 9.66482 0.14024C9.88448 0.232179 10.0838 0.366587 10.2513 0.535745C10.6036 0.893807 10.7992 1.37696 10.7953 1.8791V2.103C10.7913 2.32349 10.8391 2.54186 10.935 2.74048C11.0309 2.9391 11.1721 3.11242 11.3473 3.24645L11.4353 3.31042C11.6149 3.445 11.8243 3.53419 12.0458 3.57039C12.2673 3.60659 12.4943 3.58873 12.7073 3.51832L12.9793 3.43037C13.2098 3.35401 13.4533 3.32483 13.6953 3.34456C13.9372 3.3643 14.1728 3.43254 14.3878 3.54522C14.6028 3.65791 14.7929 3.81272 14.9468 4.00043C15.1006 4.18814 15.2151 4.40491 15.2833 4.63779L15.9153 6.65283C16.0616 7.11852 16.0216 7.62273 15.8038 8.05959C15.586 8.49645 15.2074 8.83198 14.7473 8.99571L14.5873 9.05169C14.352 9.12871 14.1392 9.26232 13.9676 9.44079C13.7961 9.61925 13.671 9.8371 13.6033 10.0752C13.5397 10.2965 13.5246 10.529 13.5591 10.7567C13.5936 10.9844 13.6769 11.202 13.8033 11.3946L14.0113 11.6984C14.2872 12.0986 14.3994 12.5891 14.3251 13.0693C14.2507 13.5495 13.9953 13.9831 13.6113 14.2812L12.0033 15.5206C11.8091 15.6691 11.5865 15.7763 11.3492 15.8355C11.1119 15.8948 10.865 15.9049 10.6237 15.8652C10.3824 15.8255 10.1518 15.7368 9.94601 15.6047C9.74026 15.4725 9.56375 15.2997 9.42735 15.0968L9.33135 14.9609C9.20032 14.7641 9.02155 14.6036 8.8117 14.4946C8.60186 14.3855 8.36779 14.3314 8.13135 14.3372C7.90573 14.343 7.68464 14.4018 7.48592 14.5087C7.28721 14.6157 7.11642 14.7678 6.98735 14.9529L6.80335 15.2168C6.6669 15.4211 6.49004 15.5953 6.28366 15.7287C6.07728 15.8621 5.84575 15.9518 5.60335 15.9924C5.4996 16.0025 5.3951 16.0025 5.29135 15.9924ZM1.92335 7.69233C2.3751 7.85335 2.78273 8.11811 3.11343 8.46532C3.44413 8.81252 3.68866 9.23248 3.82735 9.69138V9.78734C4.0001 10.2644 4.05682 10.7757 3.99283 11.279C3.92884 11.7823 3.74598 12.2632 3.45935 12.682C3.40875 12.7378 3.38074 12.8105 3.38074 12.8859C3.38074 12.9612 3.40875 13.0339 3.45935 13.0898L5.17935 14.3931C5.20179 14.4108 5.22774 14.4234 5.25546 14.4301C5.28318 14.4369 5.31203 14.4377 5.34007 14.4324C5.36811 14.4271 5.39468 14.4158 5.41802 14.3994C5.44135 14.383 5.4609 14.3618 5.47535 14.3372L5.65935 14.0733C5.93686 13.6725 6.30746 13.3449 6.73939 13.1187C7.17132 12.8925 7.6517 12.7743 8.13935 12.7743C8.627 12.7743 9.10737 12.8925 9.5393 13.1187C9.97123 13.3449 10.3418 13.6725 10.6193 14.0733L10.7153 14.2172C10.7497 14.266 10.8011 14.3002 10.8593 14.3132C10.8861 14.3171 10.9133 14.3156 10.9394 14.3087C10.9656 14.3019 10.99 14.2898 11.0113 14.2732L12.6593 13.0258C12.717 12.98 12.755 12.9139 12.7654 12.841C12.7758 12.7682 12.7579 12.6941 12.7153 12.634L12.5073 12.3301C12.2363 11.9351 12.0575 11.4843 11.9841 11.011C11.9107 10.5377 11.9447 10.0539 12.0833 9.59543C12.2239 9.11355 12.4783 8.67248 12.8249 8.3093C13.1716 7.94612 13.6004 7.67146 14.0753 7.50842L14.2353 7.45245C14.302 7.42575 14.3554 7.37377 14.3839 7.30785C14.4124 7.24194 14.4136 7.16744 14.3873 7.10062L13.7633 5.10957C13.7484 5.07473 13.7265 5.0433 13.699 5.01718C13.6715 4.99106 13.6389 4.97081 13.6033 4.95764C13.5798 4.9457 13.5538 4.93947 13.5273 4.93947C13.5009 4.93947 13.4749 4.9457 13.4513 4.95764L13.1793 5.0456C12.7192 5.19738 12.2291 5.2352 11.7511 5.15581C11.2732 5.07642 10.8216 4.88219 10.4353 4.58981L10.4033 4.51785C10.0327 4.23728 9.73215 3.87464 9.52533 3.45842C9.31851 3.0422 9.21103 2.58372 9.21135 2.11899V1.87111C9.2128 1.79404 9.18409 1.71944 9.13135 1.66321C9.08532 1.62163 9.02538 1.59881 8.96335 1.59924H6.93135C6.89876 1.60127 6.86689 1.60972 6.83757 1.62409C6.80826 1.63847 6.78207 1.65849 6.76051 1.68301C6.73896 1.70753 6.72246 1.73606 6.71196 1.76696C6.70146 1.79787 6.69718 1.83055 6.69935 1.86311V2.06302C6.6994 2.54042 6.58979 3.01146 6.37896 3.43984C6.16814 3.86822 5.86173 4.2425 5.48335 4.53384L5.37935 4.6138C4.97113 4.92446 4.49273 5.12998 3.98631 5.21225C3.47988 5.29452 2.96098 5.25102 2.47535 5.08558C2.43901 5.07339 2.39969 5.07339 2.36335 5.08558C2.3182 5.11299 2.2842 5.15548 2.26735 5.20552L1.60335 7.29253C1.5802 7.36361 1.58563 7.4409 1.61847 7.50805C1.65132 7.5752 1.70901 7.62695 1.77935 7.65235L1.92335 7.69233Z" fill="white"/>
<path d="M8.00313 10.7946C7.44934 10.7946 6.90799 10.6305 6.44753 10.3229C5.98707 10.0154 5.62819 9.57833 5.41626 9.06694C5.20434 8.55555 5.14889 7.99283 5.25693 7.44994C5.36497 6.90705 5.63164 6.40838 6.02323 6.01698C6.41481 5.62558 6.91373 5.35903 7.45687 5.25104C8.00002 5.14306 8.56301 5.19848 9.07464 5.4103C9.58627 5.62213 10.0236 5.98084 10.3312 6.44108C10.6389 6.90132 10.8031 7.44241 10.8031 7.99593C10.8031 8.73819 10.5081 9.45004 9.98303 9.97489C9.45792 10.4997 8.74573 10.7946 8.00313 10.7946ZM8.00313 6.79651C7.76579 6.79651 7.53378 6.86685 7.33644 6.99864C7.1391 7.13044 6.9853 7.31777 6.89447 7.53693C6.80365 7.7561 6.77988 7.99726 6.82618 8.22993C6.87249 8.4626 6.98678 8.67631 7.1546 8.84406C7.32242 9.0118 7.53624 9.12604 7.76902 9.17232C8.0018 9.2186 8.24308 9.19484 8.46235 9.10406C8.68162 9.01328 8.86903 8.85954 9.00089 8.6623C9.13275 8.46505 9.20313 8.23316 9.20313 7.99593C9.20313 7.67783 9.0767 7.37275 8.85166 7.14781C8.62661 6.92287 8.32139 6.79651 8.00313 6.79651Z" fill="white"/>
</svg>
