<svg width="132" height="118" viewBox="0 0 132 118" fill="none" xmlns="http://www.w3.org/2000/svg">
<path d="M88.7417 7.68493C95.4285 12.4664 100.465 19.222 103.15 27.0117C109.136 27.7573 114.803 30.1412 119.531 33.9027C124.259 37.6643 127.866 42.6587 129.958 48.3401C132.05 54.0214 132.546 60.1709 131.393 66.1163C130.239 72.0617 127.479 77.5741 123.416 82.051C122.8 82.7558 122.04 83.3206 121.19 83.708C120.339 84.0953 119.415 84.2963 118.481 84.2975C116.882 84.2952 115.338 83.7079 114.138 82.6456C113.481 82.0716 112.944 81.3724 112.558 80.5884C112.172 79.8045 111.945 78.9514 111.89 78.0786C111.835 77.2059 111.953 76.3308 112.237 75.5042C112.522 74.6776 112.967 73.9159 113.546 73.2632C116.092 70.4053 117.757 66.8672 118.341 63.0779C118.925 59.2886 118.401 55.4106 116.834 51.914C115.267 48.4173 112.724 45.4521 109.513 43.3776C106.301 41.3032 102.56 40.2086 98.7411 40.2264H98.3463C96.8069 40.2576 95.3054 39.7457 94.1031 38.7799C92.9009 37.814 92.0739 36.4554 91.7663 34.9405C90.5581 28.9659 87.3302 23.5945 82.6294 19.7363C77.9285 15.8781 72.044 13.7705 65.9727 13.7705C59.9014 13.7705 54.0169 15.8781 49.316 19.7363C44.6152 23.5945 41.3873 28.9659 40.1791 34.9405C39.8715 36.4554 39.0445 37.814 37.8423 38.7799C36.64 39.7457 35.1385 40.2576 33.5991 40.2264H32.9411C29.1226 40.2086 25.381 41.3032 22.1696 43.3776C18.9582 45.4521 16.4149 48.4173 14.8479 51.914C13.2809 55.4106 12.7575 59.2886 13.3412 63.0779C13.9248 66.8672 15.5904 70.4053 18.1361 73.2632C18.887 73.8755 19.4943 74.6465 19.9146 75.5214C20.3349 76.3962 20.558 77.3533 20.5679 78.3246C20.5778 79.2959 20.3744 80.2574 19.972 81.1408C19.5697 82.0241 18.9783 82.8075 18.24 83.4351C17.5018 84.0628 16.6348 84.5193 15.7008 84.7721C14.7669 85.0249 13.7889 85.0678 12.8365 84.8978C11.8841 84.7278 10.9808 84.349 10.1908 83.7884C9.40082 83.2278 8.74365 82.4992 8.26608 81.6545C4.31245 77.17 1.64729 71.6905 0.555682 65.8023C-0.535923 59.9141 -0.0128971 53.8386 2.06881 48.2259C4.15052 42.6131 7.71259 37.6742 12.374 33.9375C17.0354 30.2007 22.6207 27.8068 28.5325 27.0117C31.2174 19.222 36.2537 12.4664 42.9405 7.68493C49.6273 2.90348 57.6321 0.333984 65.8411 0.333984C74.0501 0.333984 82.0549 2.90348 88.7417 7.68493Z" fill="#0884FF"/>
<path d="M63.3531 49.5409V63.7484C63.3531 63.8335 63.3507 63.9182 63.3459 64.0026V107.339C63.3459 109.812 61.3956 111.816 58.9898 111.816C56.584 111.816 54.6337 109.812 54.6337 107.339V72.2082L46.5021 77.9426C42.6901 80.6309 38.0206 76.0419 40.4622 72.007L55.4594 47.2234C57.7271 43.4758 63.3531 45.1275 63.3531 49.5409Z" fill="#0884FF"/>
<path d="M68.6054 113.272V99.0641C68.6054 98.9791 68.6078 98.8943 68.6126 98.81V55.4737C68.6126 53.0008 70.5628 50.9961 72.9686 50.9961C75.3744 50.9961 77.3247 53.0008 77.3247 55.4737V90.6044L85.4564 84.8699C89.2684 82.1817 93.9379 86.7706 91.4963 90.8056L76.4991 115.589C74.2313 119.337 68.6054 117.685 68.6054 113.272Z" fill="#0884FF"/>
</svg>
