<svg width="14" height="11" viewBox="0 0 14 11" fill="none" xmlns="http://www.w3.org/2000/svg">
<path d="M5.20432 10.9629C5.09035 10.9625 4.97767 10.9387 4.87328 10.893C4.7689 10.8473 4.67504 10.7807 4.59754 10.6972L0.557831 6.40455C0.406821 6.2438 0.325926 6.02971 0.33294 5.80938C0.339955 5.58904 0.434306 5.38052 0.595235 5.22968C0.756165 5.07883 0.970492 4.99803 1.19107 5.00503C1.41164 5.01204 1.6204 5.10629 1.7714 5.26704L5.19601 8.91205L12.1865 1.2733C12.2575 1.18506 12.3457 1.11224 12.4459 1.0593C12.546 1.00637 12.6559 0.974448 12.7689 0.965494C12.8818 0.956539 12.9954 0.970744 13.1026 1.00723C13.2099 1.04372 13.3085 1.10173 13.3925 1.17769C13.4765 1.25365 13.5441 1.34596 13.591 1.44895C13.638 1.55193 13.6634 1.66343 13.6657 1.77658C13.668 1.88973 13.647 2.00215 13.6042 2.10693C13.5614 2.21171 13.4976 2.30665 13.4167 2.3859L5.81942 10.6889C5.74265 10.7739 5.64912 10.8421 5.5447 10.8892C5.44028 10.9364 5.32722 10.9615 5.21264 10.9629H5.20432Z" fill="#39D02B"/>
<path d="M5.20432 10.9629C5.09035 10.9625 4.97767 10.9387 4.87328 10.893C4.7689 10.8473 4.67504 10.7807 4.59754 10.6972L0.557831 6.40455C0.406821 6.2438 0.325926 6.02971 0.33294 5.80938C0.339955 5.58904 0.434306 5.38052 0.595235 5.22968C0.756165 5.07883 0.970492 4.99803 1.19107 5.00503C1.41164 5.01204 1.6204 5.10629 1.7714 5.26704L5.19601 8.91205L12.1865 1.2733C12.2575 1.18506 12.3457 1.11224 12.4459 1.0593C12.546 1.00637 12.6559 0.974448 12.7689 0.965494C12.8818 0.956539 12.9954 0.970744 13.1026 1.00723C13.2099 1.04372 13.3085 1.10173 13.3925 1.17769C13.4765 1.25365 13.5441 1.34596 13.591 1.44895C13.638 1.55193 13.6634 1.66343 13.6657 1.77658C13.668 1.88973 13.647 2.00215 13.6042 2.10693C13.5614 2.21171 13.4976 2.30665 13.4167 2.3859L5.81942 10.6889C5.74265 10.7739 5.64912 10.8421 5.5447 10.8892C5.44028 10.9364 5.32722 10.9615 5.21264 10.9629H5.20432Z" fill="black" fill-opacity="0.24"/>
</svg>
