<svg id="Layer_1" data-name="Layer 1" xmlns="http://www.w3.org/2000/svg" xmlns:xlink="http://www.w3.org/1999/xlink" viewBox="0 0 296.94994 164.57436"><defs><style>.cls-1{fill:none;}.cls-2{fill:#252f6c;}.cls-3{clip-path:url(#clip-path);}.cls-4{fill:#fff;}.cls-5{fill:#c62127;}</style><clipPath id="clip-path" transform="translate(-157.74242 -313.40847)"><rect class="cls-1" x="186.21739" y="335.69565" width="240" height="120"/></clipPath></defs><rect class="cls-2" x="28.47497" y="22.28718" width="240" height="120"/><g class="cls-3"><rect class="cls-4" x="146.21739" y="383.69565" width="320" height="24" transform="translate(51.54584 -408.57827) rotate(26.565)"/><rect class="cls-5" x="228.87433" y="283.49634" width="8" height="160" transform="translate(-354.13363 95.81688) rotate(-63.435)"/><rect class="cls-5" x="375.56045" y="347.89497" width="8" height="160" transform="translate(-330.64733 262.61573) rotate(-63.435)"/><rect class="cls-4" x="146.21739" y="383.69565" width="320" height="24" transform="translate(-302.37447 -134.68959) rotate(-26.565)"/><rect class="cls-5" x="156.45204" y="431.05039" width="160" height="8" transform="translate(-327.33971 -161.73478) rotate(-26.565)"/><rect class="cls-5" x="295.98275" y="352.34092" width="160" height="8" transform="translate(-277.40924 -107.64441) rotate(-26.565)"/><polygon class="cls-4" points="288.475 62.287 168.475 62.287 168.475 2.287 128.475 2.287 128.475 62.287 8.475 62.287 8.475 102.287 128.475 102.287 128.475 162.287 168.475 162.287 168.475 102.287 288.475 102.287 288.475 62.287"/><polygon class="cls-5" points="288.475 70.287 160.475 70.287 160.475 2.287 136.475 2.287 136.475 70.287 8.475 70.287 8.475 94.287 136.475 94.287 136.475 162.287 160.475 162.287 160.475 94.287 288.475 94.287 288.475 70.287"/></g></svg>