<svg id="Layer_1" data-name="Layer 1" xmlns="http://www.w3.org/2000/svg" viewBox="0 0 240 126.31597"><defs><style>.cls-1{fill:#b02024;}.cls-2{fill:#fff;}.cls-3{fill:#24336c;}</style></defs><rect class="cls-1" width="240" height="9.71661"/><rect class="cls-1" y="116.59936" width="240" height="9.71662"/><rect class="cls-1" y="97.16613" width="240" height="9.71662"/><rect class="cls-1" y="77.7329" width="240" height="9.71662"/><rect class="cls-1" y="58.29968" width="240" height="9.71662"/><rect class="cls-1" y="38.86645" width="240" height="9.71661"/><rect class="cls-1" y="19.43323" width="240" height="9.71661"/><rect class="cls-2" y="106.88275" width="240" height="9.71661"/><rect class="cls-2" y="87.44952" width="240" height="9.71661"/><rect class="cls-2" y="68.0163" width="240" height="9.71661"/><rect class="cls-2" y="48.58306" width="240" height="9.71662"/><rect class="cls-2" y="29.14983" width="240" height="9.71662"/><rect class="cls-2" y="9.71661" width="240" height="9.71662"/><rect class="cls-3" width="96" height="68.01629"/><polygon class="cls-2" points="8 2.911 7.126 5.6 4.299 5.6 6.587 7.261 5.713 9.95 8 8.288 10.287 9.95 9.413 7.261 11.701 5.6 8.874 5.6 8 2.911"/><polygon class="cls-2" points="24 2.911 23.126 5.6 20.299 5.6 22.587 7.261 21.713 9.95 24 8.288 26.287 9.95 25.413 7.261 27.701 5.6 24.874 5.6 24 2.911"/><polygon class="cls-2" points="40 2.911 39.126 5.6 36.299 5.6 38.586 7.261 37.713 9.95 40 8.288 42.287 9.95 41.413 7.261 43.701 5.6 40.874 5.6 40 2.911"/><polygon class="cls-2" points="56 2.911 55.126 5.6 52.299 5.6 54.586 7.261 53.713 9.95 56 8.288 58.287 9.95 57.413 7.261 59.701 5.6 56.874 5.6 56 2.911"/><polygon class="cls-2" points="72 2.911 71.126 5.6 68.299 5.6 70.586 7.261 69.713 9.95 72 8.288 74.287 9.95 73.413 7.261 75.701 5.6 72.874 5.6 72 2.911"/><polygon class="cls-2" points="85.713 9.95 88 8.288 90.287 9.95 89.413 7.261 91.701 5.6 88.874 5.6 88 2.911 87.126 5.6 84.299 5.6 86.586 7.261 85.713 9.95"/><polygon class="cls-2" points="8 16.514 7.126 19.203 4.299 19.203 6.587 20.865 5.713 23.553 8 21.892 10.287 23.553 9.413 20.865 11.701 19.203 8.874 19.203 8 16.514"/><polygon class="cls-2" points="24 16.514 23.126 19.203 20.299 19.203 22.587 20.865 21.713 23.553 24 21.892 26.287 23.553 25.413 20.865 27.701 19.203 24.874 19.203 24 16.514"/><polygon class="cls-2" points="40 16.514 39.126 19.203 36.299 19.203 38.586 20.865 37.713 23.553 40 21.892 42.287 23.553 41.413 20.865 43.701 19.203 40.874 19.203 40 16.514"/><polygon class="cls-2" points="56 16.514 55.126 19.203 52.299 19.203 54.586 20.865 53.713 23.553 56 21.892 58.287 23.553 57.413 20.865 59.701 19.203 56.874 19.203 56 16.514"/><polygon class="cls-2" points="72 16.514 71.126 19.203 68.299 19.203 70.586 20.865 69.713 23.553 72 21.892 74.287 23.553 73.413 20.865 75.701 19.203 72.874 19.203 72 16.514"/><polygon class="cls-2" points="88 16.514 87.126 19.203 84.299 19.203 86.586 20.865 85.713 23.553 88 21.892 90.287 23.553 89.413 20.865 91.701 19.203 88.874 19.203 88 16.514"/><polygon class="cls-2" points="8 30.118 7.126 32.806 4.299 32.806 6.587 34.468 5.713 37.156 8 35.495 10.287 37.157 9.413 34.468 11.701 32.806 8.874 32.806 8 30.118"/><polygon class="cls-2" points="24 30.118 23.126 32.806 20.299 32.806 22.587 34.468 21.713 37.156 24 35.495 26.287 37.157 25.413 34.468 27.701 32.806 24.874 32.806 24 30.118"/><polygon class="cls-2" points="40 30.118 39.126 32.806 36.299 32.806 38.586 34.468 37.713 37.156 40 35.495 42.287 37.157 41.413 34.468 43.701 32.806 40.874 32.806 40 30.118"/><polygon class="cls-2" points="56 30.118 55.126 32.806 52.299 32.806 54.586 34.468 53.713 37.156 56 35.495 58.287 37.157 57.413 34.468 59.701 32.806 56.874 32.806 56 30.118"/><polygon class="cls-2" points="72 30.118 71.126 32.806 68.299 32.806 70.586 34.468 69.713 37.156 72 35.495 74.287 37.157 73.413 34.468 75.701 32.806 72.874 32.806 72 30.118"/><polygon class="cls-2" points="88 30.118 87.126 32.806 84.299 32.806 86.586 34.468 85.713 37.156 88 35.495 90.287 37.157 89.413 34.468 91.701 32.806 88.874 32.806 88 30.118"/><polygon class="cls-2" points="8 43.721 7.126 46.41 4.299 46.41 6.587 48.071 5.713 50.76 8 49.098 10.287 50.76 9.413 48.071 11.701 46.41 8.874 46.41 8 43.721"/><polygon class="cls-2" points="24 43.721 23.126 46.41 20.299 46.41 22.587 48.071 21.713 50.76 24 49.098 26.287 50.76 25.413 48.071 27.701 46.41 24.874 46.41 24 43.721"/><polygon class="cls-2" points="40 43.721 39.126 46.41 36.299 46.41 38.586 48.071 37.713 50.76 40 49.098 42.287 50.76 41.413 48.071 43.701 46.41 40.874 46.41 40 43.721"/><polygon class="cls-2" points="56 43.721 55.126 46.41 52.299 46.41 54.586 48.071 53.713 50.76 56 49.098 58.287 50.76 57.413 48.071 59.701 46.41 56.874 46.41 56 43.721"/><polygon class="cls-2" points="72 43.721 71.126 46.41 68.299 46.41 70.586 48.071 69.713 50.76 72 49.098 74.287 50.76 73.413 48.071 75.701 46.41 72.874 46.41 72 43.721"/><polygon class="cls-2" points="88 43.721 87.126 46.41 84.299 46.41 86.586 48.071 85.713 50.76 88 49.098 90.287 50.76 89.413 48.071 91.701 46.41 88.874 46.41 88 43.721"/><polygon class="cls-2" points="8.874 60.013 8 57.324 7.126 60.013 4.299 60.013 6.587 61.674 5.713 64.363 8 62.701 10.287 64.363 9.413 61.674 11.701 60.013 8.874 60.013"/><polygon class="cls-2" points="24.874 60.013 24 57.324 23.126 60.013 20.299 60.013 22.587 61.674 21.713 64.363 24 62.701 26.287 64.363 25.413 61.674 27.701 60.013 24.874 60.013"/><polygon class="cls-2" points="40.874 60.013 40 57.324 39.126 60.013 36.299 60.013 38.586 61.674 37.713 64.363 40 62.701 42.287 64.363 41.413 61.674 43.701 60.013 40.874 60.013"/><polygon class="cls-2" points="56.874 60.013 56 57.324 55.126 60.013 52.299 60.013 54.586 61.674 53.713 64.363 56 62.701 58.287 64.363 57.413 61.674 59.701 60.013 56.874 60.013"/><polygon class="cls-2" points="72.874 60.013 72 57.324 71.126 60.013 68.299 60.013 70.586 61.674 69.713 64.363 72 62.701 74.287 64.363 73.413 61.674 75.701 60.013 72.874 60.013"/><polygon class="cls-2" points="88.874 60.013 88 57.324 87.126 60.013 84.299 60.013 86.586 61.674 85.713 64.363 88 62.701 90.287 64.363 89.413 61.674 91.701 60.013 88.874 60.013"/><polygon class="cls-2" points="16 9.713 15.126 12.401 12.299 12.401 14.586 14.063 13.713 16.751 16 15.09 18.287 16.752 17.413 14.063 19.701 12.401 16.874 12.401 16 9.713"/><polygon class="cls-2" points="32 9.713 31.126 12.401 28.299 12.401 30.586 14.063 29.713 16.751 32 15.09 34.287 16.752 33.413 14.063 35.701 12.401 32.874 12.401 32 9.713"/><polygon class="cls-2" points="48 9.713 47.126 12.401 44.299 12.401 46.586 14.063 45.713 16.751 48 15.09 50.287 16.752 49.413 14.063 51.701 12.401 48.874 12.401 48 9.713"/><polygon class="cls-2" points="64 9.713 63.126 12.401 60.299 12.401 62.587 14.063 61.713 16.751 64 15.09 66.287 16.752 65.413 14.063 67.701 12.401 64.874 12.401 64 9.713"/><polygon class="cls-2" points="80 9.713 79.126 12.401 76.299 12.401 78.586 14.063 77.713 16.751 80 15.09 82.287 16.752 81.413 14.063 83.701 12.401 80.874 12.401 80 9.713"/><polygon class="cls-2" points="16 23.316 15.126 26.005 12.299 26.005 14.586 27.666 13.713 30.355 16 28.693 18.287 30.355 17.413 27.666 19.701 26.005 16.874 26.005 16 23.316"/><polygon class="cls-2" points="32 23.316 31.126 26.005 28.299 26.005 30.586 27.666 29.713 30.355 32 28.693 34.287 30.355 33.413 27.666 35.701 26.005 32.874 26.005 32 23.316"/><polygon class="cls-2" points="48 23.316 47.126 26.005 44.299 26.005 46.586 27.666 45.713 30.355 48 28.693 50.287 30.355 49.413 27.666 51.701 26.005 48.874 26.005 48 23.316"/><polygon class="cls-2" points="64 23.316 63.126 26.005 60.299 26.005 62.587 27.666 61.713 30.355 64 28.693 66.287 30.355 65.413 27.666 67.701 26.005 64.874 26.005 64 23.316"/><polygon class="cls-2" points="80 23.316 79.126 26.005 76.299 26.005 78.586 27.666 77.713 30.355 80 28.693 82.287 30.355 81.413 27.666 83.701 26.005 80.874 26.005 80 23.316"/><polygon class="cls-2" points="16 36.919 15.126 39.608 12.299 39.608 14.586 41.27 13.713 43.958 16 42.296 18.287 43.958 17.413 41.27 19.701 39.608 16.874 39.608 16 36.919"/><polygon class="cls-2" points="32 36.919 31.126 39.608 28.299 39.608 30.586 41.27 29.713 43.958 32 42.296 34.287 43.958 33.413 41.27 35.701 39.608 32.874 39.608 32 36.919"/><polygon class="cls-2" points="48 36.919 47.126 39.608 44.299 39.608 46.586 41.27 45.713 43.958 48 42.296 50.287 43.958 49.413 41.27 51.701 39.608 48.874 39.608 48 36.919"/><polygon class="cls-2" points="64 36.919 63.126 39.608 60.299 39.608 62.587 41.27 61.713 43.958 64 42.296 66.287 43.958 65.413 41.27 67.701 39.608 64.874 39.608 64 36.919"/><polygon class="cls-2" points="80 36.919 79.126 39.608 76.299 39.608 78.586 41.27 77.713 43.958 80 42.296 82.287 43.958 81.413 41.27 83.701 39.608 80.874 39.608 80 36.919"/><polygon class="cls-2" points="16.874 53.211 16 50.523 15.126 53.211 12.299 53.211 14.586 54.873 13.713 57.561 16 55.9 18.287 57.561 17.413 54.873 19.701 53.211 16.874 53.211"/><polygon class="cls-2" points="32.874 53.211 32 50.523 31.126 53.211 28.299 53.211 30.586 54.873 29.713 57.561 32 55.9 34.287 57.561 33.413 54.873 35.701 53.211 32.874 53.211"/><polygon class="cls-2" points="48.874 53.211 48 50.523 47.126 53.211 44.299 53.211 46.586 54.873 45.713 57.561 48 55.9 50.287 57.561 49.413 54.873 51.701 53.211 48.874 53.211"/><polygon class="cls-2" points="64.874 53.211 64 50.523 63.126 53.211 60.299 53.211 62.587 54.873 61.713 57.561 64 55.9 66.287 57.561 65.413 54.873 67.701 53.211 64.874 53.211"/><polygon class="cls-2" points="80.874 53.211 80 50.523 79.126 53.211 76.299 53.211 78.586 54.873 77.713 57.561 80 55.9 82.287 57.561 81.413 54.873 83.701 53.211 80.874 53.211"/></svg>